<svg viewBox="0 0 20 20" fill="none" xmlns="http://www.w3.org/2000/svg">

<path d="M18.3333 14V2C18.3333 1.46957 18.1138 0.960859 17.7231 0.585786C17.3324 0.210714 16.8025 0 16.25 0H3.74996C3.19742 0 2.66752 0.210714 2.27682 0.585786C1.88612 0.960859 1.66663 1.46957 1.66663 2V17C1.66663 17.7956 1.99587 18.5587 2.58192 19.1213C3.16797 19.6839 3.96282 20 4.79163 20H17.2916C17.5679 20 17.8328 19.8946 18.0282 19.7071C18.2235 19.5196 18.3333 19.2652 18.3333 19C18.3333 18.7348 18.2235 18.4804 18.0282 18.2929C17.8328 18.1054 17.5679 18 17.2916 18H16.25V16C16.8025 16 17.3324 15.7893 17.7231 15.4142C18.1138 15.0391 18.3333 14.5304 18.3333 14ZM5.83329 2H7.91663V14H5.83329V2ZM14.1666 18H4.79163C4.51536 18 4.25041 17.8946 4.05506 17.7071C3.85971 17.5196 3.74996 17.2652 3.74996 17C3.74996 16.7348 3.85971 16.4804 4.05506 16.2929C4.25041 16.1054 4.51536 16 4.79163 16H14.1666V18Z" fill="currentColor"/>

</svg>
