<svg viewBox="0 0 12 15" fill="currentColor" xmlns="http://www.w3.org/2000/svg">
<path d="M11.8333 10.3V1.9C11.8333 1.5287 11.6796 1.1726 11.4062 0.91005C11.1327 0.6475 10.7617 0.5 10.375 0.5H1.62496C1.23819 0.5 0.867252 0.6475 0.593762 0.91005C0.320271 1.1726 0.166626 1.5287 0.166626 1.9V12.4C0.166626 12.957 0.397094 13.4911 0.80733 13.8849C1.21757 14.2788 1.77396 14.5 2.35413 14.5H11.1041C11.2975 14.5 11.483 14.4263 11.6197 14.295C11.7565 14.1637 11.8333 13.9857 11.8333 13.8C11.8333 13.6143 11.7565 13.4363 11.6197 13.305C11.483 13.1737 11.2975 13.1 11.1041 13.1H10.375V11.7C10.7617 11.7 11.1327 11.5525 11.4062 11.2899C11.6796 11.0274 11.8333 10.6713 11.8333 10.3ZM3.08329 1.9H4.54163V10.3H3.08329V1.9ZM8.91663 13.1H2.35413C2.16074 13.1 1.97527 13.0263 1.83853 12.895C1.70178 12.7637 1.62496 12.5857 1.62496 12.4C1.62496 12.2143 1.70178 12.0363 1.83853 11.905C1.97527 11.7737 2.16074 11.7 2.35413 11.7H8.91663V13.1Z" fill="currentColor"/>
</svg>
