<svg viewBox="0 0 32 32" fill="currentColor" xmlns="http://www.w3.org/2000/svg">
<path d="M0 8C0 3.58172 3.58172 0 8 0H24C28.4183 0 32 3.58172 32 8V24C32 28.4183 28.4183 32 24 32H8C3.58172 32 0 28.4183 0 24V8Z" fill="currentColor"/>
<g clip-path="url(#clip0_2495_1014)">
<mask id="mask0_2495_1014" style="mask-type:alpha" maskUnits="userSpaceOnUse" x="8" y="8">
<rect x="8" y="8" fill="currentColor"/>
</mask>
<g mask="url(#mask0_2495_1014)">
<path d="M15.051 20.5212L15.4045 20.1677L15.051 20.5212C15.3027 20.7729 15.6441 20.9143 16 20.9143C16.356 20.9143 16.6973 20.7729 16.949 20.5212L16.5955 20.1677L16.949 20.5212C17.2007 20.2695 17.3421 19.9282 17.3421 19.5722V17.3421H19.5722C19.9282 17.3421 20.2695 17.2007 20.5212 16.949C20.7729 16.6973 20.9143 16.3559 20.9143 16C20.9143 15.644 20.7729 15.3027 20.5212 15.051C20.2695 14.7993 19.9282 14.6579 19.5722 14.6579H17.3421V12.4278C17.3421 12.0718 17.2007 11.7305 16.949 11.4788C16.6973 11.2271 16.356 11.0857 16 11.0857C15.6441 11.0857 15.3027 11.2271 15.051 11.4788C14.7993 11.7305 14.6579 12.0718 14.6579 12.4278V14.6579H12.4278C12.0718 14.6579 11.7305 14.7993 11.4788 15.051C11.2271 15.3027 11.0857 15.644 11.0857 16C11.0857 16.3559 11.2271 16.6973 11.4788 16.949C11.7305 17.2007 12.0718 17.3421 12.4278 17.3421H14.6579V19.5722C14.6579 19.9282 14.7993 20.2695 15.051 20.5212ZM11.8332 9.76398C13.0665 8.93992 14.5165 8.50006 15.9997 8.5C17.9882 8.50237 19.8945 9.29334 21.3006 10.6994C22.7067 12.1055 23.4977 14.012 23.5 16.0006C23.4999 17.4837 23.06 18.9336 22.236 20.1668C21.4119 21.4001 20.2406 22.3614 18.8701 22.9291C17.4997 23.4967 15.9917 23.6453 14.5368 23.3559C13.082 23.0665 11.7456 22.3522 10.6967 21.3033C9.64781 20.2544 8.9335 18.918 8.64411 17.4632C8.35472 16.0083 8.50325 14.5003 9.07091 13.1299C9.63856 11.7594 10.5999 10.5881 11.8332 9.76398Z" fill="currentColor" stroke="#F87171"/>
</g>
</g>
<defs>
<clipPath id="clip0_2495_1014">
<rect fill="currentColor" transform="translate(8 8)"/>
</clipPath>
</defs>
</svg>
