<svg viewBox="0 0 20 21" fill="currentColor" xmlns="http://www.w3.org/2000/svg">
<path d="M10 0.5C8.02219 0.5 6.08879 1.08649 4.4443 2.1853C2.79981 3.28412 1.51809 4.8459 0.761209 6.67316C0.00433284 8.50042 -0.1937 10.5111 0.192152 12.4509C0.578004 14.3907 1.53041 16.1725 2.92894 17.5711C4.32746 18.9696 6.10929 19.922 8.0491 20.3078C9.98891 20.6937 11.9996 20.4957 13.8268 19.7388C15.6541 18.9819 17.2159 17.7002 18.3147 16.0557C19.4135 14.4112 20 12.4778 20 10.5C19.9971 7.84873 18.9426 5.30688 17.0679 3.43215C15.1931 1.55741 12.6513 0.502912 10 0.5ZM13.707 9.207L9.707 13.207C9.51947 13.3945 9.26517 13.4998 9 13.4998C8.73484 13.4998 8.48053 13.3945 8.293 13.207L6.293 11.207C6.11085 11.0184 6.01005 10.7658 6.01233 10.5036C6.01461 10.2414 6.11978 9.99059 6.30518 9.80518C6.49059 9.61977 6.74141 9.5146 7.0036 9.51232C7.2658 9.51005 7.5184 9.61084 7.707 9.793L9 11.086L12.293 7.793C12.4816 7.61084 12.7342 7.51005 12.9964 7.51232C13.2586 7.5146 13.5094 7.61977 13.6948 7.80518C13.8802 7.99059 13.9854 8.2414 13.9877 8.5036C13.99 8.76579 13.8892 9.0184 13.707 9.207Z" fill="currentColor"/>
</svg>
