<svg viewBox="0 0 12 13" fill="currentColor" xmlns="http://www.w3.org/2000/svg">
    <path
        d="M10.9782 5.87768H6.62261V1.52212C6.62261 1.3571 6.55706 1.19884 6.44037 1.08215C6.32368 0.965458 6.16541 0.899902 6.00039 0.899902C5.83537 0.899902 5.6771 0.965458 5.56041 1.08215C5.44372 1.19884 5.37817 1.3571 5.37817 1.52212V5.87768H1.02261C0.857589 5.87768 0.699325 5.94324 0.582635 6.05993C0.465946 6.17661 0.400391 6.33488 0.400391 6.4999C0.400391 6.66493 0.465946 6.82319 0.582635 6.93988C0.699325 7.05657 0.857589 7.12212 1.02261 7.12212H5.37817V11.4777C5.37817 11.6427 5.44372 11.801 5.56041 11.9177C5.6771 12.0343 5.83537 12.0999 6.00039 12.0999C6.16541 12.0999 6.32368 12.0343 6.44037 11.9177C6.55706 11.801 6.62261 11.6427 6.62261 11.4777V7.12212H10.9782C11.1432 7.12212 11.3015 7.05657 11.4181 6.93988C11.5348 6.82319 11.6004 6.66493 11.6004 6.4999C11.6004 6.33488 11.5348 6.17661 11.4181 6.05993C11.3015 5.94324 11.1432 5.87768 10.9782 5.87768Z"
        fill="currentColor" />
</svg>
    