<svg viewBox="0 0 14 15" fill="currentColor" xmlns="http://www.w3.org/2000/svg">
<path d="M9.68525 5.8033L9.68175 5.8082L4.6856 10.8048L6.18298 12.3017L11.1833 7.30152L9.68525 5.8033Z" fill="currentColor"/>
<path d="M2.19768 8.31667L3.69505 9.8149L8.6919 4.81825L8.6968 4.81475L7.19803 3.31582L2.19768 8.31667Z" fill="currentColor"/>
<path d="M1.39684 9.49565L0.0359716 13.578C-0.0480325 13.8293 0.0177706 14.1072 0.20538 14.2942C0.338387 14.4279 0.517595 14.5 0.700304 14.5C0.774508 14.5 0.849412 14.4881 0.921515 14.4636L5.00342 13.1026L1.39684 9.49565Z" fill="currentColor"/>
<path d="M13.1756 1.32332C12.0773 0.225559 10.2894 0.225559 9.19102 1.32332L8.18857 2.32587L12.1739 6.31157L13.1763 5.30902C14.2747 4.21056 14.2747 2.42179 13.1756 1.32332Z" fill="currentColor"/>
</svg>
