<svg viewBox="0 0 20 21" fill="currentColor" xmlns="http://www.w3.org/2000/svg">
<g clip-path="url(#clip0_9380_35109)">
<g mask="url(#mask0_9380_35109)">
<path d="M5.04405 11.924V1.5C5.04405 1.23478 4.93963 0.98043 4.75378 0.792893C4.56792 0.605357 4.31585 0.5 4.05301 0.5C3.79017 0.5 3.53809 0.605357 3.35224 0.792893C3.16638 0.98043 3.06197 1.23478 3.06197 1.5V11.924C2.41505 12.1317 1.85039 12.5417 1.44969 13.0947C1.04898 13.6477 0.833008 14.315 0.833008 15C0.833008 15.685 1.04898 16.3523 1.44969 16.9053C1.85039 17.4583 2.41505 17.8683 3.06197 18.076V19.5C3.06197 19.7652 3.16638 20.0196 3.35224 20.2071C3.53809 20.3946 3.79017 20.5 4.05301 20.5C4.31585 20.5 4.56792 20.3946 4.75378 20.2071C4.93963 20.0196 5.04405 19.7652 5.04405 19.5V18.076C5.69097 17.8683 6.25563 17.4583 6.65633 16.9053C7.05703 16.3523 7.27301 15.685 7.27301 15C7.27301 14.315 7.05703 13.6477 6.65633 13.0947C6.25563 12.5417 5.69097 12.1317 5.04405 11.924Z" fill="currentColor"/>
<path d="M19.1663 15C19.164 14.3154 18.947 13.6492 18.5465 13.0966C18.1459 12.5441 17.5824 12.1336 16.9365 11.924V1.5C16.9365 1.23478 16.8321 0.98043 16.6462 0.792893C16.4604 0.605357 16.2083 0.5 15.9455 0.5C15.6826 0.5 15.4306 0.605357 15.2447 0.792893C15.0588 0.98043 14.9544 1.23478 14.9544 1.5V11.924C14.3075 12.1317 13.7428 12.5417 13.3421 13.0947C12.9414 13.6477 12.7255 14.315 12.7255 15C12.7255 15.685 12.9414 16.3523 13.3421 16.9053C13.7428 17.4583 14.3075 17.8683 14.9544 18.076V19.5C14.9544 19.7652 15.0588 20.0196 15.2447 20.2071C15.4306 20.3946 15.6826 20.5 15.9455 20.5C16.2083 20.5 16.4604 20.3946 16.6462 20.2071C16.8321 20.0196 16.9365 19.7652 16.9365 19.5V18.076C17.5824 17.8664 18.1459 17.4559 18.5465 16.9034C18.947 16.3508 19.164 15.6846 19.1663 15Z" fill="currentColor"/>
<path d="M13.2201 6C13.2178 5.31542 13.0008 4.64916 12.6002 4.09662C12.1997 3.54408 11.6361 3.13361 10.9903 2.924V1.5C10.9903 1.23478 10.8859 0.98043 10.7 0.792893C10.5142 0.605357 10.2621 0.5 9.99924 0.5C9.7364 0.5 9.48432 0.605357 9.29847 0.792893C9.11261 0.98043 9.0082 1.23478 9.0082 1.5V2.924C8.36128 3.13173 7.79662 3.54175 7.39592 4.09472C6.99521 4.6477 6.77924 5.31497 6.77924 6C6.77924 6.68503 6.99521 7.3523 7.39592 7.90528C7.79662 8.45825 8.36128 8.86827 9.0082 9.076V19.5C9.0082 19.7652 9.11261 20.0196 9.29847 20.2071C9.48432 20.3946 9.7364 20.5 9.99924 20.5C10.2621 20.5 10.5142 20.3946 10.7 20.2071C10.8859 20.0196 10.9903 19.7652 10.9903 19.5V9.076C11.6361 8.86639 12.1997 8.45592 12.6002 7.90338C13.0008 7.35084 13.2178 6.68458 13.2201 6Z" fill="currentColor"/>
</g>
</g>

</svg>
