<svg viewBox="0 0 20 20" fill="none" xmlns="http://www.w3.org/2000/svg">

<path d="M10.7404 6.32445C10.9084 5.82813 10.9996 5.29341 10.9996 4.73662C10.9996 2.12063 8.9846 0 6.50013 0C4.0147 0 2.00063 2.12063 2.00063 4.73662C2.00063 7.3286 3.97822 9.43387 6.43197 9.47227C6.52413 9.06716 6.69405 8.687 6.92829 8.351C7.28828 7.83356 7.80956 7.41884 8.44316 7.18269L10.7414 6.32349L10.7404 6.32445ZM19.3717 9.27547L14.6361 7.50524C14.4163 7.42364 14.1753 7.42364 13.9564 7.50524L9.22076 9.27547C8.84252 9.41659 8.59196 9.77755 8.59196 10.1808C8.59196 16.5455 13.5705 19.7221 13.7827 19.8546C13.9401 19.9516 14.1187 20.0005 14.2972 20.0005C14.4748 20.0005 14.6534 19.9516 14.8108 19.8537C15.023 19.7212 20.0005 16.5455 20.0005 10.1798C20.0005 9.77851 19.7509 9.41755 19.3717 9.27643V9.27547ZM14.3001 17.8386L14.2972 17.8358V9.43963L18.0412 10.8403C17.7868 14.6562 15.382 16.9785 14.2991 17.8396L14.3001 17.8386ZM6.35613 10.5254H4.99966C3.6739 10.5273 2.40383 11.0822 1.46591 12.0691C0.528957 13.055 0.00191999 14.3932 0 15.7881V18.9455C0 19.2258 0.104639 19.4927 0.292799 19.6905C0.479998 19.8882 0.735356 19.9986 1.00032 19.9986H10.4831C9.65659 19.1682 8.72732 18.046 7.96892 16.6329C7.08669 14.9884 6.41469 12.9513 6.35613 10.5244V10.5254Z" fill="currentColor"/>

</svg>
