<svg   viewBox="0 0 14 15" fill="currentColor" xmlns="http://www.w3.org/2000/svg">
<path d="M12.5556 0.5H1.44412C0.647133 0.5 0 1.14713 0 1.94412V13.0563C0 13.8532 0.647133 14.5004 1.44412 14.5004H12.5556C13.3532 14.5004 13.9997 13.8532 13.9997 13.0563V1.94412C13.9997 1.14646 13.3526 0.5 12.5556 0.5ZM6.34701 13.0563C6.09703 13.0563 5.88132 12.9729 5.70122 12.8063C5.52045 12.6396 5.41159 12.436 5.37463 12.1948L5.24964 11.2782C5.12935 11.2318 5.01578 11.176 4.90961 11.1115C4.80276 11.047 4.6986 10.9771 4.59713 10.9032L3.73563 11.2647C3.50446 11.3669 3.2733 11.3756 3.04146 11.2923C2.81029 11.2089 2.62952 11.0611 2.49983 10.8481L1.84732 9.70904C1.71762 9.49602 1.68066 9.26956 1.73644 9.02831C1.79154 8.78774 1.91721 8.58815 2.11141 8.43091L2.84792 7.87516C2.83851 7.81065 2.83448 7.74816 2.83448 7.68768V7.3127C2.83448 7.25222 2.83919 7.1904 2.84792 7.12522L2.11141 6.56947C1.91721 6.41223 1.79154 6.21332 1.73644 5.97207C1.68066 5.73082 1.71762 5.50436 1.84732 5.29134L2.49983 4.1523C2.62952 3.93928 2.81029 3.79144 3.04146 3.70811C3.2733 3.62479 3.50446 3.63352 3.73563 3.73566L4.59713 4.09653C4.69927 4.02261 4.80545 3.95272 4.917 3.88821C5.02788 3.8237 5.13876 3.76792 5.25031 3.72155L5.3753 2.80495C5.41226 2.5637 5.52113 2.36009 5.70189 2.19343C5.88266 2.02678 6.0977 1.94345 6.34768 1.94345H7.65337C7.90335 1.94345 8.11839 2.02678 8.29916 2.19343C8.47926 2.36009 8.58812 2.5637 8.62508 2.80495L8.75007 3.72155C8.87036 3.76792 8.98392 3.8237 9.09077 3.88821C9.19695 3.95272 9.30111 4.02261 9.40325 4.09653L10.2641 3.73566C10.4959 3.63352 10.7271 3.62479 10.9583 3.70811C11.1901 3.79144 11.3709 3.93928 11.4999 4.1523L12.1531 5.29134C12.2828 5.50436 12.3197 5.73082 12.2639 5.97207C12.2082 6.21264 12.0832 6.41223 11.889 6.56947L11.1531 7.12522C11.1619 7.18973 11.1672 7.25222 11.1672 7.3127V7.68768C11.1672 7.74816 11.1578 7.80998 11.1397 7.87516L11.8755 8.43091C12.0704 8.58815 12.1947 8.78706 12.2505 9.02831C12.3063 9.26956 12.2693 9.49602 12.1396 9.70904L11.473 10.8481C11.3433 11.0611 11.1625 11.2089 10.9314 11.2923C10.7002 11.3756 10.4684 11.3669 10.2372 11.2647L9.40325 10.9032C9.30111 10.9778 9.1956 11.047 9.08405 11.1115C8.97317 11.176 8.86162 11.2318 8.75074 11.2782L8.62575 12.1948C8.58879 12.436 8.47993 12.6396 8.29983 12.8063C8.11906 12.9729 7.90335 13.0563 7.65404 13.0563H6.34835H6.34701ZM7.02774 9.44495C7.56467 9.44495 8.02297 9.25477 8.40265 8.8751C8.78233 8.49542 8.9725 8.03712 8.9725 7.50019C8.9725 6.96259 8.78233 6.50496 8.40265 6.12529C8.02297 5.74561 7.56467 5.55543 7.02774 5.55543C6.48141 5.55543 6.02109 5.74561 5.64544 6.12529C5.27114 6.50496 5.08298 6.96259 5.08298 7.50019C5.08298 8.03712 5.27047 8.49542 5.64544 8.8751C6.02042 9.25477 6.48141 9.44495 7.02774 9.44495Z" fill="currentColor"/>
</svg>
