<svg viewBox="0 0 14 15" fill="none" xmlns="http://www.w3.org/2000/svg">
<path d="M13.9337 7.16575C13.8891 7.05813 13.8252 6.96187 13.7438 6.8805L10.2444 3.38138C9.90227 3.03925 9.34923 3.03925 9.00708 3.38138C8.66493 3.7235 8.66493 4.2765 9.00708 4.61862L11.0136 6.625H3.50027C3.01636 6.625 2.62521 7.017 2.62521 7.5C2.62521 7.983 3.01636 8.375 3.50027 8.375H11.0136L9.00708 10.3814C8.66493 10.7235 8.66493 11.2765 9.00708 11.6186C9.17772 11.7893 9.40173 11.875 9.62575 11.875C9.84977 11.875 10.0738 11.7893 10.2444 11.6186L13.7438 8.1195C13.8252 8.039 13.8891 7.94187 13.9337 7.83425C14.0221 7.62075 14.0221 7.37925 13.9337 7.16575Z" fill="#EF4444"/>
<path d="M5.25041 12.75H2.62521C2.14217 12.75 1.75014 12.3571 1.75014 11.875V3.125C1.75014 2.64287 2.14217 2.25 2.62521 2.25H5.25041C5.73432 2.25 6.12548 1.858 6.12548 1.375C6.12548 0.892 5.73432 0.5 5.25041 0.5H2.62521C1.17784 0.5 0 1.67775 0 3.125V11.875C0 13.3223 1.17784 14.5 2.62521 14.5H5.25041C5.73432 14.5 6.12548 14.108 6.12548 13.625C6.12548 13.142 5.73432 12.75 5.25041 12.75Z" fill="#EF4444"/>
</svg>
