<svg viewBox="0 0 20 21" fill="currentColor" xmlns="http://www.w3.org/2000/svg">

<path d="M1.18941 12.5302C1.93597 12.5282 2.668 12.3237 3.30746 11.9384C3.94691 11.5531 4.46979 11.0015 4.82036 10.3424L7.88659 13.4086C8.55643 14.0555 9.45358 14.4135 10.3848 14.4054C11.316 14.3973 12.2068 14.0238 12.8653 13.3653C13.5238 12.7068 13.8973 11.816 13.9054 10.8848C13.9135 9.95359 13.5555 9.05644 12.9086 8.38659L9.84235 5.32036C10.5015 4.96979 11.0531 4.44691 11.4384 3.80746C11.8237 3.168 12.0282 2.43597 12.0302 1.68941C12.0302 1.64443 12.0183 1.60299 12.0159 1.558H17.4345C18.1148 1.55863 18.7669 1.82912 19.2479 2.3101C19.7289 2.79108 19.9994 3.44325 20 4.12346V17.9345C19.9994 18.6148 19.7289 19.2669 19.2479 19.7479C18.7669 20.2289 18.1148 20.4994 17.4345 20.5H3.62346C2.94325 20.4994 2.29108 20.2289 1.8101 19.7479C1.32912 19.2669 1.05863 18.6148 1.058 17.9345V12.5159C1.10299 12.5183 1.14442 12.5302 1.18941 12.5302Z" fill="currentColor"/>
<path d="M1.18941 9.57047C1.50339 9.57047 1.80452 9.44574 2.02654 9.22372C2.24856 9.0017 2.37329 8.70058 2.37329 8.38659V2.87329H7.88659C8.20057 2.87329 8.5017 2.74856 8.72372 2.52654C8.94574 2.30452 9.07047 2.0034 9.07047 1.68941C9.07047 1.37543 8.94574 1.07431 8.72372 0.852286C8.5017 0.630266 8.20057 0.505537 7.88659 0.505537H1.18941C0.875427 0.505537 0.574303 0.630266 0.352283 0.852286C0.130264 1.07431 0.00553513 1.37543 0.00553513 1.68941V8.38659C0.00553513 8.70058 0.130264 9.0017 0.352283 9.22372C0.574303 9.44574 0.875427 9.57047 1.18941 9.57047Z" fill="currentColor"/>
<path d="M10.3976 12.0815C10.6321 12.0824 10.8616 12.0136 11.057 11.8838C11.2523 11.7541 11.4048 11.5693 11.4949 11.3528C11.5851 11.1363 11.609 10.8979 11.5635 10.6679C11.5179 10.4378 11.4051 10.2264 11.2393 10.0606L2.02641 0.847677C1.91618 0.73745 1.78532 0.650013 1.64131 0.590358C1.49729 0.530703 1.34293 0.5 1.18704 0.5C1.03116 0.5 0.876801 0.530703 0.73278 0.590358C0.588762 0.650013 0.457903 0.73745 0.347675 0.847677C0.237448 0.957905 0.150013 1.08876 0.0903568 1.23278C0.0307026 1.3768 -1.90735e-06 1.53116 -1.90735e-06 1.68704C-1.90735e-06 1.84293 0.0307026 1.99729 0.0903568 2.14131C0.150013 2.28533 0.237448 2.41618 0.347675 2.52641L9.56059 11.7393C9.67062 11.8488 9.80122 11.9354 9.94488 11.9941C10.0885 12.0528 10.2424 12.0825 10.3976 12.0815Z" fill="currentColor"/>
 
</svg>
