<svg  viewBox="0 0 20 21" fill="none" xmlns="http://www.w3.org/2000/svg">

<path d="M18.8235 3.95236H1.17647C0.864451 3.95236 0.565212 3.81439 0.344581 3.56881C0.123949 3.32323 0 2.99014 0 2.64284C0 2.29553 0.123949 1.96245 0.344581 1.71686C0.565212 1.47128 0.864451 1.33331 1.17647 1.33331H18.8235C19.1355 1.33331 19.4348 1.47128 19.6554 1.71686C19.8761 1.96245 20 2.29553 20 2.64284C20 2.99014 19.8761 3.32323 19.6554 3.56881C19.4348 3.81439 19.1355 3.95236 18.8235 3.95236Z" fill="currentColor"/>
<path d="M18.8235 11.8095H1.17647C0.864451 11.8095 0.565212 11.6715 0.344581 11.426C0.123949 11.1804 0 10.8473 0 10.5C0 10.1527 0.123949 9.81959 0.344581 9.57401C0.565212 9.32842 0.864451 9.19046 1.17647 9.19046H18.8235C19.1355 9.19046 19.4348 9.32842 19.6554 9.57401C19.8761 9.81959 20 10.1527 20 10.5C20 10.8473 19.8761 11.1804 19.6554 11.426C19.4348 11.6715 19.1355 11.8095 18.8235 11.8095Z" fill="currentColor"/>
<path d="M18.8235 19.6666H1.17647C0.864451 19.6666 0.565212 19.5287 0.344581 19.2831C0.123949 19.0375 0 18.7044 0 18.3571C0 18.0098 0.123949 17.6767 0.344581 17.4311C0.565212 17.1856 0.864451 17.0476 1.17647 17.0476H18.8235C19.1355 17.0476 19.4348 17.1856 19.6554 17.4311C19.8761 17.6767 20 18.0098 20 18.3571C20 18.7044 19.8761 19.0375 19.6554 19.2831C19.4348 19.5287 19.1355 19.6666 18.8235 19.6666Z" fill="currentColor"/>

</svg>
