<svg   viewBox="0 0 683 768" fill="currentColor" xmlns="http://www.w3.org/2000/svg">
<path d="M341.5 0H1033V768H341.5V0Z" fill="currentColor"/>
<path d="M-350 0H333.882L397.204 383.656L333.882 768H-350V0Z" fill="currentColor"/>
<path d="M171.727 0V83.9482H224.919L294.584 176.842H389.986V0H171.727Z" fill="currentColor"/>
<path d="M511.165 768V684.052H457.805L387.921 591.158H292.217V768H511.165Z" fill="currentColor"/>
<path fill-rule="evenodd" clip-rule="evenodd" d="M982.069 0.00376028H721.496C700.749 0.00376028 684.849 7.74618 673.971 22.0315L509.573 238.037L566.019 311.87L735.328 89.412H847.193L621.984 384.004L847.193 678.595H735.328L566.572 456.867L509.86 530.346L673.971 745.972C684.849 760.257 700.749 768 721.496 768H982.069C1003.32 768 1011.85 748.988 999.303 732.507L733.058 384L999.303 35.4933C1011.85 19.012 1003.32 0 982.069 0V0.00376028Z" fill="currentColor" fill-opacity="0.5"/>
<path fill-rule="evenodd" clip-rule="evenodd" d="M-299.981 0H-38.862C-18.0712 0 -2.1376 7.74242 8.76294 22.0277L284.835 384L8.76294 745.972C-2.1376 760.258 -18.0712 768 -38.862 768H-299.981C-321.281 768 -329.824 748.988 -317.251 732.507L-85.5402 428.706H25.7705L-164.815 678.595H-52.715L171.964 384.004L-52.715 89.412H-164.815L25.7705 339.301H-85.5402L-317.251 35.5008C-329.824 19.0195 -321.281 0.00752056 -299.981 0.00752056V0Z" fill="currentColor" fill-opacity="0.5"/>
<path fill-rule="evenodd" clip-rule="evenodd" d="M758.292 0.00394465H497.719C476.972 0.00394465 461.072 7.74636 450.194 22.0317L285.796 238.037L342.242 311.87L511.551 89.4121H623.416L398.206 384.004L623.416 678.596H511.551L342.795 456.867L286.083 530.346L450.194 745.972C461.072 760.258 476.972 768 497.719 768H758.292C779.547 768 788.073 748.988 775.526 732.507L509.28 384L775.526 35.4935C788.073 19.0122 779.547 0.000184364 758.292 0.000184364V0.00394465Z" fill="currentColor"/>
<path fill-rule="evenodd" clip-rule="evenodd" d="M-76.1676 0H185.364C206.188 0 222.147 7.74242 233.064 22.0277L509.573 384L233.064 745.972C222.147 760.258 206.188 768 185.364 768H-76.1676C-97.5009 768 -106.057 748.988 -93.4644 732.507L138.612 428.706H250.099L59.212 678.595H171.489L396.524 384.004L171.489 89.412H59.212L250.099 339.301H138.612L-93.4644 35.5008C-106.057 19.0195 -97.5009 0.00752056 -76.1676 0.00752056V0Z" fill="currentColor"/>
<path d="M-350 0H1033V768H-350V0Z" fill="currentColor" fill-opacity="0.5"/>
</svg>
