<svg viewBox="0 0 20 20" fill="none" xmlns="http://www.w3.org/2000/svg">
<path fill-rule="evenodd" clip-rule="evenodd" d="M17.4755 17.87C17.4755 18.1461 17.3571 18.3828 17.1993 18.58C17.0021 18.7773 16.7654 18.8562 16.4893 18.8562C16.2131 18.8562 15.9765 18.7378 15.7792 18.58C15.582 18.3828 15.5031 18.1461 15.5031 17.87V16.0159H9.23084C9.27029 16.2131 9.27029 16.3709 9.27029 16.5287C9.27029 17.436 8.91526 18.3039 8.32354 18.9745C7.73182 19.6057 6.90341 19.9607 6.03555 19.9607C5.16769 19.9607 4.33928 19.6057 3.74756 18.9745C3.15584 18.3433 2.80081 17.436 2.80081 16.5287C2.80081 16.3709 2.84026 16.1737 2.84026 16.0159H1.02565C0.749513 16.0159 0.512825 15.8976 0.315584 15.7003C0.118344 15.5031 0.039448 15.2269 0.039448 14.9508C0.039448 13.294 0.039448 14.6747 0.039448 13.0179C0.039448 12.7417 0.157792 12.505 0.315584 12.3078C0.512825 12.1105 0.749513 12.0317 1.02565 12.0317C3.58977 12.0317 9.74367 12.0317 14.3196 12.0317V11.0455C14.3196 10.7693 14.3985 10.5326 14.5958 10.3354C14.793 10.1381 15.0297 10.0593 15.3058 10.0593H19.014C19.2901 10.0593 19.5268 10.1776 19.724 10.3354C19.9213 10.5326 20.0002 10.7693 20.0002 11.0455C20.0002 11.3216 19.8818 11.5583 19.724 11.7555C19.5268 11.9528 19.2901 12.0317 19.014 12.0317H17.5149C17.5149 14.3591 17.5149 15.582 17.5149 17.9094L17.4755 17.87ZM0 4.97045V0.986201C0 0.710065 0.118344 0.473377 0.276136 0.276136C0.473377 0.0788961 0.710065 0 0.986201 0C6.15389 0 11.3216 0 16.4893 0C16.7654 0 17.0021 0.118344 17.1993 0.276136C17.3966 0.473377 17.4755 0.710065 17.4755 0.986201V4.97045L13.3729 9.54643C13.0968 9.86201 12.7023 9.98036 12.2289 9.98036C11.7555 9.98036 11.361 9.82256 11.0849 9.54643L8.75747 6.94286L6.43003 9.54643C6.1539 9.86201 5.75942 9.98036 5.28604 9.98036C4.81266 9.98036 4.41818 9.82256 4.14204 9.54643L0.039448 4.97045H0ZM5.9961 17.87C5.75941 17.87 5.52273 17.7911 5.28604 17.6333C5.0888 17.4755 4.93101 17.2782 4.81266 17.0416C4.73377 16.8049 4.69432 16.5287 4.73377 16.292C4.77321 16.0159 4.89156 15.7792 5.0888 15.6214C5.24659 15.4242 5.48328 15.3058 5.71997 15.2664C5.95666 15.2269 6.23279 15.2269 6.43003 15.3453C6.66672 15.4636 6.86396 15.6214 6.9823 15.8187C7.10065 16.0554 7.17954 16.292 7.17954 16.5682C7.17954 16.9232 7.0612 17.2388 6.82451 17.5149C6.58782 17.7516 6.27224 17.9094 5.95666 17.9094L5.9961 17.87Z" fill="currentColor"/>
</svg>
