<svg   viewBox="0 0 24 24" fill="currentColor" xmlns="http://www.w3.org/2000/svg">
<g clip-path="url(#clip0_2332_7738)">
<mask id="mask0_2332_7738" style="mask-type:alpha" maskUnits="userSpaceOnUse" x="4" y="4"  >
<rect x="4" y="4"   fill="currentColor"/>
</mask>
<g mask="url(#mask0_2332_7738)">
<path d="M17.7618 15.9836C17.3804 15.9836 17.0147 15.8433 16.745 15.5938L12.0088 11.2119L7.27259 15.5938C7.13992 15.7209 6.98121 15.8222 6.80574 15.892C6.63027 15.9617 6.44154 15.9984 6.25057 16C6.05959 16.0015 5.8702 15.9678 5.69345 15.9009C5.51669 15.834 5.3561 15.7352 5.22106 15.6103C5.08602 15.4853 4.97922 15.3368 4.90691 15.1732C4.83459 15.0097 4.7982 14.8345 4.79986 14.6578C4.80152 14.4811 4.84119 14.3065 4.91657 14.1441C4.99195 13.9818 5.10152 13.835 5.23889 13.7122L10.9919 8.3896C11.2617 8.14014 11.6274 8 12.0088 8C12.3902 8 12.7559 8.14014 13.0256 8.3896L18.7787 13.7122C18.9798 13.8983 19.1167 14.1354 19.1722 14.3935C19.2277 14.6516 19.1992 14.9191 19.0903 15.1622C18.9815 15.4053 18.7972 15.6131 18.5607 15.7593C18.3243 15.9055 18.0463 15.9836 17.7618 15.9836Z" fill="currentColor"/>
</g>
</g>
<defs>
<clipPath id="clip0_2332_7738">
<rect   fill="currentColor" transform="translate(4 4)"/>
</clipPath>
</defs>
</svg>
