<svg viewBox="0 0 14 15" fill="currentColor" xmlns="http://www.w3.org/2000/svg">
    <path
        d="M7 0.5C5.61553 0.5 4.26215 0.910543 3.11101 1.67971C1.95987 2.44888 1.06266 3.54213 0.532846 4.82121C0.00303299 6.1003 -0.13559 7.50776 0.134506 8.86563C0.404603 10.2235 1.07129 11.4708 2.05026 12.4497C3.02922 13.4287 4.2765 14.0954 5.63437 14.3655C6.99224 14.6356 8.3997 14.497 9.67879 13.9672C10.9579 13.4373 12.0511 12.5401 12.8203 11.389C13.5895 10.2378 14 8.88447 14 7.5C13.998 5.64411 13.2598 3.86482 11.9475 2.5525C10.6352 1.24019 8.85589 0.502038 7 0.5ZM9.5949 6.5949L6.7949 9.3949C6.66363 9.52613 6.48562 9.59985 6.3 9.59985C6.11439 9.59985 5.93637 9.52613 5.8051 9.3949L4.4051 7.9949C4.27759 7.86288 4.20704 7.68606 4.20863 7.50252C4.21023 7.31898 4.28384 7.14341 4.41363 7.01363C4.54342 6.88384 4.71898 6.81022 4.90252 6.80863C5.08606 6.80703 5.26288 6.87759 5.3949 7.0051L6.3 7.9102L8.6051 5.6051C8.73712 5.47759 8.91394 5.40703 9.09748 5.40863C9.28102 5.41022 9.45659 5.48384 9.58637 5.61363C9.71616 5.74341 9.78978 5.91898 9.79137 6.10252C9.79297 6.28606 9.72241 6.46288 9.5949 6.5949Z"
        fill="currentColor" />
</svg>