<svg viewBox="0 0 14 7" fill="currentColor" xmlns="http://www.w3.org/2000/svg">
<path d="M7.01568 7C6.68153 6.99993 6.3611 6.87723 6.12486 6.65886L1.08486 2.00174C0.964516 1.89434 0.868526 1.76586 0.802491 1.62382C0.736455 1.48177 0.701697 1.32899 0.700243 1.1744C0.698789 1.01981 0.730669 0.866495 0.794023 0.723409C0.857377 0.580323 0.950936 0.450329 1.06924 0.341011C1.18755 0.231694 1.32823 0.145242 1.48308 0.0867009C1.63793 0.0281598 1.80384 -0.00129941 1.97114 4.39583e-05C2.13845 0.00138733 2.30378 0.0335055 2.45751 0.0945244C2.61123 0.155543 2.75027 0.244242 2.8665 0.355442L7.01568 4.18942L11.1649 0.355442C11.4025 0.143359 11.7208 0.026006 12.0511 0.0286587C12.3815 0.0313114 12.6975 0.153757 12.9311 0.369625C13.1648 0.585492 13.2973 0.877509 13.3001 1.18278C13.303 1.48805 13.176 1.78215 12.9465 2.00174L7.9065 6.65886C7.67026 6.87723 7.34982 6.99993 7.01568 7Z" fill="currentColor"/>
</svg>
