<svg   viewBox="0 0 24 24" fill="currentColor" xmlns="http://www.w3.org/2000/svg">
<path d="M15.3162 21C14.8751 20.9999 14.4521 20.8104 14.1403 20.4732L7.487 13.2821C7.17517 12.9449 7 12.4878 7 12.011C7 11.5343 7.17517 11.0771 7.487 10.74L14.1403 3.54884C14.2937 3.37714 14.4772 3.24018 14.6802 3.14596C14.8831 3.05174 15.1014 3.00214 15.3222 3.00007C15.5431 2.99799 15.7621 3.04348 15.9665 3.13387C16.1709 3.22427 16.3567 3.35776 16.5128 3.52656C16.669 3.69536 16.7925 3.89609 16.8761 4.11703C16.9598 4.33797 17.0019 4.5747 16.9999 4.81341C16.998 5.05212 16.9521 5.28803 16.865 5.50737C16.7778 5.7267 16.6511 5.92508 16.4922 6.09092L11.0149 12.011L16.4922 17.9312C16.7248 18.1826 16.8831 18.5029 16.9473 18.8516C17.0114 19.2003 16.9785 19.5617 16.8526 19.8901C16.7267 20.2186 16.5136 20.4993 16.2401 20.6969C15.9667 20.8944 15.6452 20.9999 15.3162 21Z" fill="currentColor"/>
</svg>
