<svg viewBox="0 0 14 15" fill="currentColor" xmlns="http://www.w3.org/2000/svg">
<path d="M12.1348 7.49271C11.7949 7.49265 11.4689 7.36981 11.2286 7.15122L7.00769 3.31325L2.78677 7.15122C2.66853 7.26254 2.52709 7.35133 2.3707 7.41241C2.21432 7.4735 2.04613 7.50565 1.87593 7.50699C1.70574 7.50834 1.53695 7.47885 1.37943 7.42025C1.2219 7.36164 1.07878 7.2751 0.958434 7.16567C0.838084 7.05624 0.742907 6.92611 0.678458 6.78287C0.614008 6.63964 0.581577 6.48617 0.583056 6.33142C0.584535 6.17666 0.619895 6.02373 0.687072 5.88153C0.754249 5.73934 0.851899 5.61073 0.974322 5.50322L6.10146 0.841241C6.34184 0.622745 6.6678 0.5 7.00769 0.5C7.34757 0.5 7.67354 0.622745 7.91391 0.841241L13.0411 5.50322C13.2203 5.66621 13.3423 5.87386 13.3917 6.09991C13.4412 6.32596 13.4158 6.56027 13.3188 6.7732C13.2218 6.98614 13.0575 7.16814 12.8468 7.29621C12.6361 7.42428 12.3883 7.49266 12.1348 7.49271Z" fill="currentColor"/>
<path d="M12.1348 14.4857C11.7949 14.4856 11.4689 14.3628 11.2286 14.1442L7.00769 10.3062L2.78677 14.1442C2.66853 14.2555 2.52709 14.3443 2.3707 14.4054C2.21432 14.4665 2.04613 14.4986 1.87593 14.5C1.70574 14.5013 1.53695 14.4718 1.37943 14.4132C1.2219 14.3546 1.07878 14.2681 0.958434 14.1586C0.838084 14.0492 0.742907 13.9191 0.678458 13.7758C0.614008 13.6326 0.581577 13.4791 0.583056 13.3244C0.584535 13.1696 0.619895 13.0167 0.687072 12.8745C0.754249 12.7323 0.851899 12.6037 0.974322 12.4962L6.10146 7.8342C6.34184 7.61571 6.6678 7.49296 7.00769 7.49296C7.34757 7.49296 7.67354 7.61571 7.91391 7.8342L13.0411 12.4962C13.2203 12.6592 13.3423 12.8668 13.3917 13.0929C13.4412 13.3189 13.4158 13.5532 13.3188 13.7662C13.2218 13.9791 13.0575 14.1611 12.8468 14.2892C12.6361 14.4172 12.3883 14.4856 12.1348 14.4857Z" fill="currentColor"/>
</svg>
