<svg viewBox="0 0 14 7" fill="currentColor" xmlns="http://www.w3.org/2000/svg">
<path d="M12.042 6.98569C11.7082 6.98563 11.3882 6.86291 11.1522 6.64455L7.00806 2.81043L2.86389 6.64455C2.74779 6.75575 2.60893 6.84445 2.45539 6.90547C2.30185 6.96649 2.13671 6.99861 1.96961 6.99996C1.80251 7.0013 1.63679 6.97184 1.48213 6.9133C1.32747 6.85475 1.18696 6.7683 1.0688 6.65898C0.950633 6.54965 0.857187 6.41966 0.79391 6.27657C0.730632 6.13347 0.698791 5.98016 0.700243 5.82556C0.701695 5.67096 0.736412 5.51818 0.802367 5.37613C0.868323 5.23407 0.964197 5.1056 1.08439 4.99819L6.11832 0.340898C6.35432 0.122621 6.67436 0 7.00806 0C7.34177 0 7.66181 0.122621 7.89781 0.340898L12.9317 4.99819C13.1077 5.16102 13.2275 5.36847 13.276 5.59429C13.3246 5.82011 13.2996 6.05418 13.2044 6.2669C13.1092 6.47962 12.9479 6.66145 12.741 6.78939C12.5341 6.91733 12.2908 6.98564 12.042 6.98569Z" fill="currentColor"/>
</svg>
