<svg viewBox="0 0 12 12" fill="currentColor" xmlns="http://www.w3.org/2000/svg">
<path d="M5.58865 3.65963L5.58871 3.65958C5.69493 3.5614 5.84686 3.50008 6.01278 3.5L5.58865 3.65963ZM5.58865 3.65963L1.26865 7.65145L1.2687 7.65151M5.58865 3.65963L1.2687 7.65151M1.2687 7.65151L1.26225 7.65727M1.2687 7.65151L1.26225 7.65727M1.26225 7.65727C1.20834 7.70538 1.16774 7.76076 1.14069 7.81894C1.11371 7.87698 1.1002 7.93776 1.09963 7.99807C1.09906 8.05839 1.11143 8.11924 1.13722 8.17751C1.16308 8.2359 1.20247 8.2917 1.25526 8.34048C1.30814 8.38934 1.37316 8.4299 1.44746 8.45799C1.5218 8.4861 1.60266 8.50064 1.68498 8.49998C1.7673 8.49932 1.84778 8.48348 1.92141 8.45425C1.99501 8.42504 2.05905 8.38356 2.11079 8.33405L2.11074 8.334M1.26225 7.65727L2.11074 8.334M2.11074 8.334L2.11711 8.32811M2.11074 8.334L2.11711 8.32811M2.11711 8.32811L5.67355 5.04184L6.01288 4.72829M2.11711 8.32811L6.01288 4.72829M6.01288 4.72829L6.35221 5.04184M6.01288 4.72829L6.35221 5.04184M6.35221 5.04184L9.90495 8.32469C10.0121 8.41904 10.1623 8.47676 10.325 8.47545C10.489 8.47413 10.6389 8.41303 10.744 8.31595L11.0833 8.68318L10.744 8.31595C10.8477 8.22004 10.8985 8.09896 10.8996 7.98149C10.9007 7.86508 10.8531 7.74472 10.7534 7.64803L6.43711 3.65963L6.43705 3.65958M6.35221 5.04184L6.43705 3.65958M6.43705 3.65958C6.33083 3.5614 6.1789 3.50008 6.01298 3.5L6.43705 3.65958Z" fill="currentColor" stroke="currentColor"/>
</svg>
