<svg   viewBox="0 0 14 15" fill="currentColor" xmlns="http://www.w3.org/2000/svg">
<path d="M6.99967 14.5C6.66017 14.4999 6.33461 14.3771 6.09458 14.1585L0.973834 9.49662C0.851563 9.38911 0.754035 9.26051 0.686942 9.11832C0.619849 8.97612 0.584533 8.82319 0.583056 8.66844C0.581579 8.51369 0.61397 8.36022 0.678339 8.21699C0.742708 8.07376 0.837765 7.94363 0.957966 7.8342C1.07817 7.72477 1.2211 7.63823 1.37843 7.57963C1.53576 7.52103 1.70434 7.49154 1.87432 7.49288C2.0443 7.49423 2.21229 7.52638 2.36848 7.58746C2.52466 7.64854 2.66592 7.73733 2.78402 7.84864L6.99967 11.6865L11.2153 7.84864C11.4568 7.63634 11.7802 7.51887 12.1158 7.52153C12.4515 7.52418 12.7726 7.64675 13.0099 7.86284C13.2473 8.07893 13.3819 8.37125 13.3848 8.67683C13.3877 8.98241 13.2587 9.27681 13.0255 9.49662L7.90477 14.1585C7.66474 14.3771 7.33917 14.4999 6.99967 14.5Z" fill="currentColor"/>
<path d="M6.99967 7.50716C6.66017 7.5071 6.33461 7.38426 6.09458 7.16568L0.973834 2.50378C0.851563 2.39627 0.754035 2.26767 0.686942 2.12548C0.619849 1.98328 0.584533 1.83035 0.583056 1.6756C0.581579 1.52085 0.61397 1.36738 0.678339 1.22415C0.742708 1.08092 0.837765 0.950788 0.957966 0.841359C1.07817 0.73193 1.2211 0.64539 1.37843 0.586789C1.53576 0.528187 1.70434 0.498699 1.87432 0.500044C2.0443 0.501389 2.21229 0.53354 2.36848 0.594621C2.52466 0.655702 2.66592 0.744491 2.78402 0.855805L6.99967 4.69371L11.2153 0.855805C11.3334 0.744491 11.4747 0.655702 11.6309 0.594621C11.7871 0.53354 11.955 0.501389 12.125 0.500044C12.295 0.498699 12.4636 0.528187 12.6209 0.586789C12.7782 0.64539 12.9212 0.73193 13.0414 0.841359C13.1616 0.950788 13.2566 1.08092 13.321 1.22415C13.3854 1.36738 13.4178 1.52085 13.4163 1.6756C13.4148 1.83035 13.3795 1.98328 13.3124 2.12548C13.2453 2.26767 13.1478 2.39627 13.0255 2.50378L7.90477 7.16568C7.66474 7.38426 7.33917 7.5071 6.99967 7.50716Z" fill="currentColor"/>
</svg>
