<svg viewBox="0 0 14 14" fill="none" xmlns="http://www.w3.org/2000/svg">
<path d="M9.32137 13.3002C9.0126 13.3001 8.71649 13.1675 8.49819 12.9315L3.8409 7.89765C3.62262 7.66166 3.5 7.34162 3.5 7.00793C3.5 6.67423 3.62262 6.3542 3.8409 6.1182L8.49819 1.08439C8.6056 0.964191 8.73407 0.86832 8.87613 0.802365C9.01818 0.736411 9.17096 0.701695 9.32556 0.700243C9.48016 0.698791 9.63347 0.730632 9.77657 0.793908C9.91966 0.857184 10.0497 0.950628 10.159 1.06879C10.2683 1.18695 10.3548 1.32746 10.4133 1.48212C10.4718 1.63677 10.5013 1.80249 10.5 1.96958C10.4986 2.13668 10.4665 2.30181 10.4055 2.45535C10.3445 2.60889 10.2557 2.74775 10.1445 2.86384L6.31043 7.00793L10.1445 11.152C10.3073 11.328 10.4182 11.5522 10.4631 11.7963C10.508 12.0404 10.4849 12.2934 10.3968 12.5233C10.3087 12.7532 10.1595 12.9497 9.9681 13.088C9.77668 13.2263 9.55161 13.3001 9.32137 13.3002Z" fill="currentColor"/>
</svg>
