<svg   viewBox="0 0 24 24" fill="currentColor" xmlns="http://www.w3.org/2000/svg">
<path d="M8.68376 21C8.35484 20.9999 8.03332 20.8944 7.75986 20.6969C7.48639 20.4993 7.27325 20.2186 7.14739 19.8901C7.02152 19.5617 6.98859 19.2003 7.05274 18.8516C7.11689 18.5029 7.27525 18.1826 7.50779 17.9312L12.9851 12.011L7.50779 6.09092C7.34893 5.92508 7.22221 5.7267 7.13504 5.50737C7.04787 5.28803 7.00198 5.05212 7.00006 4.81341C6.99814 4.5747 7.04023 4.33797 7.12386 4.11703C7.2075 3.89609 7.331 3.69536 7.48718 3.52656C7.64335 3.35776 7.82906 3.22427 8.03348 3.13387C8.23789 3.04348 8.45692 2.99799 8.67777 3.00007C8.89863 3.00214 9.11689 3.05174 9.31982 3.14596C9.52275 3.24018 9.70629 3.37714 9.85973 3.54884L16.513 10.74C16.8248 11.0771 17 11.5343 17 12.011C17 12.4878 16.8248 12.9449 16.513 13.2821L9.85973 20.4732C9.54787 20.8104 9.12486 20.9999 8.68376 21Z" fill="currentColor"/>
</svg>
