<svg viewBox="0 0 24 24" fill="currentColor" xmlns="http://www.w3.org/2000/svg">
<path fill-rule="evenodd" clip-rule="evenodd" d="M0 12C0 5.3724 5.3724 0 12 0C18.6276 0 24 5.3724 24 12C24 18.6276 18.6276 24 12 24C5.3724 24 0 18.6276 0 12ZM6.9084 10.8C6.59014 10.8 6.28492 10.9264 6.05987 11.1515C5.83483 11.3765 5.7084 11.6817 5.7084 12C5.7084 12.3183 5.83483 12.6235 6.05987 12.8485C6.28492 13.0736 6.59014 13.2 6.9084 13.2H17.0916C17.4099 13.2 17.7151 13.0736 17.9401 12.8485C18.1652 12.6235 18.2916 12.3183 18.2916 12C18.2916 11.6817 18.1652 11.3765 17.9401 11.1515C17.7151 10.9264 17.4099 10.8 17.0916 10.8H6.9084Z" fill="currentColor"/>
</svg>
