<svg viewBox="0 0 24 24" fill="currentColor" xmlns="http://www.w3.org/2000/svg">
<path d="M12 0C9.62663 0 7.30655 0.703787 5.33316 2.02236C3.35977 3.34094 1.8217 5.21508 0.913451 7.4078C0.00519938 9.60051 -0.232441 12.0133 0.230582 14.3411C0.693605 16.6688 1.83649 18.807 3.51472 20.4853C5.19295 22.1635 7.33115 23.3064 9.65892 23.7694C11.9867 24.2324 14.3995 23.9948 16.5922 23.0865C18.7849 22.1783 20.6591 20.6402 21.9776 18.6668C23.2962 16.6934 24 14.3734 24 12C23.9963 8.81853 22.7309 5.76842 20.4812 3.51878C18.2316 1.26914 15.1815 0.00367742 12 0ZM17.3583 13.2632H13.2632V17.3583C13.2632 17.6933 13.1301 18.0146 12.8932 18.2515C12.6563 18.4884 12.335 18.6215 12 18.6215C11.665 18.6215 11.3437 18.4884 11.1068 18.2515C10.8699 18.0146 10.7368 17.6933 10.7368 17.3583V13.2632H6.64169C6.30668 13.2632 5.98539 13.1301 5.7485 12.8932C5.51161 12.6563 5.37853 12.335 5.37853 12C5.37853 11.665 5.51161 11.3437 5.7485 11.1068C5.98539 10.8699 6.30668 10.7368 6.64169 10.7368H10.7368V6.64168C10.7368 6.30667 10.8699 5.98538 11.1068 5.7485C11.3437 5.51161 11.665 5.37852 12 5.37852C12.335 5.37852 12.6563 5.51161 12.8932 5.7485C13.1301 5.98538 13.2632 6.30667 13.2632 6.64168V10.7368H17.3583C17.6933 10.7368 18.0146 10.8699 18.2515 11.1068C18.4884 11.3437 18.6215 11.665 18.6215 12C18.6215 12.335 18.4884 12.6563 18.2515 12.8932C18.0146 13.1301 17.6933 13.2632 17.3583 13.2632Z" fill="currentColor"/>
</svg>
