<svg   viewBox="0 0 14 14" fill="currentColor" xmlns="http://www.w3.org/2000/svg">
<path d="M7 0C5.61553 0 4.26215 0.410543 3.11101 1.17971C1.95987 1.94888 1.06266 3.04213 0.532846 4.32121C0.00303299 5.6003 -0.13559 7.00776 0.134506 8.36563C0.404603 9.7235 1.07129 10.9708 2.05026 11.9497C3.02922 12.9287 4.2765 13.5954 5.63437 13.8655C6.99224 14.1356 8.3997 13.997 9.67879 13.4672C10.9579 12.9373 12.0511 12.0401 12.8203 10.889C13.5895 9.73784 14 8.38447 14 7C13.998 5.14411 13.2598 3.36482 11.9475 2.0525C10.6352 0.74019 8.85589 0.00203812 7 0ZM9.5949 8.6051C9.66176 8.66967 9.71509 8.74691 9.75177 8.83231C9.78846 8.91772 9.80777 9.00957 9.80858 9.10252C9.80938 9.19546 9.79167 9.28764 9.75648 9.37366C9.72128 9.45969 9.6693 9.53785 9.60358 9.60357C9.53785 9.6693 9.4597 9.72128 9.37367 9.75647C9.28764 9.79167 9.19547 9.80938 9.10252 9.80857C9.00958 9.80777 8.91772 9.78846 8.83232 9.75177C8.74692 9.71508 8.66967 9.66175 8.6051 9.5949L7 7.9898L5.3949 9.5949C5.26288 9.72241 5.08606 9.79296 4.90252 9.79137C4.71898 9.78977 4.54342 9.71616 4.41363 9.58637C4.28384 9.45658 4.21023 9.28102 4.20863 9.09748C4.20704 8.91394 4.27759 8.73712 4.4051 8.6051L6.0102 7L4.4051 5.3949C4.27759 5.26288 4.20704 5.08606 4.20863 4.90252C4.21023 4.71898 4.28384 4.54341 4.41363 4.41363C4.54342 4.28384 4.71898 4.21022 4.90252 4.20863C5.08606 4.20703 5.26288 4.27759 5.3949 4.4051L7 6.0102L8.6051 4.4051C8.73712 4.27759 8.91394 4.20703 9.09748 4.20863C9.28102 4.21022 9.45659 4.28384 9.58637 4.41363C9.71616 4.54341 9.78978 4.71898 9.79137 4.90252C9.79297 5.08606 9.72241 5.26288 9.5949 5.3949L7.9898 7L9.5949 8.6051Z" fill="currentColor"/>
</svg>
