<svg viewBox="0 0 14 15" fill="currentColor" xmlns="http://www.w3.org/2000/svg">
    <path
        d="M7 0.5C5.61553 0.5 4.26215 0.910543 3.11101 1.67971C1.95987 2.44888 1.06266 3.54213 0.532846 4.82121C0.00303299 6.1003 -0.13559 7.50776 0.134506 8.86563C0.404603 10.2235 1.07129 11.4708 2.05026 12.4497C3.02922 13.4287 4.2765 14.0954 5.63437 14.3655C6.99224 14.6356 8.3997 14.497 9.67879 13.9672C10.9579 13.4373 12.0511 12.5401 12.8203 11.389C13.5895 10.2378 14 8.88447 14 7.5C13.998 5.64411 13.2598 3.86482 11.9475 2.5525C10.6352 1.24019 8.85589 0.502038 7 0.5ZM9.7874 10.2874C9.65613 10.4186 9.47812 10.4923 9.2925 10.4923C9.10689 10.4923 8.92887 10.4186 8.7976 10.2874L6.5058 7.9956C6.37486 7.86378 6.30095 7.68579 6.3 7.5V4.7C6.3 4.51435 6.37375 4.3363 6.50503 4.20502C6.6363 4.07375 6.81435 4 7 4C7.18565 4 7.3637 4.07375 7.49498 4.20502C7.62625 4.3363 7.7 4.51435 7.7 4.7V7.2102L9.7874 9.2976C9.91863 9.42887 9.99235 9.60688 9.99235 9.7925C9.99235 9.97811 9.91863 10.1561 9.7874 10.2874Z"
        fill="currentColor" />
</svg>
    