<svg viewBox="0 0 12 12" fill="currentColor" xmlns="http://www.w3.org/2000/svg">
    <path
        d="M7.08889 5.99997L11.1649 1.92396C11.2385 1.85292 11.2971 1.76795 11.3375 1.674C11.3778 1.58004 11.3991 1.47899 11.4 1.37674C11.4009 1.27449 11.3814 1.17309 11.3427 1.07845C11.3039 0.983811 11.2468 0.89783 11.1744 0.825526C11.1021 0.753221 11.0162 0.69604 10.9215 0.65732C10.8269 0.6186 10.7255 0.599116 10.6232 0.600005C10.521 0.600893 10.4199 0.622137 10.326 0.662496C10.232 0.702855 10.147 0.761521 10.076 0.835071L6 4.91109L1.92398 0.835071C1.77874 0.694795 1.58422 0.617176 1.38231 0.61893C1.1804 0.620685 0.987253 0.701673 0.844474 0.844452C0.701696 0.98723 0.620708 1.18037 0.618953 1.38229C0.617199 1.5842 0.694818 1.77872 0.835094 1.92396L4.91111 5.99997L0.835094 10.076C0.761544 10.147 0.702878 10.232 0.662519 10.326C0.62216 10.4199 0.600916 10.521 0.600028 10.6232C0.599139 10.7255 0.618623 10.8269 0.657343 10.9215C0.696063 11.0161 0.753244 11.1021 0.825549 11.1744C0.897853 11.2467 0.983834 11.3039 1.07847 11.3426C1.17311 11.3813 1.27452 11.4008 1.37677 11.3999C1.47902 11.3991 1.58007 11.3778 1.67402 11.3375C1.76797 11.2971 1.85294 11.2384 1.92398 11.1649L6 7.08886L10.076 11.1649C10.2213 11.3052 10.4158 11.3828 10.6177 11.381C10.8196 11.3793 11.0127 11.2983 11.1555 11.1555C11.2983 11.0127 11.3793 10.8196 11.381 10.6177C11.3828 10.4158 11.3052 10.2212 11.1649 10.076L7.08889 5.99997Z"
        fill="currentColor" />
</svg>