<svg viewBox="0 0 56 56" fill="currentColor" xmlns="http://www.w3.org/2000/svg">
<path d="M28 0C22.4621 0 17.0486 1.64217 12.444 4.71885C7.83947 7.79553 4.25064 12.1685 2.13139 17.2849C0.012132 22.4012 -0.542361 28.0311 0.538025 33.4625C1.61841 38.894 4.28515 43.8831 8.20102 47.799C12.1169 51.7148 17.106 54.3816 22.5375 55.462C27.9689 56.5424 33.5988 55.9879 38.7151 53.8686C43.8315 51.7494 48.2045 48.1605 51.2811 43.556C54.3578 38.9514 56 33.5379 56 28C55.9918 20.5764 53.0392 13.4593 47.79 8.21001C42.5407 2.96076 35.4236 0.00815247 28 0ZM38.3796 34.4204C38.647 34.6787 38.8603 34.9876 39.0071 35.3293C39.1538 35.6709 39.2311 36.0383 39.2343 36.4101C39.2375 36.7818 39.1667 37.1506 39.0259 37.4947C38.8851 37.8388 38.6772 38.1514 38.4143 38.4143C38.1514 38.6772 37.8388 38.8851 37.4947 39.0259C37.1506 39.1667 36.7819 39.2375 36.4101 39.2343C36.0383 39.2311 35.6709 39.1538 35.3293 39.0071C34.9877 38.8603 34.6787 38.647 34.4204 38.3796L28 31.9592L21.5796 38.3796C21.0515 38.8896 20.3442 39.1719 19.6101 39.1655C18.8759 39.1591 18.1737 38.8646 17.6545 38.3455C17.1354 37.8263 16.8409 37.1241 16.8345 36.3899C16.8281 35.6558 17.1104 34.9485 17.6204 34.4204L24.0408 28L17.6204 21.5796C17.1104 21.0515 16.8281 20.3442 16.8345 19.6101C16.8409 18.8759 17.1354 18.1736 17.6545 17.6545C18.1737 17.1354 18.8759 16.8409 19.6101 16.8345C20.3442 16.8281 21.0515 17.1104 21.5796 17.6204L28 24.0408L34.4204 17.6204C34.9485 17.1104 35.6558 16.8281 36.3899 16.8345C37.1241 16.8409 37.8264 17.1354 38.3455 17.6545C38.8646 18.1736 39.1591 18.8759 39.1655 19.6101C39.1719 20.3442 38.8896 21.0515 38.3796 21.5796L31.9592 28L38.3796 34.4204Z" fill="currentColor"/>
</svg>
