<svg viewBox="0 0 24 25" fill="currentColor" xmlns="http://www.w3.org/2000/svg">
    <path
        d="M22.6667 9.83333H21.6573L20.7147 7.55733L21.428 6.84267C21.678 6.59263 21.8184 6.25355 21.8184 5.9C21.8184 5.54645 21.678 5.20737 21.428 4.95733L19.5427 3.072C19.2926 2.82204 18.9536 2.68162 18.6 2.68162C18.2464 2.68162 17.9074 2.82204 17.6573 3.072L16.9427 3.78533L14.6667 2.84267V1.83333C14.6667 1.47971 14.5262 1.14057 14.2761 0.890524C14.0261 0.640476 13.687 0.5 13.3333 0.5H10.6667C10.313 0.5 9.97391 0.640476 9.72386 0.890524C9.47381 1.14057 9.33333 1.47971 9.33333 1.83333V2.84267L7.05733 3.78533L6.34267 3.072C6.09263 2.82204 5.75355 2.68162 5.4 2.68162C5.04645 2.68162 4.70737 2.82204 4.45733 3.072L2.572 4.95733C2.32204 5.20737 2.18162 5.54645 2.18162 5.9C2.18162 6.25355 2.32204 6.59263 2.572 6.84267L3.28667 7.55733L2.34267 9.83333H1.33333C0.979711 9.83333 0.640573 9.97381 0.390524 10.2239C0.140476 10.4739 0 10.813 0 11.1667V13.8333C0 14.187 0.140476 14.5261 0.390524 14.7761C0.640573 15.0262 0.979711 15.1667 1.33333 15.1667H2.34267C2.79733 16.264 2.832 16.3453 3.28533 17.4427L2.572 18.1573C2.32204 18.4074 2.18162 18.7464 2.18162 19.1C2.18162 19.4536 2.32204 19.7926 2.572 20.0427L4.45733 21.928C4.70737 22.178 5.04645 22.3184 5.4 22.3184C5.75355 22.3184 6.09263 22.178 6.34267 21.928L7.05733 21.2147L9.33333 22.1573V23.1667C9.33333 23.5203 9.47381 23.8594 9.72386 24.1095C9.97391 24.3595 10.313 24.5 10.6667 24.5H13.3333C13.687 24.5 14.0261 24.3595 14.2761 24.1095C14.5262 23.8594 14.6667 23.5203 14.6667 23.1667V22.1573L16.9427 21.2133L17.6573 21.928C17.9074 22.178 18.2464 22.3184 18.6 22.3184C18.9536 22.3184 19.2926 22.178 19.5427 21.928L21.428 20.0427C21.678 19.7926 21.8184 19.4536 21.8184 19.1C21.8184 18.7464 21.678 18.4074 21.428 18.1573L20.7147 17.4427L21.6573 15.1667H22.6667C23.0203 15.1667 23.3594 15.0262 23.6095 14.7761C23.8595 14.5261 24 14.187 24 13.8333V11.1667C24 10.813 23.8595 10.4739 23.6095 10.2239C23.3594 9.97381 23.0203 9.83333 22.6667 9.83333ZM12 17.8333C10.9452 17.8333 9.91402 17.5205 9.03696 16.9345C8.1599 16.3485 7.47631 15.5155 7.07264 14.541C6.66897 13.5664 6.56336 12.4941 6.76915 11.4595C6.97493 10.425 7.48288 9.47464 8.22876 8.72876C8.97464 7.98288 9.92495 7.47493 10.9595 7.26915C11.9941 7.06336 13.0664 7.16897 14.041 7.57264C15.0155 7.97631 15.8485 8.6599 16.4345 9.53696C17.0205 10.414 17.3333 11.4452 17.3333 12.5C17.3333 13.9145 16.7714 15.271 15.7712 16.2712C14.771 17.2714 13.4145 17.8333 12 17.8333Z"
        fill="currentColor" />
</svg>
    