<svg   viewBox="0 0 1440 800" fill="currentColor" xmlns="http://www.w3.org/2000/svg">
<g clip-path="url(#clip0_2144_1080)">
<rect   fill="currentColor"/>
<path d="M720 0H1440V800H720V0Z" fill="currentColor"/>
<path d="M0 0H712.068L778 399.642L712.068 800H0V0Z" fill="currentColor"/>
<path d="M543.23 0V87.446H598.615L671.15 184.21H770.485V0H543.23Z" fill="currentColor"/>
<path d="M896.658 800V712.554H841.099L768.334 615.79H668.686V800H896.658Z" fill="currentColor"/>
<path fill-rule="evenodd" clip-rule="evenodd" d="M1386.97 0.00391696H1115.66C1094.06 0.00391696 1077.5 8.06894 1066.17 22.9495L895 247.955L953.773 324.865L1130.06 93.1375H1246.54L1012.04 400.004L1246.54 706.87H1130.06L954.348 475.903L895.299 552.444L1066.17 777.054C1077.5 791.935 1094.06 800 1115.66 800H1386.97C1409.1 800 1417.98 780.196 1404.91 763.028L1127.7 400L1404.91 36.9722C1417.98 19.8041 1409.1 0 1386.97 0V0.00391696Z" fill="currentColor" fill-opacity="0.5"/>
<path fill-rule="evenodd" clip-rule="evenodd" d="M52.0803 0H323.962C345.609 0 362.199 8.06502 373.549 22.9456L661 400L373.549 777.055C362.199 791.935 345.609 800 323.962 800H52.0803C29.9028 800 21.0076 780.196 34.099 763.028L275.359 446.569H391.258L192.817 706.87H309.538L543.477 400.004L309.538 93.1375H192.817L391.258 353.439H275.359L34.099 36.98C21.0076 19.812 29.9028 0.00783392 52.0803 0.00783392V0Z" fill="currentColor" fill-opacity="0.5"/>
<path fill-rule="evenodd" clip-rule="evenodd" d="M1153.97 0.00410901H882.658C861.055 0.00410901 844.5 8.06913 833.174 22.9497L662 247.956L720.773 324.865L897.059 93.1377H1013.54L779.044 400.004L1013.54 706.871H897.059L721.348 475.903L662.299 552.444L833.174 777.055C844.5 791.935 861.055 800 882.658 800H1153.97C1176.1 800 1184.98 780.196 1171.91 763.028L894.695 400L1171.91 36.9724C1184.98 19.8043 1176.1 0.000192046 1153.97 0.000192046V0.00410901Z" fill="currentColor"/>
<path fill-rule="evenodd" clip-rule="evenodd" d="M285.118 0H557.429C579.111 0 595.727 8.06502 607.095 22.9456L895 400L607.095 777.055C595.727 791.935 579.111 800 557.429 800H285.118C262.906 800 253.997 780.196 267.109 763.028L508.75 446.569H624.832L426.078 706.87H542.982L777.291 400.004L542.982 93.1375H426.078L624.832 353.439H508.75L267.109 36.98C253.997 19.812 262.906 0.00783392 285.118 0.00783392V0Z" fill="currentColor"/>
<path d="M0 0H1440V800H0V0Z" fill="currentColor" fill-opacity="0.5"/>
</g>
<defs>
<clipPath id="clip0_2144_1080">
<rect   fill="currentColor"/>
</clipPath>
</defs>
</svg>
