<svg viewBox="0 0 20 20" fill="none" xmlns="http://www.w3.org/2000/svg">
<path d="M6.49917 9.47419C6.91965 9.47419 7.32668 9.41276 7.7126 9.29948C7.7126 9.12188 7.73276 8.93756 7.76828 8.75516L7.77692 8.72828C7.8086 8.57372 7.85756 8.41532 7.92284 8.255L7.919 8.25308C7.98908 8.07356 8.08412 7.89404 8.19836 7.7222C8.31068 7.54748 8.44604 7.3862 8.59964 7.24028C9.24667 6.60861 9.89371 6.13821 10.5465 5.81277L10.5503 5.81949C10.6723 5.75901 10.7942 5.70237 10.9161 5.65149C10.9708 5.35581 11.0006 5.04958 11.0006 4.73662C11.0006 2.12063 8.98556 0 6.50109 0C4.01566 0 2.00159 2.12063 2.00159 4.73662C2.00159 7.3526 4.01662 9.47323 6.50109 9.47323L6.49917 9.47419ZM15.6604 8.25116C16.869 8.84828 17.8098 9.31291 19.0962 8.69084C19.1922 8.64092 19.2978 8.62172 19.4044 8.62844C19.5109 8.63516 19.6146 8.66588 19.7049 8.72252C19.7951 8.77916 19.869 8.85404 19.9209 8.94908C19.9717 9.04316 19.9986 9.14972 19.9986 9.25628V15.2466C19.9986 15.3599 19.966 15.479 19.9026 15.5788C19.8402 15.6796 19.7519 15.7545 19.6453 15.8111C17.7734 16.7212 16.2662 15.9618 15.093 15.3714C14.9634 15.3023 14.8329 15.2399 14.7023 15.1766C14.0534 14.8626 13.5177 14.662 12.9724 14.6927C12.4953 14.7119 11.9222 14.9126 11.2079 15.5654V19.3708C11.2079 19.5397 11.1417 19.6972 11.0236 19.8162C10.9065 19.9305 10.7462 19.9986 10.5801 19.9986C10.4131 19.9986 10.2528 19.9305 10.1356 19.8162C10.0176 19.6972 9.95131 19.5397 9.95131 19.3708V9.30523C9.95131 9.22364 9.96763 9.14204 9.99931 9.06716C10.031 8.98556 10.078 8.91644 10.1376 8.8598C11.0937 7.91804 12.0009 7.49084 12.911 7.44668C13.7942 7.40252 14.5766 7.72892 15.2466 8.04956C15.3878 8.11868 15.525 8.1878 15.6585 8.2502L15.6604 8.25116ZM7.7126 10.5264H4.99966C3.6739 10.5283 2.40383 11.0831 1.46591 12.07C0.528957 13.0559 0.00191999 14.3942 0 15.789V18.9465C0 19.2268 0.104639 19.4937 0.292799 19.6914C0.479998 19.8892 0.735356 19.9996 1.00032 19.9996H7.78748C7.73852 19.7922 7.71356 19.581 7.71356 19.3708V10.5254L7.7126 10.5264Z" fill="currentColor"/>
</svg>
