<svg viewBox="0 0 20 20" fill="none" xmlns="http://www.w3.org/2000/svg">
<path d="M2.22222 0C1.63285 0 1.06762 0.234126 0.650874 0.650874C0.234126 1.06762 0 1.63285 0 2.22222V4.44444C0 5.03381 0.234126 5.59905 0.650874 6.01579C1.06762 6.43254 1.63285 6.66667 2.22222 6.66667H6.66667C7.25604 6.66667 7.82127 6.43254 8.23802 6.01579C8.65476 5.59905 8.88889 5.03381 8.88889 4.44444V2.22222C8.88889 1.63285 8.65476 1.06762 8.23802 0.650874C7.82127 0.234126 7.25604 0 6.66667 0H2.22222ZM17.7778 20C18.3671 20 18.9324 19.7659 19.3491 19.3491C19.7659 18.9324 20 18.3671 20 17.7778V15.5556C20 14.9662 19.7659 14.401 19.3491 13.9842C18.9324 13.5675 18.3671 13.3333 17.7778 13.3333H13.3333C12.744 13.3333 12.1787 13.5675 11.762 13.9842C11.3452 14.401 11.1111 14.9662 11.1111 15.5556V17.7778C11.1111 18.3671 11.3452 18.9324 11.762 19.3491C12.1787 19.7659 12.744 20 13.3333 20H17.7778ZM2.22222 8.88889C1.63285 8.88889 1.06762 9.12302 0.650874 9.53976C0.234126 9.95651 0 10.5217 0 11.1111V17.7778C0 18.3671 0.234126 18.9324 0.650874 19.3491C1.06762 19.7659 1.63285 20 2.22222 20H6.66667C7.25604 20 7.82127 19.7659 8.23802 19.3491C8.65476 18.9324 8.88889 18.3671 8.88889 17.7778V11.1111C8.88889 10.5217 8.65476 9.95651 8.23802 9.53976C7.82127 9.12302 7.25604 8.88889 6.66667 8.88889H2.22222ZM17.7778 11.1111C18.3671 11.1111 18.9324 10.877 19.3491 10.4602C19.7659 10.0435 20 9.47826 20 8.88889V2.22222C20 1.63285 19.7659 1.06762 19.3491 0.650874C18.9324 0.234126 18.3671 0 17.7778 0H13.3333C12.744 0 12.1787 0.234126 11.762 0.650874C11.3452 1.06762 11.1111 1.63285 11.1111 2.22222V8.88889C11.1111 9.47826 11.3452 10.0435 11.762 10.4602C12.1787 10.877 12.744 11.1111 13.3333 11.1111H17.7778Z" fill="currentColor"/>
</svg>
