<svg  viewBox="0 0 20 21" fill="currentColor" xmlns="http://www.w3.org/2000/svg">
<path d="M20 4.5C20 3.96957 19.7893 3.46086 19.4142 3.08579C19.0391 2.71071 18.5304 2.5 18 2.5H16V1.5C16 1.23478 15.8946 0.98043 15.7071 0.792893C15.5196 0.605357 15.2652 0.5 15 0.5C14.7348 0.5 14.4804 0.605357 14.2929 0.792893C14.1054 0.98043 14 1.23478 14 1.5V2.5H11V1.5C11 1.23478 10.8946 0.98043 10.7071 0.792893C10.5196 0.605357 10.2652 0.5 10 0.5C9.73478 0.5 9.48043 0.605357 9.29289 0.792893C9.10536 0.98043 9 1.23478 9 1.5V2.5H6V1.5C6 1.23478 5.89464 0.98043 5.70711 0.792893C5.51957 0.605357 5.26522 0.5 5 0.5C4.73478 0.5 4.48043 0.605357 4.29289 0.792893C4.10536 0.98043 4 1.23478 4 1.5V2.5H2C1.46957 2.5 0.960859 2.71071 0.585786 3.08579C0.210714 3.46086 0 3.96957 0 4.5V6.5H20V4.5Z" fill="currentColor"/>
<path d="M0 18.5C0 19.0304 0.210714 19.5391 0.585786 19.9142C0.960859 20.2893 1.46957 20.5 2 20.5H18C18.5304 20.5 19.0391 20.2893 19.4142 19.9142C19.7893 19.5391 20 19.0304 20 18.5V8.5H0V18.5ZM5 10.5H15C15.2652 10.5 15.5196 10.6054 15.7071 10.7929C15.8946 10.9804 16 11.2348 16 11.5C16 11.7652 15.8946 12.0196 15.7071 12.2071C15.5196 12.3946 15.2652 12.5 15 12.5H5C4.73478 12.5 4.48043 12.3946 4.29289 12.2071C4.10536 12.0196 4 11.7652 4 11.5C4 11.2348 4.10536 10.9804 4.29289 10.7929C4.48043 10.6054 4.73478 10.5 5 10.5Z" fill="currentColor"/>
</svg>
