<svg viewBox="0 0 20 21" fill="currentColor" xmlns="http://www.w3.org/2000/svg">
    <path
        d="M18.1482 4.71053H14.0741V2.60526C14.0741 2.04691 13.8595 1.51143 13.4774 1.11662C13.0954 0.721804 12.5773 0.5 12.037 0.5H7.96297C7.42271 0.5 6.90458 0.721804 6.52256 1.11662C6.14054 1.51143 5.92593 2.04691 5.92593 2.60526V4.71053H1.85185C1.58173 4.71053 1.32266 4.82143 1.13165 5.01884C0.940644 5.21624 0.833336 5.48398 0.833336 5.76316C0.833336 6.04233 0.940644 6.31007 1.13165 6.50748C1.32266 6.70489 1.58173 6.81579 1.85185 6.81579H2.87037V18.3947C2.87037 18.9531 3.08499 19.4886 3.46701 19.8834C3.84903 20.2782 4.36715 20.5 4.90741 20.5H15.0926C15.6329 20.5 16.151 20.2782 16.533 19.8834C16.915 19.4886 17.1296 18.9531 17.1296 18.3947V6.81579H18.1482C18.4183 6.81579 18.6773 6.70489 18.8684 6.50748C19.0594 6.31007 19.1667 6.04233 19.1667 5.76316C19.1667 5.48398 19.0594 5.21624 18.8684 5.01884C18.6773 4.82143 18.4183 4.71053 18.1482 4.71053ZM7.96297 2.60526H12.037V4.71053H7.96297V2.60526ZM8.98148 16.2895C8.98148 16.5686 8.87418 16.8364 8.68317 17.0338C8.49216 17.2312 8.23309 17.3421 7.96297 17.3421C7.69284 17.3421 7.43377 17.2312 7.24276 17.0338C7.05176 16.8364 6.94445 16.5686 6.94445 16.2895V8.92105C6.94445 8.64188 7.05176 8.37414 7.24276 8.17673C7.43377 7.97932 7.69284 7.86842 7.96297 7.86842C8.23309 7.86842 8.49216 7.97932 8.68317 8.17673C8.87418 8.37414 8.98148 8.64188 8.98148 8.92105V16.2895ZM13.0556 16.2895C13.0556 16.5686 12.9483 16.8364 12.7572 17.0338C12.5662 17.2312 12.3072 17.3421 12.037 17.3421C11.7669 17.3421 11.5078 17.2312 11.3168 17.0338C11.1258 16.8364 11.0185 16.5686 11.0185 16.2895V8.92105C11.0185 8.64188 11.1258 8.37414 11.3168 8.17673C11.5078 7.97932 11.7669 7.86842 12.037 7.86842C12.3072 7.86842 12.5662 7.97932 12.7572 8.17673C12.9483 8.37414 13.0556 8.64188 13.0556 8.92105V16.2895Z"
        fill="currentColor" />
</svg>
    