<svg viewBox="0 0 20 21" fill="currentColor" xmlns="http://www.w3.org/2000/svg">
<path fill-rule="evenodd" clip-rule="evenodd" d="M0 10.5C0 4.977 4.477 0.5 10 0.5C15.523 0.5 20 4.977 20 10.5C20 16.023 15.523 20.5 10 20.5C4.477 20.5 0 16.023 0 10.5ZM5.757 9.5C5.49178 9.5 5.23743 9.60536 5.04989 9.79289C4.86236 9.98043 4.757 10.2348 4.757 10.5C4.757 10.7652 4.86236 11.0196 5.04989 11.2071C5.23743 11.3946 5.49178 11.5 5.757 11.5H14.243C14.5082 11.5 14.7626 11.3946 14.9501 11.2071C15.1376 11.0196 15.243 10.7652 15.243 10.5C15.243 10.2348 15.1376 9.98043 14.9501 9.79289C14.7626 9.60536 14.5082 9.5 14.243 9.5H5.757Z" fill="currentColor"/>
</svg>
