<svg   viewBox="0 0 48 49" fill="currentColor" xmlns="http://www.w3.org/2000/svg">
<path d="M0 8.5C0 4.08172 3.58172 0.5 8 0.5H40C44.4183 0.5 48 4.08172 48 8.5V40.5C48 44.9183 44.4183 48.5 40 48.5H8C3.58172 48.5 0 44.9183 0 40.5V8.5Z" fill="currentColor"/>
<g clip-path="url(#clip0_8270_5349)">
<mask id="mask0_8270_5349" style="mask-type:alpha" maskUnits="userSpaceOnUse" x="12" y="12"  >
<rect x="12" y="12.5"   fill="currentColor"/>
</mask>
<g mask="url(#mask0_8270_5349)">
<path d="M33.7778 17.5526H28.8889V15.0263C28.8889 14.3563 28.6313 13.7137 28.1729 13.2399C27.7145 12.7662 27.0928 12.5 26.4444 12.5H21.5556C20.9072 12.5 20.2855 12.7662 19.8271 13.2399C19.3687 13.7137 19.1111 14.3563 19.1111 15.0263V17.5526H14.2222C13.8981 17.5526 13.5872 17.6857 13.358 17.9226C13.1288 18.1595 13 18.4808 13 18.8158C13 19.1508 13.1288 19.4721 13.358 19.709C13.5872 19.9459 13.8981 20.0789 14.2222 20.0789H15.4444V33.9737C15.4444 34.6437 15.702 35.2863 16.1604 35.7601C16.6188 36.2338 17.2406 36.5 17.8889 36.5H30.1111C30.7594 36.5 31.3812 36.2338 31.8396 35.7601C32.298 35.2863 32.5556 34.6437 32.5556 33.9737V20.0789H33.7778C34.1019 20.0789 34.4128 19.9459 34.642 19.709C34.8712 19.4721 35 19.1508 35 18.8158C35 18.4808 34.8712 18.1595 34.642 17.9226C34.4128 17.6857 34.1019 17.5526 33.7778 17.5526ZM21.5556 15.0263H26.4444V17.5526H21.5556V15.0263ZM22.7778 31.4474C22.7778 31.7824 22.649 32.1037 22.4198 32.3406C22.1906 32.5774 21.8797 32.7105 21.5556 32.7105C21.2314 32.7105 20.9205 32.5774 20.6913 32.3406C20.4621 32.1037 20.3333 31.7824 20.3333 31.4474V22.6053C20.3333 22.2703 20.4621 21.949 20.6913 21.7121C20.9205 21.4752 21.2314 21.3421 21.5556 21.3421C21.8797 21.3421 22.1906 21.4752 22.4198 21.7121C22.649 21.949 22.7778 22.2703 22.7778 22.6053V31.4474ZM27.6667 31.4474C27.6667 31.7824 27.5379 32.1037 27.3087 32.3406C27.0795 32.5774 26.7686 32.7105 26.4444 32.7105C26.1203 32.7105 25.8094 32.5774 25.5802 32.3406C25.351 32.1037 25.2222 31.7824 25.2222 31.4474V22.6053C25.2222 22.2703 25.351 21.949 25.5802 21.7121C25.8094 21.4752 26.1203 21.3421 26.4444 21.3421C26.7686 21.3421 27.0795 21.4752 27.3087 21.7121C27.5379 21.949 27.6667 22.2703 27.6667 22.6053V31.4474Z" fill="currentColor"/>
</g>
</g>
<defs>
<clipPath id="clip0_8270_5349">
<rect   fill="currentColor" transform="translate(12 12.5)"/>
</clipPath>
</defs>
</svg>
