<svg viewBox="0 0 20 20" fill="none" xmlns="http://www.w3.org/2000/svg">
<path d="M6.50019 9.47333C7.07715 9.47333 7.62916 9.35909 8.13604 9.1498L8.185 9.05956C8.50948 8.46724 8.91172 7.92676 9.37636 7.45348C9.78053 7.04163 10.2336 6.67683 10.7261 6.36675C10.9028 5.85795 10.9997 5.30979 10.9997 4.73666C10.9997 2.12065 8.98468 0 6.50019 0C4.01474 0 2.00065 2.12065 2.00065 4.73666C2.00065 7.35268 4.0157 9.47333 6.50019 9.47333ZM14.7773 7.44292C13.8241 7.44196 12.8871 7.69156 12.0711 8.16484C11.2551 8.63812 10.5889 9.31684 10.1453 10.1271C9.70181 10.9383 9.49829 11.8493 9.55589 12.7633C9.61349 13.6772 9.93125 14.5585 10.4727 15.3121C10.4948 15.3534 10.5207 15.3918 10.5514 15.4273L10.6301 15.5194C10.7031 15.6097 10.7789 15.698 10.8433 15.77L14.2743 19.7723C14.3357 19.8433 14.4125 19.9009 14.4999 19.9403C14.5873 19.9796 14.6823 19.9998 14.7783 19.9998C14.8753 19.9998 14.9703 19.9796 15.0577 19.9403C15.145 19.9009 15.2218 19.8423 15.2833 19.7713L18.6135 15.8756C18.7479 15.7364 18.8746 15.5895 18.9918 15.4359L19.0753 15.338C19.107 15.3015 19.1339 15.2612 19.155 15.218C19.6715 14.4606 19.9652 13.5821 20.0055 12.6778C20.0449 11.7725 19.8289 10.8749 19.3806 10.0781C18.9323 9.28132 18.2679 8.61604 17.4577 8.1514C16.6474 7.68772 15.722 7.44292 14.7783 7.44292H14.7773ZM14.7773 10.5821C15.1652 10.5821 15.5454 10.6925 15.8679 10.8999C16.1905 11.1073 16.442 11.401 16.5898 11.7457C16.7386 12.0893 16.778 12.4685 16.7022 12.8333C16.6263 13.1981 16.4401 13.5341 16.1655 13.7981C15.891 14.0612 15.5415 14.2407 15.1614 14.3137C14.7802 14.3866 14.3857 14.3492 14.0276 14.2061C13.6685 14.0641 13.3623 13.8221 13.1473 13.513C12.9313 13.2039 12.8161 12.8391 12.8161 12.4666C12.8161 11.9674 13.0225 11.4884 13.3901 11.1351C13.7578 10.7818 14.257 10.5831 14.7773 10.5831V10.5821ZM7.58404 10.5265H4.9997C3.67394 10.5284 2.40385 11.0833 1.46593 12.0701C0.528963 13.0561 0.00192001 14.3943 0 15.7892V18.9467C0 19.227 0.10464 19.4939 0.292801 19.6916C0.480002 19.8894 0.735363 19.9998 1.00032 19.9998H11.4836C10.6657 19.0062 9.86789 17.9233 9.01156 17.0746L8.85316 16.8798V16.8711C8.77828 16.7838 8.7226 16.7108 8.6794 16.6494L8.66116 16.6321L8.56132 16.4756C8.21572 15.9697 7.93732 15.4234 7.73092 14.8503C7.5034 14.2157 7.36419 13.5601 7.32291 12.9034C7.28163 12.242 7.33539 11.5729 7.48228 10.9172C7.51204 10.7857 7.54564 10.6551 7.58308 10.5255L7.58404 10.5265Z" fill="currentColor"/>
</svg>
