<svg viewBox="0 0 12 15" fill="currentColor" xmlns="http://www.w3.org/2000/svg">
<path d="M3.81264 4V0.591C3.45685 0.685485 3.13224 0.866004 2.86986 1.1153L0.807837 3.0949C0.548679 3.34718 0.360727 3.65867 0.261707 4H3.81264Z" fill="currentColor"/>
<path d="M10.4231 0.5H5.27094V4C5.27094 4.3713 5.11729 4.7274 4.84381 4.98995C4.57033 5.2525 4.19941 5.4 3.81264 5.4H0.166918V13.1C0.161065 13.465 0.306224 13.8174 0.57057 14.0798C0.834916 14.3423 1.19687 14.4934 1.57709 14.5H10.4231C10.8033 14.4934 11.1652 14.3423 11.4296 14.0798C11.6939 13.8174 11.8391 13.465 11.8332 13.1V1.9C11.8391 1.53497 11.6939 1.18261 11.4296 0.920166C11.1652 0.657727 10.8033 0.506628 10.4231 0.5ZM8.23564 11H3.68723C3.49385 11 3.30839 10.9263 3.17165 10.795C3.03491 10.6637 2.95809 10.4857 2.95809 10.3C2.95809 10.1143 3.03491 9.9363 3.17165 9.80503C3.30839 9.67375 3.49385 9.6 3.68723 9.6H8.23564C8.42902 9.6 8.61448 9.67375 8.75122 9.80503C8.88796 9.9363 8.96478 10.1143 8.96478 10.3C8.96478 10.4857 8.88796 10.6637 8.75122 10.795C8.61448 10.9263 8.42902 11 8.23564 11ZM8.23564 8.2H3.68723C3.49385 8.2 3.30839 8.12625 3.17165 7.99497C3.03491 7.8637 2.95809 7.68565 2.95809 7.5C2.95809 7.31435 3.03491 7.1363 3.17165 7.00503C3.30839 6.87375 3.49385 6.8 3.68723 6.8H8.23564C8.42902 6.8 8.61448 6.87375 8.75122 7.00503C8.88796 7.1363 8.96478 7.31435 8.96478 7.5C8.96478 7.68565 8.88796 7.8637 8.75122 7.99497C8.61448 8.12625 8.42902 8.2 8.23564 8.2Z" fill="currentColor"/>
</svg>
