<svg viewBox="0 0 20 20" fill="none" xmlns="http://www.w3.org/2000/svg">
<path d="M6.87505 5V0.13C6.36677 0.264979 5.90305 0.522863 5.52821 0.879L2.58247 3.707C2.21224 4.06739 1.94374 4.51238 1.80228 5H6.87505Z" fill="currentColor"/>
<path d="M16.3185 0H8.95832V5C8.95832 5.53043 8.73883 6.03914 8.34815 6.41421C7.95746 6.78929 7.42757 7 6.87505 7H1.66687V18C1.65851 18.5215 1.86588 19.0248 2.24351 19.3998C2.62115 19.7747 3.13824 19.9905 3.68139 20H16.3185C16.8617 19.9905 17.3788 19.7747 17.7564 19.3998C18.134 19.0248 18.3414 18.5215 18.333 18V2C18.3414 1.47853 18.134 0.975152 17.7564 0.600238C17.3788 0.225324 16.8617 0.00946877 16.3185 0ZM13.1936 15H6.69589C6.41963 15 6.15469 14.8946 5.95934 14.7071C5.764 14.5196 5.65425 14.2652 5.65425 14C5.65425 13.7348 5.764 13.4804 5.95934 13.2929C6.15469 13.1054 6.41963 13 6.69589 13H13.1936C13.4699 13 13.7348 13.1054 13.9302 13.2929C14.1255 13.4804 14.2353 13.7348 14.2353 14C14.2353 14.2652 14.1255 14.5196 13.9302 14.7071C13.7348 14.8946 13.4699 15 13.1936 15ZM13.1936 11H6.69589C6.41963 11 6.15469 10.8946 5.95934 10.7071C5.764 10.5196 5.65425 10.2652 5.65425 10C5.65425 9.73478 5.764 9.48043 5.95934 9.29289C6.15469 9.10536 6.41963 9 6.69589 9H13.1936C13.4699 9 13.7348 9.10536 13.9302 9.29289C14.1255 9.48043 14.2353 9.73478 14.2353 10C14.2353 10.2652 14.1255 10.5196 13.9302 10.7071C13.7348 10.8946 13.4699 11 13.1936 11Z" fill="currentColor"/>
</svg>
