<svg viewBox="0 0 17 17" fill="currentColor" xmlns="http://www.w3.org/2000/svg">
<path d="M6.13663 5.38293L6.13141 5.40018L6.12744 5.41777C6.08391 5.61062 6.08369 5.81 6.12682 6.00295L6.61478 5.89388L6.12682 6.00295C6.1698 6.19522 6.25437 6.3748 6.37292 6.53135C6.92968 7.27415 7.76622 7.78572 8.70579 7.97547C10.09 8.26294 11.2815 9.03689 12.0291 10.1137C12.2398 10.4263 12.3779 10.772 12.4374 11.1299C12.4964 11.4845 12.4773 11.8463 12.3811 12.1948C12.1991 12.7266 11.868 13.2118 11.4146 13.6005C10.9575 13.9925 10.3927 14.272 9.77437 14.4074L9.38133 14.4935V14.8959V15.3291C9.38133 15.4919 9.31102 15.6581 9.16891 15.7881C9.02532 15.9194 8.82175 16 8.60115 16C8.38055 16 8.17698 15.9194 8.03338 15.7881L7.77463 16.071L8.03338 15.7881C7.89128 15.6581 7.82097 15.4919 7.82097 15.3291V14.9872V14.5626L7.40197 14.4938C7.3405 14.4837 7.28985 14.4763 7.24462 14.4697C7.16658 14.4583 7.10467 14.4492 7.03114 14.4328L7.03115 14.4328L7.02589 14.4317C5.98363 14.2112 5.05139 13.696 4.35936 12.9677C4.23749 12.8303 4.18598 12.664 4.20212 12.5042C4.21848 12.3421 4.30532 12.1806 4.46153 12.0609C4.61906 11.9403 4.83027 11.8765 5.04879 11.8935C5.2672 11.9104 5.45967 12.0051 5.58843 12.1436L5.58834 12.1437L5.5962 12.1518C6.08272 12.6519 6.7237 12.993 7.42448 13.1339C8.14984 13.2936 8.8949 13.2547 9.50767 13.056C10.1013 12.8636 10.6809 12.4794 10.8691 11.8624L10.8746 11.8443L10.8787 11.8259C10.922 11.633 10.9219 11.4336 10.8786 11.2407C10.8354 11.0487 10.7508 10.8694 10.6323 10.7131C10.076 9.96951 9.23927 9.45727 8.29927 9.26728C6.9159 8.98086 5.72474 8.20829 4.97685 7.13281C4.76617 6.82032 4.62817 6.47471 4.56883 6.11687C4.51008 5.76268 4.52917 5.40137 4.62531 5.05332C4.81931 4.49709 5.17501 3.99279 5.66131 3.59617C6.15179 3.19615 6.7557 2.92176 7.41021 2.80655L7.82353 2.73379V2.31412V1.6709C7.82353 1.50809 7.89384 1.34187 8.03594 1.2119C8.17954 1.08056 8.38311 1 8.60371 1C8.82431 1 9.02788 1.08056 9.17147 1.2119C9.31357 1.34187 9.38389 1.50809 9.38389 1.6709V2.29538V2.71222L9.79391 2.78722C9.84185 2.79599 9.8896 2.80139 9.91763 2.80455C9.92145 2.80499 9.9249 2.80538 9.92794 2.80573C9.96021 2.80946 9.97031 2.81127 9.97555 2.81247L9.97554 2.81253L9.98312 2.81414C11.0135 3.033 11.9366 3.53962 12.6264 4.2558C12.6901 4.32384 12.7363 4.40013 12.7648 4.47939C12.7934 4.55914 12.8041 4.64196 12.7972 4.72373C12.7903 4.80553 12.7657 4.88711 12.7229 4.9639C12.68 5.04085 12.6193 5.11234 12.5418 5.17267C12.4643 5.23307 12.3721 5.2806 12.2699 5.31066C12.1678 5.34072 12.0592 5.35223 11.9509 5.34399C11.8426 5.33575 11.7385 5.30808 11.6449 5.26378C11.5512 5.2195 11.471 5.1601 11.4074 5.091L11.4013 5.08434L11.395 5.07792C10.9093 4.58686 10.2746 4.25134 9.58139 4.11058C8.85491 3.94987 8.10928 3.98877 7.49641 4.18778C6.90274 4.38056 6.32364 4.76545 6.13663 5.38293Z" fill="currentColor" stroke="currentColor"/>
</svg>
