<svg viewBox="0 0 20 20" fill="none" xmlns="http://www.w3.org/2000/svg">
<path d="M16.3725 2H13.4313C13.4313 1.46957 13.2247 0.960859 12.857 0.585786C12.4893 0.210714 11.9906 0 11.4705 0H8.52937C8.00934 0 7.51061 0.210714 7.14289 0.585786C6.77517 0.960859 6.56859 1.46957 6.56859 2H3.62741C3.10738 2 2.60864 2.21071 2.24093 2.58579C1.87321 2.96086 1.66663 3.46957 1.66663 4V18C1.66663 18.5304 1.87321 19.0391 2.24093 19.4142C2.60864 19.7893 3.10738 20 3.62741 20H16.3725C16.8925 20 17.3913 19.7893 17.759 19.4142C18.1267 19.0391 18.3333 18.5304 18.3333 18V4C18.3333 3.46957 18.1267 2.96086 17.759 2.58579C17.3913 2.21071 16.8925 2 16.3725 2ZM11.4705 2V5H8.52937V2H11.4705ZM13.4313 15H6.56859C6.30857 15 6.0592 14.8946 5.87534 14.7071C5.69149 14.5196 5.58819 14.2652 5.58819 14C5.58819 13.7348 5.69149 13.4804 5.87534 13.2929C6.0592 13.1054 6.30857 13 6.56859 13H13.4313C13.6913 13 13.9407 13.1054 14.1246 13.2929C14.3084 13.4804 14.4117 13.7348 14.4117 14C14.4117 14.2652 14.3084 14.5196 14.1246 14.7071C13.9407 14.8946 13.6913 15 13.4313 15ZM13.4313 11H6.56859C6.30857 11 6.0592 10.8946 5.87534 10.7071C5.69149 10.5196 5.58819 10.2652 5.58819 10C5.58819 9.73478 5.69149 9.48043 5.87534 9.29289C6.0592 9.10536 6.30857 9 6.56859 9H13.4313C13.6913 9 13.9407 9.10536 14.1246 9.29289C14.3084 9.48043 14.4117 9.73478 14.4117 10C14.4117 10.2652 14.3084 10.5196 14.1246 10.7071C13.9407 10.8946 13.6913 11 13.4313 11Z" fill="currentColor"/>
</svg>
