<svg viewBox="0 0 20 21" fill="currentColor" xmlns="http://www.w3.org/2000/svg">
<g clip-path="url(#clip0_2708_44243)">
<mask id="mask0_2708_44243" style="mask-type:alpha" maskUnits="userSpaceOnUse" x="0" y="0">
<rect y="0.5" fill="currentColor"/>
</mask>
<g mask="url(#mask0_2708_44243)">
<path d="M10 4.5C11.1046 4.5 12 3.60457 12 2.5C12 1.39543 11.1046 0.5 10 0.5C8.89543 0.5 8 1.39543 8 2.5C8 3.60457 8.89543 4.5 10 4.5Z" fill="currentColor"/>
<path d="M10 12.5C11.1046 12.5 12 11.6046 12 10.5C12 9.39543 11.1046 8.5 10 8.5C8.89543 8.5 8 9.39543 8 10.5C8 11.6046 8.89543 12.5 10 12.5Z" fill="currentColor"/>
<path d="M10 20.5C11.1046 20.5 12 19.6046 12 18.5C12 17.3954 11.1046 16.5 10 16.5C8.89543 16.5 8 17.3954 8 18.5C8 19.6046 8.89543 20.5 10 20.5Z" fill="currentColor"/>
</g>
</g>
<defs>
<clipPath id="clip0_2708_44243">
<rect fill="currentColor" transform="translate(0 0.5)"/>
</clipPath>
</defs>
</svg>
