<svg   viewBox="0 0 8 12" fill="currentColor" xmlns="http://www.w3.org/2000/svg">
<path d="M7.20114 4.4999C6.98924 4.49986 6.78603 4.42081 6.63622 4.28015L4.00499 1.81036L1.37377 4.28015C1.30006 4.35178 1.21189 4.40892 1.11441 4.44823C1.01692 4.48753 0.912074 4.50822 0.805978 4.50909C0.699883 4.50995 0.594666 4.49098 0.496468 4.45327C0.398269 4.41555 0.309055 4.35986 0.234032 4.28944C0.159008 4.21902 0.0996774 4.13528 0.0595012 4.04311C0.019325 3.95094 -0.000891771 3.85217 3.01692e-05 3.75259C0.000952109 3.653 0.0229945 3.55459 0.0648712 3.46308C0.106748 3.37158 0.16762 3.28882 0.243936 3.21963L3.44008 0.219593C3.58992 0.0789877 3.79312 0 4.00499 0C4.21687 0 4.42007 0.0789877 4.56991 0.219593L7.76605 3.21963C7.87777 3.32452 7.95384 3.45815 7.98466 3.60361C8.01547 3.74908 7.99965 3.89986 7.93919 4.03688C7.87872 4.17391 7.77633 4.29104 7.64497 4.37345C7.5136 4.45586 7.35914 4.49987 7.20114 4.4999Z" fill="currentColor"/>
<path d="M4.00499 12C3.79309 12 3.58989 11.9209 3.44008 11.7802L0.243936 8.78021C0.16762 8.71102 0.106748 8.62826 0.0648712 8.53676C0.0229945 8.44525 0.000952109 8.34684 3.01692e-05 8.24725C-0.000891771 8.14767 0.019325 8.0489 0.0595012 7.95673C0.0996774 7.86456 0.159008 7.78082 0.234032 7.7104C0.309055 7.63998 0.398269 7.58429 0.496468 7.54657C0.594666 7.50886 0.699883 7.48989 0.805978 7.49075C0.912074 7.49162 1.01692 7.51231 1.11441 7.55161C1.21189 7.59092 1.30006 7.64806 1.37377 7.71969L4.00499 10.1895L6.63622 7.71969C6.78692 7.58307 6.98876 7.50748 7.19826 7.50918C7.40776 7.51089 7.60817 7.58977 7.75632 7.72883C7.90447 7.86789 7.9885 8.056 7.99032 8.25265C7.99214 8.4493 7.9116 8.63875 7.76605 8.78021L4.56991 11.7802C4.4201 11.9209 4.21689 12 4.00499 12Z" fill="currentColor"/>
</svg>
