<svg  viewBox="0 0 20 21" fill="currentColor" xmlns="http://www.w3.org/2000/svg">
<path d="M14.707 7.98C14.5195 7.78772 14.2652 7.67971 14 7.67971C13.7348 7.67971 13.4805 7.78772 13.293 7.98L11 10.3318V1.52564C11 1.25362 10.8946 0.992748 10.7071 0.800403C10.5196 0.608058 10.2652 0.5 10 0.5C9.73478 0.5 9.48043 0.608058 9.29289 0.800403C9.10536 0.992748 9 1.25362 9 1.52564V10.3318L6.707 7.98C6.61475 7.88204 6.50441 7.80391 6.3824 7.75015C6.2604 7.6964 6.12918 7.66811 5.9964 7.66692C5.86362 7.66574 5.73194 7.69169 5.60905 7.74326C5.48615 7.79483 5.3745 7.87099 5.2806 7.96729C5.18671 8.06359 5.11246 8.1781 5.06218 8.30415C5.0119 8.4302 4.9866 8.56525 4.98775 8.70144C4.9889 8.83762 5.01649 8.97221 5.0689 9.09734C5.12131 9.22247 5.19749 9.33564 5.293 9.43026L9.293 13.5328C9.38589 13.6283 9.49624 13.7041 9.61773 13.7558C9.73922 13.8075 9.86947 13.8341 10.001 13.8341C10.1325 13.8341 10.2628 13.8075 10.3843 13.7558C10.5058 13.7041 10.6161 13.6283 10.709 13.5328L14.709 9.43026C14.8962 9.23765 15.0012 8.97667 15.0008 8.7047C15.0004 8.43274 14.8947 8.17206 14.707 7.98Z" fill="currentColor"/>
<path d="M18 12.2949H15.45L12.475 15.3462C12.15 15.6795 11.7641 15.944 11.3395 16.1244C10.9148 16.3048 10.4597 16.3977 10 16.3977C9.54034 16.3977 9.08519 16.3048 8.66053 16.1244C8.23586 15.944 7.85001 15.6795 7.525 15.3462L4.55 12.2949H2C1.46957 12.2949 0.960859 12.511 0.585786 12.8957C0.210714 13.2804 0 13.8021 0 14.3462V18.4487C0 18.9928 0.210714 19.5145 0.585786 19.8992C0.960859 20.2839 1.46957 20.5 2 20.5H18C18.5304 20.5 19.0391 20.2839 19.4142 19.8992C19.7893 19.5145 20 18.9928 20 18.4487V14.3462C20 13.8021 19.7893 13.2804 19.4142 12.8957C19.0391 12.511 18.5304 12.2949 18 12.2949ZM15.5 18.4487C15.2033 18.4487 14.9133 18.3585 14.6666 18.1894C14.42 18.0204 14.2277 17.7801 14.1142 17.499C14.0007 17.2179 13.9709 16.9086 14.0288 16.6101C14.0867 16.3117 14.2296 16.0376 14.4393 15.8224C14.6491 15.6072 14.9164 15.4607 15.2074 15.4014C15.4983 15.342 15.7999 15.3725 16.074 15.4889C16.3481 15.6053 16.5824 15.8025 16.7472 16.0555C16.912 16.3085 17 16.606 17 16.9103C17 17.3183 16.842 17.7096 16.5607 17.9981C16.2794 18.2866 15.8978 18.4487 15.5 18.4487Z" fill="currentColor"/>
</svg>
