<svg viewBox="0 0 20 20" fill="none" xmlns="http://www.w3.org/2000/svg">
<path fill-rule="evenodd" clip-rule="evenodd" d="M6.50013 9.47323C7.05117 9.47323 7.5782 9.3686 8.06588 9.17852C8.24348 8.95676 8.4326 8.74556 8.63228 8.54684C8.687 8.49212 8.7446 8.44028 8.80316 8.39228C9.25628 7.96412 9.75835 7.58876 10.2998 7.2758C10.7433 6.54237 11.0006 5.67069 11.0006 4.73662C11.0006 2.12063 8.98556 0 6.50109 0C4.01566 0 2.00159 2.12063 2.00159 4.73662C2.00159 7.3526 4.01662 9.47323 6.50109 9.47323H6.50013ZM13.3084 16.0358V18.0326C12.599 17.8569 11.9644 17.4882 11.4633 16.9881C10.9622 16.4879 10.5945 15.8534 10.4179 15.143H12.4732C12.6585 15.5212 12.9513 15.8332 13.3075 16.0358H13.3084ZM15.2294 18.0326V16.0348C15.5855 15.8322 15.8774 15.5212 16.0626 15.143H18.118C17.9414 15.8524 17.5737 16.487 17.0735 16.9881C16.5734 17.4882 15.9388 17.8559 15.2294 18.0326ZM18.118 13.222H16.0626C15.7286 12.5414 15.0498 12.0758 14.2684 12.0758C13.486 12.0758 12.8083 12.5414 12.4742 13.222H10.4188C10.5955 12.5126 10.9631 11.878 11.4633 11.3779L11.5036 11.3347C12.2159 10.6425 13.1913 10.2163 14.2684 10.2163C15.3638 10.2163 16.3564 10.6607 17.0735 11.3788C17.5737 11.879 17.9414 12.5135 18.118 13.223V13.222ZM14.2684 8.45084C15.8514 8.45084 17.2847 9.09308 18.3215 10.1299C19.3583 11.1667 19.9996 12.5999 19.9996 14.183C19.9996 15.766 19.3583 17.1993 18.3215 18.2361C17.2847 19.2729 15.8514 19.9141 14.2684 19.9141C12.6863 19.9141 11.2531 19.2729 10.2153 18.2361C9.17852 17.1993 8.53628 15.766 8.53628 14.183C8.53628 12.6009 9.17852 11.1676 10.2153 10.1299L10.2681 10.0819C11.303 9.07292 12.7151 8.4518 14.2684 8.4518V8.45084ZM7.19133 10.5254H4.99966C3.6739 10.5273 2.40383 11.0822 1.46591 12.0691C0.528957 13.055 0.00191999 14.3932 0 15.7881V18.9455C0 19.2258 0.104639 19.4927 0.292799 19.6905C0.479998 19.8882 0.735356 19.9986 1.00032 19.9986H8.81756C8.7542 19.9401 8.69276 19.8796 8.63228 19.8191C7.19037 18.3772 6.29661 16.3833 6.29661 14.182C6.29661 13.1174 6.51357 12.0892 6.90621 11.1417C6.99357 10.9315 7.08861 10.726 7.19133 10.5254Z" fill="currentColor"/>
</svg>
