<svg viewBox="0 0 20 21" fill="none" xmlns="http://www.w3.org/2000/svg">

<path d="M15.5645 1.27651L13.9681 2.96272L17.6433 6.84452L19.2387 5.15831C19.4801 4.90345 19.6715 4.60087 19.8021 4.26785C19.9328 3.93482 20 3.57788 20 3.21741C20 2.85694 19.9328 2.5 19.8021 2.16697C19.6715 1.83395 19.4801 1.53137 19.2387 1.27651C18.7435 0.778052 18.0857 0.5 17.4016 0.5C16.7176 0.5 16.0597 0.778052 15.5645 1.27651Z" fill="currentColor"/>
<path d="M16.1736 8.39681L12.4984 4.515L7.58739 9.69769C7.44209 9.85087 7.34299 10.0461 7.3026 10.2587L6.75589 13.17C6.72226 13.3473 6.7306 13.5306 6.78017 13.7037C6.82974 13.8767 6.91901 14.0341 7.04005 14.162C7.16109 14.2898 7.31016 14.3841 7.474 14.4365C7.63784 14.4888 7.81139 14.4976 7.97923 14.4621L10.7356 13.8803C10.9365 13.8374 11.121 13.7328 11.2657 13.5795L16.1736 8.39681Z" fill="currentColor"/>
<path d="M7.58739 9.69769C7.44209 9.85087 7.34299 10.0461 7.3026 10.2587L6.75589 13.17C6.72226 13.3473 6.7306 13.5306 6.78017 13.7037C6.82974 13.8767 6.91901 14.0341 7.04005 14.162C7.16109 14.2898 7.31016 14.3841 7.474 14.4365C7.63784 14.4888 7.81139 14.4976 7.97923 14.4621L10.7356 13.8803C10.9365 13.8374 11.121 13.7328 11.2657 13.5795L16.1736 8.39681L12.4984 4.515L7.58739 9.69769Z" fill="currentColor"/>
<path d="M12.2573 14.8617C11.9668 15.1679 11.5973 15.3768 11.195 15.4622L7.51982 16.2384C7.18432 16.3091 6.83747 16.2914 6.51003 16.1866C6.18259 16.0818 5.8847 15.8933 5.64278 15.6378C5.40085 15.3823 5.22238 15.0677 5.1232 14.7218C5.02401 14.376 5.00718 14.0096 5.07419 13.6552L5.80903 9.77345C5.88988 9.34852 6.08765 8.95824 6.37756 8.6515L11.4912 3.25035C11.4628 3.148 11.4481 3.04194 11.4476 2.93528H2.25231C1.65513 2.93586 1.08256 3.18668 0.660294 3.63269C0.238023 4.0787 0.000550397 4.68345 0 5.3142V18.1211C0.000550397 18.7518 0.238023 19.3566 0.660294 19.8026C1.08256 20.2486 1.65513 20.4994 2.25231 20.5H14.3776C14.9748 20.4994 15.5473 20.2486 15.9696 19.8026C16.3919 19.3566 16.6293 18.7518 16.6299 18.1211V10.2433L12.2573 14.8617Z" fill="currentColor"/>

</svg>
