<svg viewBox="0 0 20 20" fill="currentColor" xmlns="http://www.w3.org/2000/svg">
<path d="M6.50013 9.47323C8.98556 9.47323 10.9996 7.3526 10.9996 4.73662C10.9996 2.12063 8.9846 0 6.50013 0C4.0147 0 2.00063 2.12063 2.00063 4.73662C2.00063 7.3526 4.01566 9.47323 6.50013 9.47323ZM19.9516 12.1651C19.8969 11.9865 19.7941 11.8271 19.6569 11.7062C19.5196 11.5852 19.3525 11.5075 19.174 11.4815L16.0022 11.0006L14.5833 8.00252C14.5046 7.83452 14.3817 7.69244 14.2291 7.59356C14.0764 7.49468 13.8998 7.44188 13.7193 7.44188C13.5398 7.44188 13.3641 7.49468 13.2105 7.59356C13.0579 7.69244 12.935 7.83452 12.8553 8.00252L11.4364 11.0006L8.26556 11.4815C8.08796 11.5084 7.92092 11.5862 7.78364 11.7081C7.64636 11.8291 7.5446 11.9875 7.48892 12.1651C7.4342 12.3436 7.42652 12.5347 7.46972 12.7161C7.51292 12.8975 7.60412 13.0636 7.73276 13.1951L10.0281 15.5289L9.48667 18.8236C9.45595 19.0089 9.47515 19.1989 9.54331 19.3727C9.61051 19.5465 9.72379 19.6972 9.86875 19.8076C10.0147 19.918 10.1875 19.9833 10.366 19.9967C10.5455 20.0101 10.7251 19.9698 10.8844 19.8825L13.7203 18.3273L16.557 19.8825C16.7164 19.9698 16.895 20.0082 17.0745 19.9948C17.254 19.9813 17.4268 19.9161 17.5718 19.8057C17.7177 19.6953 17.83 19.5445 17.8972 19.3717C17.9644 19.198 17.9855 19.0079 17.9548 18.8236L17.4124 15.5289L19.7077 13.1951C19.8373 13.0646 19.9276 12.8985 19.9708 12.7171C20.013 12.5347 20.0063 12.3436 19.9506 12.166L19.9516 12.1651ZM5.85501 10.5254H4.99966C3.6739 10.5273 2.40383 11.0822 1.46591 12.0691C0.528957 13.055 0.00191999 14.3932 0 15.7881V18.9455C0 19.2258 0.104639 19.4927 0.292799 19.6905C0.479998 19.8882 0.735356 19.9986 1.00032 19.9986H7.3958C7.32572 19.7826 7.27964 19.5551 7.25564 19.3199C7.22588 19.0309 7.23452 18.7391 7.28156 18.455L7.63964 16.2844L6.13149 14.7513C5.92509 14.5401 5.74845 14.303 5.60925 14.0495V14.0409C5.46333 13.774 5.35485 13.5014 5.29149 13.2316V13.2143C5.22813 12.9427 5.20125 12.6547 5.21181 12.3599C5.22237 12.0681 5.27037 11.7801 5.35389 11.5075V11.4988C5.44221 11.2166 5.56893 10.9497 5.72541 10.7059L5.73405 10.6972C5.77245 10.6387 5.81181 10.5811 5.85501 10.5244V10.5254Z" fill="currentColor"/>
</svg>
