<svg viewBox="0 0 15 14" fill="currentColor" xmlns="http://www.w3.org/2000/svg">
<path d="M7.66663 7.6398L14.1591 2.0804C13.9098 1.86859 13.5938 1.75158 13.2666 1.75H2.06663C1.7395 1.75158 1.42343 1.86859 1.17413 2.0804L7.66663 7.6398Z" fill="currentColor"/>
<path d="M8.54163 8.7339C8.28686 8.92877 7.97547 9.03519 7.65473 9.037C7.35582 9.03761 7.06487 8.94079 6.82593 8.7612L0.666626 3.4888V10.85C0.666626 11.2213 0.814125 11.5774 1.07668 11.8399C1.33923 12.1025 1.69532 12.25 2.06663 12.25H13.2666C13.6379 12.25 13.994 12.1025 14.2566 11.8399C14.5191 11.5774 14.6666 11.2213 14.6666 10.85V3.4888L8.54163 8.7339Z" fill="currentColor"/>

</svg>
