<svg width="32" height="32" viewBox="0 0 32 32" fill="none" xmlns="http://www.w3.org/2000/svg">
<!-- <path d="M0 8C0 3.58172 3.58172 0 8 0H24C28.4183 0 32 3.58172 32 8V24C32 28.4183 28.4183 32 24 32H8C3.58172 32 0 28.4183 0 24V8Z" fill="#FEE2E2"/> -->
<path d="M16 8C14.4178 8 12.871 8.46919 11.5554 9.34824C10.2398 10.2273 9.21447 11.4767 8.60897 12.9385C8.00347 14.4003 7.84504 16.0089 8.15372 17.5607C8.4624 19.1126 9.22433 20.538 10.3431 21.6569C11.462 22.7757 12.8874 23.5376 14.4393 23.8463C15.9911 24.155 17.5997 23.9965 19.0615 23.391C20.5233 22.7855 21.7727 21.7602 22.6518 20.4446C23.5308 19.129 24 17.5822 24 16C23.9977 13.879 23.1541 11.8455 21.6543 10.3457C20.1545 8.84593 18.121 8.00233 16 8ZM18.9656 17.8344C19.042 17.9082 19.103 17.9965 19.1449 18.0941C19.1868 18.1917 19.2089 18.2967 19.2098 18.4029C19.2107 18.5091 19.1905 18.6144 19.1503 18.7128C19.11 18.8111 19.0506 18.9004 18.9755 18.9755C18.9004 19.0506 18.8111 19.11 18.7128 19.1503C18.6144 19.1905 18.5091 19.2107 18.4029 19.2098C18.2967 19.2089 18.1917 19.1868 18.0941 19.1449C17.9965 19.103 17.9082 19.042 17.8344 18.9656L16 17.1312L14.1656 18.9656C14.0147 19.1113 13.8126 19.192 13.6029 19.1901C13.3931 19.1883 13.1925 19.1042 13.0441 18.9559C12.8958 18.8075 12.8117 18.6069 12.8099 18.3971C12.808 18.1874 12.8887 17.9853 13.0344 17.8344L14.8688 16L13.0344 14.1656C12.8887 14.0147 12.808 13.8126 12.8099 13.6029C12.8117 13.3931 12.8958 13.1925 13.0441 13.0441C13.1925 12.8958 13.3931 12.8117 13.6029 12.8099C13.8126 12.808 14.0147 12.8887 14.1656 13.0344L16 14.8688L17.8344 13.0344C17.9853 12.8887 18.1874 12.808 18.3971 12.8099C18.6069 12.8117 18.8075 12.8958 18.9559 13.0441C19.1042 13.1925 19.1883 13.3931 19.1901 13.6029C19.192 13.8126 19.1113 14.0147 18.9656 14.1656L17.1312 16L18.9656 17.8344Z" fill="currentColor"/>
</svg>
