<svg width="14" height="15" viewBox="0 0 14 15" fill="currentColor" xmlns="http://www.w3.org/2000/svg">
    <g clip-path="url(#clip0_8110_10892)">
        <mask id="mask0_8110_10892" style="mask-type:alpha" maskUnits="userSpaceOnUse" x="0" y="0"
            width="14" height="15">
            <rect y="0.5" width="14" height="14" fill="currentColor" />
        </mask>
        <g mask="url(#mask0_8110_10892)">
            <path
                d="M7 0.5C5.61553 0.5 4.26215 0.910543 3.11101 1.67971C1.95987 2.44888 1.06266 3.54213 0.532846 4.82121C0.00303299 6.1003 -0.13559 7.50776 0.134506 8.86563C0.404603 10.2235 1.07129 11.4708 2.05026 12.4497C3.02922 13.4287 4.2765 14.0954 5.63437 14.3655C6.99224 14.6356 8.3997 14.497 9.67879 13.9672C10.9579 13.4373 12.0511 12.5401 12.8203 11.389C13.5895 10.2378 14 8.88447 14 7.5C13.998 5.64411 13.2598 3.86482 11.9475 2.5525C10.6352 1.24019 8.85589 0.502038 7 0.5ZM7 11C6.86156 11 6.72622 10.9589 6.6111 10.882C6.49599 10.8051 6.40627 10.6958 6.35329 10.5679C6.3003 10.44 6.28644 10.2992 6.31345 10.1634C6.34046 10.0276 6.40713 9.90292 6.50503 9.80502C6.60292 9.70713 6.72765 9.64046 6.86344 9.61345C6.99923 9.58644 7.13997 9.6003 7.26788 9.65328C7.39579 9.70626 7.50511 9.79598 7.58203 9.9111C7.65895 10.0262 7.7 10.1616 7.7 10.3C7.7 10.4856 7.62625 10.6637 7.49498 10.795C7.3637 10.9262 7.18565 11 7 11ZM7.7 8.2C7.7 8.38565 7.62625 8.5637 7.49498 8.69497C7.3637 8.82625 7.18565 8.9 7 8.9C6.81435 8.9 6.6363 8.82625 6.50503 8.69497C6.37375 8.5637 6.3 8.38565 6.3 8.2V4.7C6.3 4.51435 6.37375 4.3363 6.50503 4.20502C6.6363 4.07375 6.81435 4 7 4C7.18565 4 7.3637 4.07375 7.49498 4.20502C7.62625 4.3363 7.7 4.51435 7.7 4.7V8.2Z"
                fill="currentColor" />
        </g>
    </g>
    <defs>
        <clipPath id="clip0_8110_10892">
            <rect width="14" height="14" fill="currentColor" transform="translate(0 0.5)" />
        </clipPath>
    </defs>
</svg>
    