<svg   viewBox="0 0 20 20" fill="currentColor" xmlns="http://www.w3.org/2000/svg">
<path d="M2 13.6486L5.055 10.5413C5.02702 10.3621 5.00866 10.1814 5 10.0002C5.00159 8.65186 5.52888 7.35924 6.46622 6.40585C7.40356 5.45246 8.67441 4.91613 10 4.91451C10.1782 4.92299 10.3558 4.94132 10.532 4.96944L12.276 3.19556C11.5337 2.99171 10.7688 2.88573 10 2.88025C4.612 2.88025 0 8.30766 0 10.0002C0.260805 11.4045 0.962625 12.6847 2 13.6486Z" fill="currentColor"/>
<path d="M12.7 8.69213L18.707 2.58223C18.8025 2.48841 18.8787 2.37617 18.9311 2.25208C18.9835 2.12799 19.0111 1.99452 19.0123 1.85946C19.0134 1.72441 18.9881 1.59047 18.9378 1.46547C18.8875 1.34047 18.8133 1.22691 18.7194 1.13141C18.6255 1.03591 18.5138 0.96038 18.391 0.909238C18.2681 0.858096 18.1364 0.832361 18.0036 0.833534C17.8708 0.834708 17.7396 0.862767 17.6176 0.916074C17.4956 0.96938 17.3852 1.04687 17.293 1.14401L11.286 7.25391C11.0979 7.16197 10.9008 7.09037 10.698 7.04031L10.663 7.02913C10.1688 6.91098 9.65317 6.92316 9.16492 7.0645C8.67667 7.20583 8.23199 7.47165 7.87303 7.83676C7.51407 8.20186 7.25273 8.65416 7.11377 9.15078C6.97482 9.64739 6.96285 10.1719 7.079 10.6745C7.079 10.6867 7.087 10.6969 7.089 10.7081C7.13823 10.9152 7.20896 11.1163 7.3 11.3082L1.293 17.4181C1.19749 17.5119 1.12131 17.6242 1.0689 17.7482C1.01649 17.8723 0.988903 18.0058 0.98775 18.1409C0.986596 18.2759 1.0119 18.4098 1.06218 18.5348C1.11246 18.6599 1.18671 18.7734 1.28061 18.8689C1.3745 18.9644 1.48615 19.0399 1.60905 19.0911C1.73194 19.1422 1.86362 19.168 1.9964 19.1668C2.12918 19.1656 2.2604 19.1376 2.3824 19.0842C2.50441 19.0309 2.61475 18.9535 2.707 18.8563L8.714 12.7464C8.90264 12.839 9.10041 12.911 9.304 12.961C9.315 12.961 9.325 12.9681 9.337 12.9712C9.83117 13.0893 10.3468 13.0772 10.8351 12.9358C11.3233 12.7945 11.768 12.5287 12.127 12.1636C12.4859 11.7985 12.7473 11.3462 12.8862 10.8495C13.0252 10.3529 13.0372 9.82844 12.921 9.3258C12.921 9.3136 12.913 9.30241 12.91 9.29021C12.8608 9.08392 12.7904 8.88346 12.7 8.69213Z" fill="currentColor"/>
<path d="M17.821 6.5348L14.964 9.44074C15.0548 10.1994 14.9746 10.9691 14.7296 11.6916C14.4846 12.4141 14.0812 13.0704 13.5499 13.6108C13.0186 14.1512 12.3733 14.5616 11.663 14.8108C10.9527 15.06 10.1959 15.1415 9.45 15.0492L7.665 16.8648C8.43238 17.0329 9.21502 17.1185 10 17.1201C16.453 17.1201 20 11.772 20 10.0002C20 8.81419 18.363 7.07693 17.821 6.5348Z" fill="currentColor"/>
</svg>
