<svg viewBox="0 0 12 9" fill="currentColor" xmlns="http://www.w3.org/2000/svg">
    <path
        d="M6 0C2.7672 0 0 3.43029 0 4.5C0 5.61986 2.1276 9 6 9C9.8724 9 12 5.61986 12 4.5C12 3.43029 9.2328 0 6 0ZM6 6.42857C5.64399 6.42857 5.29598 6.31546 4.99997 6.10355C4.70397 5.89163 4.47325 5.59043 4.33702 5.23803C4.20078 4.88563 4.16513 4.49786 4.23459 4.12375C4.30404 3.74965 4.47547 3.40601 4.72721 3.13629C4.97894 2.86658 5.29967 2.6829 5.64884 2.60849C5.998 2.53407 6.35992 2.57226 6.68883 2.71823C7.01774 2.8642 7.29886 3.11139 7.49665 3.42854C7.69443 3.74569 7.8 4.11856 7.8 4.5C7.8 5.01149 7.61036 5.50203 7.27279 5.86371C6.93523 6.22538 6.47739 6.42857 6 6.42857Z"
        fill="currentColor" />
</svg>