<svg   viewBox="0 0 14 11" fill="currentColor"
    xmlns="http://www.w3.org/2000/svg">
    <path
        d="M7 0.25C3.2284 0.25 0 4.252 0 5.5C0 6.8065 2.4822 10.75 7 10.75C11.5178 10.75 14 6.8065 14 5.5C14 4.252 10.7716 0.25 7 0.25ZM7 7.75C6.58466 7.75 6.17865 7.61804 5.8333 7.37081C5.48796 7.12357 5.2188 6.77217 5.05985 6.36104C4.90091 5.9499 4.85932 5.4975 4.94035 5.06105C5.02138 4.62459 5.22139 4.22368 5.51508 3.90901C5.80877 3.59434 6.18295 3.38005 6.59031 3.29323C6.99767 3.20642 7.41991 3.25097 7.80364 3.42127C8.18736 3.59157 8.51534 3.87996 8.74609 4.24997C8.97684 4.61998 9.1 5.05499 9.1 5.5C9.1 6.09674 8.87875 6.66903 8.48492 7.09099C8.0911 7.51295 7.55695 7.75 7 7.75Z"
        fill="currentColor" />
</svg>
    