<svg viewBox="0 0 20 21" fill="currentColor" xmlns="http://www.w3.org/2000/svg">
    <path
        d="M16.4913 0.50001H11.5028C11.1275 0.499022 10.7557 0.574308 10.409 0.721509C10.0622 0.86871 9.74746 1.0849 9.48285 1.35757L8.80953 2.04538C8.70395 2.15995 8.62743 2.29931 8.58668 2.45123H12.6818C13.6835 2.46076 14.6406 2.87702 15.343 3.60866C16.0454 4.34029 16.4358 5.32751 16.4284 6.35367V16.1098H16.4913C16.9879 16.1005 17.4606 15.8899 17.8059 15.5242C18.1512 15.1584 18.3408 14.6673 18.3331 14.1585V2.45123C18.3408 1.94248 18.1512 1.45138 17.8059 1.08561C17.4606 0.719838 16.9879 0.509247 16.4913 0.50001Z"
        fill="currentColor" />
    <path
        d="M6.90481 9.28047V4.40243C6.90607 4.26024 6.93862 4.12018 7.00005 3.99267C6.36989 4.12737 5.79192 4.44783 5.33723 4.91462L2.64301 7.67462C2.21359 8.11738 1.91201 8.67313 1.7716 9.28047H6.90481Z"
        fill="currentColor" />
    <path
        d="M12.6818 3.91463H8.66382C8.75475 4.06065 8.80512 4.2293 8.80953 4.40244V9.28049C8.80953 9.79798 8.60885 10.2943 8.25165 10.6602C7.89445 11.0261 7.40997 11.2317 6.90481 11.2317H1.66684V18.061C1.65921 18.6989 1.89885 19.3139 2.33321 19.7712C2.76757 20.2284 3.3612 20.4905 3.98393 20.5H12.6818C13.3046 20.4905 13.8984 20.2284 14.3329 19.7712C14.7674 19.314 15.0072 18.699 14.9999 18.061V6.35366C15.0072 5.71561 14.7674 5.1006 14.3329 4.64341C13.8984 4.18621 13.3046 3.92414 12.6818 3.91463Z"
        fill="currentColor" />

</svg>
    