<svg viewBox="0 0 12 13" fill="currentColor" xmlns="http://www.w3.org/2000/svg">
<g clip-path="url(#clip0_10047_24625)">
<mask id="mask0_10047_24625" style="mask-type:alpha" maskUnits="userSpaceOnUse" x="0" y="0">
<rect y="0.5" fill="currentColor"/>
</mask>
<g mask="url(#mask0_10047_24625)">
<path d="M4.12505 3.5V0.578C3.82009 0.658987 3.54185 0.813718 3.31695 1.0274L1.54951 2.7242C1.32737 2.94044 1.16627 3.20743 1.08139 3.5H4.12505Z" fill="currentColor"/>
<path d="M9.79114 0.5H5.37502V3.5C5.37502 3.81826 5.24333 4.12348 5.00891 4.34853C4.7745 4.57357 4.45657 4.7 4.12505 4.7H1.00015V11.3C0.995129 11.6129 1.11955 11.9149 1.34613 12.1399C1.57272 12.3648 1.88297 12.4943 2.20886 12.5H9.79114C10.117 12.4943 10.4273 12.3648 10.6539 12.1399C10.8804 11.9149 11.0049 11.6129 10.9999 11.3V1.7C11.0049 1.38712 10.8804 1.08509 10.6539 0.860143C10.4273 0.635194 10.117 0.505681 9.79114 0.5ZM7.91619 9.5H4.01756C3.8518 9.5 3.69284 9.43679 3.57563 9.32426C3.45842 9.21174 3.39258 9.05913 3.39258 8.9C3.39258 8.74087 3.45842 8.58826 3.57563 8.47574C3.69284 8.36321 3.8518 8.3 4.01756 8.3H7.91619C8.08195 8.3 8.24092 8.36321 8.35812 8.47574C8.47533 8.58826 8.54118 8.74087 8.54118 8.9C8.54118 9.05913 8.47533 9.21174 8.35812 9.32426C8.24092 9.43679 8.08195 9.5 7.91619 9.5ZM7.91619 7.1H4.01756C3.8518 7.1 3.69284 7.03679 3.57563 6.92426C3.45842 6.81174 3.39258 6.65913 3.39258 6.5C3.39258 6.34087 3.45842 6.18826 3.57563 6.07574C3.69284 5.96321 3.8518 5.9 4.01756 5.9H7.91619C8.08195 5.9 8.24092 5.96321 8.35812 6.07574C8.47533 6.18826 8.54118 6.34087 8.54118 6.5C8.54118 6.65913 8.47533 6.81174 8.35812 6.92426C8.24092 7.03679 8.08195 7.1 7.91619 7.1Z" fill="currentColor"/>
</g>
</g>

</svg>
