<svg viewBox="0 0 14 14" fill="currentColor" xmlns="http://www.w3.org/2000/svg">
<path d="M4.81387 3.5V0.0910001C4.45807 0.185485 4.13347 0.366004 3.87109 0.6153L1.80907 2.5949C1.54939 2.8468 1.36136 3.15843 1.26294 3.5H4.81387Z" fill="currentColor"/>
<path d="M11.207 10.8325C11.0695 10.96 10.8853 11.0306 10.6941 11.029C10.5029 11.0274 10.3201 10.9538 10.1849 10.824C10.0497 10.6942 9.973 10.5186 9.97134 10.3351C9.96968 10.1515 10.0432 9.97472 10.176 9.8427L10.9489 9.1H6.27216C6.07878 9.1 5.89332 9.02625 5.75658 8.89497C5.61983 8.7637 5.54301 8.58565 5.54301 8.4C5.54301 8.21435 5.61983 8.0363 5.75658 7.90503C5.89332 7.77375 6.07878 7.7 6.27216 7.7H10.9489L10.176 6.9573C10.1064 6.89273 10.0508 6.81549 10.0126 6.73008C9.97438 6.64468 9.95426 6.55283 9.95342 6.45988C9.95258 6.36694 9.97103 6.27476 10.0077 6.18873C10.0444 6.10271 10.0985 6.02455 10.167 5.95882C10.2354 5.8931 10.3168 5.84112 10.4064 5.80592C10.496 5.77073 10.5921 5.75302 10.6889 5.75382C10.7857 5.75463 10.8814 5.77394 10.9703 5.81063C11.0593 5.84732 11.1397 5.90064 11.207 5.9675L12.8345 7.5299V1.4C12.8405 1.03504 12.6955 0.68267 12.4313 0.420209C12.167 0.157749 11.8052 0.00662745 11.425 0H6.27216V3.5C6.27216 3.8713 6.11852 4.2274 5.84503 4.48995C5.57155 4.7525 5.20063 4.9 4.81387 4.9H1.16815V12.6C1.1621 12.965 1.3071 13.3173 1.57133 13.5798C1.83556 13.8422 2.19744 13.9934 2.57759 14H11.3762C11.7629 14 12.1338 13.8525 12.4073 13.5899C12.6808 13.3274 12.8345 12.9713 12.8345 12.6V9.2701L11.207 10.8325Z" fill="currentColor"/>
</svg>
