<svg viewBox="0 0 20 21" fill="currentColor" xmlns="http://www.w3.org/2000/svg">

<path d="M6.87444 5.5V0.63C6.36616 0.764979 5.90244 1.02286 5.5276 1.379L2.58186 4.207C2.21163 4.56739 1.94313 5.01238 1.80167 5.5H6.87444Z" fill="currentColor"/>
<path d="M16.3179 0.5H8.95771V5.5C8.95771 6.03043 8.73822 6.53914 8.34754 6.91421C7.95685 7.28929 7.42696 7.5 6.87444 7.5H1.66626V18.5C1.6579 19.0215 1.86527 19.5248 2.2429 19.8998C2.62054 20.2747 3.13762 20.4905 3.68078 20.5H16.3179C16.8611 20.4905 17.3782 20.2747 17.7558 19.8998C18.1334 19.5248 18.3408 19.0215 18.3324 18.5V2.5C18.3408 1.97853 18.1334 1.47515 17.7558 1.10024C17.3782 0.725324 16.8611 0.509469 16.3179 0.5Z" fill="currentColor"/>

</svg>
