<svg viewBox="0 0 12 13" fill="currentColor" xmlns="http://www.w3.org/2000/svg">
<g clip-path="url(#clip0_10047_4553)">
<mask id="mask0_10047_4553" style="mask-type:alpha" maskUnits="userSpaceOnUse" x="0" y="0">
<rect y="0.5" fill="currentColor"/>
</mask>
<g mask="url(#mask0_10047_4553)">
<path d="M2.7 7.1H2.4V7.7H2.7C2.8656 7.7 3 7.5656 3 7.4C3 7.2344 2.8656 7.1 2.7 7.1Z" fill="currentColor"/>
<path d="M4.2 3.5V0.578C3.9108 0.6608 3.6426 0.8084 3.4242 1.0274L1.7274 2.7242C1.5084 2.9426 1.3608 3.2108 1.278 3.5H4.2Z" fill="currentColor"/>
<path d="M6.225 7.1H6V8.9H6.225C6.432 8.9 6.6 8.732 6.6 8.525V7.475C6.6 7.268 6.432 7.1 6.225 7.1Z" fill="currentColor"/>
<path d="M11.4 4.7H10.8V1.7C10.8 1.0382 10.2798 0.5 9.6402 0.5H5.4V3.5C5.4 4.1618 4.8618 4.7 4.2 4.7H0.6C0.2688 4.7 0 4.9688 0 5.3V10.7C0 11.0312 0.2688 11.3 0.6 11.3H1.2C1.2 11.9618 1.7202 12.5 2.3598 12.5H9.6402C10.2978 12.5 10.6584 11.7584 10.7538 11.5316C10.785 11.4572 10.7958 11.3786 10.7958 11.3H11.4C11.7312 11.3 12 11.0312 12 10.7V5.3C12 4.9688 11.7312 4.7 11.4 4.7ZM2.7 8.9H2.4V9.5C2.4 9.8312 2.1312 10.1 1.8 10.1C1.4688 10.1 1.2 9.8312 1.2 9.5V6.5C1.2 6.1688 1.4688 5.9 1.8 5.9H2.7C3.5268 5.9 4.2 6.5732 4.2 7.4C4.2 8.2268 3.5268 8.9 2.7 8.9ZM7.8 8.525C7.8 9.3932 7.0932 10.1 6.225 10.1H5.4C5.0688 10.1 4.8 9.8312 4.8 9.5V6.5C4.8 6.1688 5.0688 5.9 5.4 5.9H6.225C7.0932 5.9 7.8 6.6068 7.8 7.475V8.525ZM10.2 7.7C10.5312 7.7 10.8 7.9688 10.8 8.3C10.8 8.6312 10.5312 8.9 10.2 8.9H9.6V9.5C9.6 9.8312 9.3312 10.1 9 10.1C8.6688 10.1 8.4 9.8312 8.4 9.5V6.5C8.4 6.1688 8.6688 5.9 9 5.9H10.2C10.5312 5.9 10.8 6.1688 10.8 6.5C10.8 6.8312 10.5312 7.1 10.2 7.1H9.6V7.7H10.2Z" fill="currentColor"/>
</g>
</g>
</svg>
