<svg viewBox="0 0 18 21" fill="currentColor"
    xmlns="http://www.w3.org/2000/svg">
    <path d="M5.8764 5.5V0.63C5.36812 0.764979 4.9044 1.02286 4.52957 1.379L1.58383 4.207C1.21286 4.56685 0.944239 5.01204 0.803641 5.5H5.8764Z" fill="currentColor"/>
    <path d="M15.0094 15.975C14.813 16.1572 14.5499 16.258 14.2768 16.2557C14.0036 16.2534 13.7424 16.1482 13.5493 15.9628C13.3561 15.7774 13.2466 15.5266 13.2442 15.2644C13.2418 15.0022 13.3468 14.7496 13.5366 14.561L14.6407 13.5H7.95967C7.68341 13.5 7.41847 13.3946 7.22312 13.2071C7.02778 13.0196 6.91803 12.7652 6.91803 12.5C6.91803 12.2348 7.02778 11.9804 7.22312 11.7929C7.41847 11.6054 7.68341 11.5 7.95967 11.5H14.6407L13.5366 10.439C13.4371 10.3468 13.3577 10.2364 13.3031 10.1144C13.2486 9.9924 13.2198 9.86118 13.2186 9.7284C13.2174 9.59562 13.2438 9.46394 13.2961 9.34105C13.3485 9.21815 13.4259 9.1065 13.5237 9.0126C13.6215 8.91871 13.7378 8.84446 13.8658 8.79418C13.9938 8.7439 14.131 8.7186 14.2693 8.71975C14.4076 8.7209 14.5443 8.74849 14.6713 8.8009C14.7984 8.85331 14.9134 8.92949 15.0094 9.025L17.3344 11.257V2.5C17.343 1.97862 17.1359 1.47524 16.7584 1.1003C16.3809 0.725355 15.864 0.509468 15.3209 0.5H7.95967V5.5C7.95967 6.03043 7.74018 6.53914 7.34949 6.91421C6.9588 7.28929 6.42892 7.5 5.8764 7.5H0.668229V18.5C0.659588 19.0214 0.866724 19.5248 1.24419 19.8997C1.62167 20.2746 2.13864 20.4905 2.68171 20.5H15.2511C15.8036 20.5 16.3335 20.2893 16.7242 19.9142C17.1149 19.5391 17.3344 19.0304 17.3344 18.5V13.743L15.0094 15.975Z" fill="currentColor"/>
</svg>
