<svg viewBox="0 0 14 14" fill="currentColor" xmlns="http://www.w3.org/2000/svg">
<path d="M0.572001 1.05553L0.572007 1.05552L0.570286 1.05328C0.530454 1.00135 0.507046 0.940745 0.501364 0.878436C0.495684 0.816156 0.507787 0.753093 0.5371 0.696053C0.566468 0.638905 0.612393 0.589314 0.671092 0.554079C0.729881 0.518789 0.798543 0.499726 0.86925 0.500003V0.500007H0.871208L13.1288 0.500011L13.1307 0.500003C13.2015 0.499726 13.2701 0.518789 13.3289 0.554079C13.3876 0.589314 13.4335 0.638905 13.4629 0.696052C13.4922 0.753097 13.5043 0.816161 13.4986 0.878434L13.9966 0.923843L13.4986 0.878437C13.493 0.940743 13.4695 1.00134 13.4297 1.05327L13.428 1.05553L8.34656 7.75855L8.24501 7.89251V8.06061V13.0165L5.75499 11.2004V8.06061V7.89251L5.65344 7.75855L0.572001 1.05553ZM13.1288 6.81074e-06H0.871208H13.1288Z" fill="currentColor" stroke="currentColor"/>
</svg>
