<svg viewBox="0 0 12 15" fill="currentColor"
    xmlns="http://www.w3.org/2000/svg">
    <path d="M6.76339 1.40581C8.11019 2.07081 9.15879 2.58881 10.5938 1.89021C10.7006 1.83818 10.8188 1.81419 10.9374 1.82047C11.056 1.82675 11.1711 1.86311 11.2718 1.92612C11.3724 1.98913 11.4554 2.07673 11.5129 2.18066C11.5704 2.28459 11.6005 2.40143 11.6004 2.52021V9.19821C11.6005 9.32955 11.5637 9.45828 11.4941 9.56969C11.4246 9.68109 11.3251 9.77068 11.207 9.82821C9.12029 10.8432 7.43959 9.99621 6.13199 9.33751C5.98751 9.26387 5.84237 9.19154 5.69659 9.12051C4.97349 8.77261 4.37569 8.55211 3.76739 8.58151C3.23539 8.60671 2.59699 8.83141 1.80039 9.55871V13.8C1.80039 13.9857 1.72664 14.1637 1.59537 14.295C1.46409 14.4263 1.28604 14.5 1.10039 14.5C0.914739 14.5 0.736692 14.4263 0.605416 14.295C0.474141 14.1637 0.400391 13.9857 0.400391 13.8V2.57971C0.400501 2.48724 0.41893 2.39571 0.454613 2.3104C0.490297 2.2251 0.542529 2.14771 0.608291 2.08271C1.67369 1.02851 2.68519 0.553206 3.70019 0.504206C4.68509 0.456606 5.55729 0.821306 6.30419 1.18111C6.46169 1.25671 6.61429 1.33231 6.76269 1.40511L6.76339 1.40581Z" fill="currentColor"/>
</svg>
