<svg viewBox="0 0 20 20" fill="none" xmlns="http://www.w3.org/2000/svg">
<path fill-rule="evenodd" clip-rule="evenodd" d="M17.1301 1.00056H13.7913C13.6137 0.698161 13.3583 0.445682 13.0502 0.270003C12.743 0.0943237 12.3926 0.00120414 12.0374 0.000244141H7.96314C7.60698 0.00120414 7.25754 0.0943237 6.94938 0.270003C6.64218 0.445682 6.38587 0.697201 6.20923 1.00056H2.87036C2.32988 1.00056 1.81245 1.21176 1.43037 1.58616C1.04829 1.96151 0.833252 2.47031 0.833252 3.00023V18.0002C0.833252 18.5301 1.04829 19.0389 1.43037 19.4142C1.81245 19.7896 2.33084 19.9998 2.87036 19.9998H17.1292C17.6697 19.9998 18.188 19.7896 18.5701 19.4142C18.9522 19.0389 19.1663 18.531 19.1663 18.0002V3.00023C19.1663 2.47031 18.9522 1.96151 18.5701 1.58616C18.188 1.2108 17.6697 1.00056 17.1292 1.00056H17.1301ZM13.9132 8.52788L10.2623 7.16277C10.0934 7.09941 9.90713 7.09941 9.73817 7.16277L6.08731 8.52788C5.79547 8.63636 5.60251 8.91476 5.60251 9.2258C5.60251 14.1323 9.44057 16.5822 9.60473 16.684C9.72665 16.7589 9.86393 16.7963 10.0012 16.7963C10.1385 16.7963 10.2758 16.7579 10.3967 16.683C10.5599 16.5813 14.398 14.1323 14.398 9.22484C14.398 8.91572 14.206 8.63732 13.9132 8.52788ZM10.0031 15.1307L10.0012 15.1288V8.6546L12.8879 9.7346C12.6921 12.677 10.8383 14.4674 10.0031 15.1307ZM7.9641 2.00087H12.0383V4.00054H7.9641V2.00087Z" fill="currentColor"/>
</svg>
