<svg viewBox="0 0 20 21" fill="currentColor" xmlns="http://www.w3.org/2000/svg">

<path d="M2.24948 9.2613C3.07349 8.0968 4.13925 7.12891 5.37199 6.42553C6.60473 5.72216 7.97458 5.30034 9.38545 5.18966V3.83995C9.38 3.39988 9.49843 2.96734 9.72688 2.59289C9.95533 2.21844 10.2844 1.91755 10.6755 1.7254C11.0497 1.54101 11.4677 1.46746 11.8814 1.51323C12.295 1.559 12.6875 1.72224 13.0134 1.98409L19.1149 6.82957C19.5308 7.16445 19.8221 7.63246 19.9408 8.15685C20.0595 8.68124 19.9987 9.2309 19.7683 9.7157C19.6146 10.0372 19.3913 10.3194 19.1149 10.5413L13.0157 15.3868C12.6897 15.6486 12.2971 15.8117 11.8833 15.8571C11.4696 15.9024 11.0516 15.8283 10.6777 15.6432C10.2878 15.4508 9.95977 15.1504 9.73163 14.777C9.50349 14.4035 9.38461 13.9722 9.38878 13.5331V12.4736C3.46622 13.9178 2.48616 18.3797 2.44394 18.5934C2.39654 18.8383 2.27005 19.0602 2.08438 19.2244C1.89871 19.3885 1.6644 19.4854 1.41832 19.5H1.35165C1.11512 19.4997 0.884814 19.4233 0.694043 19.2818C0.503273 19.1402 0.361936 18.9409 0.290482 18.7127C-0.0797314 17.0877 -0.0962728 15.4007 0.242006 13.7687C0.580284 12.1366 1.26528 10.5986 2.24948 9.2613Z" fill="currentColor"/>

</svg>
