<svg viewBox="0 0 20 20" fill="currentColor" xmlns="http://www.w3.org/2000/svg">
<path fill-rule="evenodd" clip-rule="evenodd" d="M17.59 17.9283C17.59 18.182 17.4631 18.4357 17.294 18.6471C17.0826 18.8162 16.8712 18.9431 16.5752 18.9431C16.3215 18.9431 16.0678 18.8585 15.8564 18.6471C15.6872 18.4779 15.5604 18.2242 15.5604 17.9283V16.0678H9.26012C9.3024 16.2369 9.3024 16.4483 9.3024 16.6175C9.3024 17.5477 8.96413 18.3934 8.32988 19.0699C7.73791 19.7042 6.89223 20.0847 6.04656 20.0847C5.20089 20.0847 4.35521 19.7042 3.76324 19.0699C3.17127 18.4357 2.79072 17.5477 2.79072 16.6175C2.79072 16.4483 2.833 16.2792 2.833 16.0678H1.01481C0.761105 16.0678 0.507404 15.9409 0.295985 15.7718C0.126851 15.5604 0 15.3067 0 15.0107C0 13.3616 0 14.7147 0 13.0656C0 12.8119 0.126851 12.5582 0.295985 12.3468C0.46512 12.1777 0.718822 12.0508 1.01481 12.0508C3.55183 12.0508 9.76752 12.0508 14.3342 12.0508V11.0783C14.3342 10.7823 14.4187 10.5709 14.6301 10.3595C14.7993 10.1904 15.053 10.0635 15.349 10.0635H19.0699C19.3236 10.0635 19.5773 10.1904 19.7887 10.3595C19.9579 10.5709 20.0847 10.7823 20.0847 11.0783C20.0847 11.332 20.0002 11.5857 19.7887 11.7971C19.6196 11.9663 19.3659 12.0931 19.0699 12.0931H17.5477C17.5477 14.4187 17.5477 15.6449 17.5477 17.9705L17.59 17.9283ZM1.09937 8.37216C0.845673 8.37216 0.591971 8.24531 0.380553 8.07617C0.211418 7.86476 0.0845673 7.61105 0.0845673 7.31507C0.0845673 5.66601 0.0845673 2.66387 0.0845673 1.01481C0.0845673 0.761105 0.211418 0.507404 0.380553 0.295985C0.549687 0.126851 0.803389 0 1.09937 0H16.6175C16.8712 0 17.1249 0.0845673 17.3363 0.295985C17.5054 0.46512 17.6323 0.718822 17.6323 1.01481C17.6323 2.66387 17.6323 5.66601 17.6323 7.31507C17.6323 7.61105 17.5477 7.86476 17.3363 8.07617C17.1672 8.28759 16.9135 8.37216 16.6175 8.37216H1.09937ZM6.08884 17.9283C5.83514 17.9283 5.58144 17.8437 5.41231 17.7168C5.20089 17.59 5.03175 17.3786 4.94719 17.1249C4.86262 16.8712 4.82033 16.6175 4.86262 16.3638C4.9049 16.1101 5.03175 15.8564 5.20089 15.6872C5.37002 15.4758 5.58144 15.3912 5.83514 15.3067C6.08884 15.2644 6.34255 15.2644 6.55396 15.3912C6.76538 15.4758 6.9768 15.6449 7.10365 15.8986C7.2305 16.1101 7.31507 16.3638 7.31507 16.6175C7.31507 16.9557 7.18822 17.294 6.93452 17.5477C6.68081 17.8014 6.38483 17.9283 6.04656 17.9283H6.08884Z" fill="currentColor"/>
</svg>
