<svg   viewBox="0 0 20 20" xmlns="http://www.w3.org/2000/svg"
    fill="currentColor">
    <path fill-rule="evenodd" clip-rule="evenodd"
        d="M17.4844 17.8897C17.4844 18.1547 17.374 18.4091 17.1945 18.5973C17.0044 18.7845 16.7538 18.8901 16.4841 18.8901C16.2143 18.8901 15.9638 18.7845 15.7746 18.5973C15.5942 18.4101 15.4847 18.1557 15.4847 17.8897V16.0302H9.19868C9.22844 16.2097 9.24476 16.3902 9.24764 16.5601C9.24764 17.4808 8.90588 18.3505 8.29532 19.0005C7.68668 19.6408 6.85917 20.0008 5.99709 20.0008C5.13502 20.0008 4.30846 19.6408 3.69886 19.0005C3.08927 18.3505 2.74655 17.4808 2.74655 16.5601C2.75039 16.3902 2.76767 16.2097 2.79743 16.0302H1.00032C0.735356 16.0302 0.479998 15.9198 0.293759 15.7202C0.105599 15.5301 0 15.2603 0 14.98C0 13.323 0 14.6862 0 13.0302C0 12.7653 0.110399 12.5109 0.289919 12.3227C0.479998 12.1355 0.729596 12.0299 0.999355 12.0299C3.5539 12.0299 9.72859 12.0299 14.2982 12.0299V11.0421C14.2982 10.7656 14.3961 10.517 14.591 10.3192C14.7782 10.1397 15.0326 10.0293 15.2985 10.0293H18.9993C19.2642 10.0293 19.5186 10.1397 19.7068 10.3192C19.894 10.5093 19.9996 10.7599 19.9996 11.0296C19.9996 11.2994 19.894 11.5499 19.7068 11.7391C19.5196 11.9195 19.2652 12.029 18.9993 12.029H17.4834C17.4834 14.3522 17.4834 15.5656 17.4834 17.8888L17.4844 17.8897ZM1.00032 8.33683C0.735356 8.33683 0.479998 8.22643 0.293759 8.02675C0.105599 7.83667 0 7.56691 0 7.28659C0 5.62964 0 2.65653 0 0.999583C0 0.734624 0.110399 0.480225 0.289919 0.292066C0.479998 0.104867 0.729596 -0.000732422 0.999355 -0.000732422H16.4841C16.7538 -0.000732422 17.0044 0.104867 17.1935 0.292066C17.374 0.479265 17.4834 0.733664 17.4834 0.999583C17.4834 2.65653 17.4834 5.62964 17.4834 7.28659C17.4834 7.56691 17.3788 7.83667 17.1897 8.02675C17.0034 8.22643 16.7481 8.33683 16.4831 8.33683H0.998395H1.00032ZM5.00638 1.72438C6.35613 1.72438 7.45052 2.81877 7.45052 4.16853C7.45052 5.51828 6.35613 6.61268 5.00638 6.61268C3.65662 6.61268 2.56223 5.51828 2.56223 4.16853C2.56223 2.81877 3.65662 1.72438 5.00638 1.72438ZM12.478 1.72438C13.8278 1.72438 14.9222 2.81877 14.9222 4.16853C14.9222 5.51828 13.8278 6.61268 12.478 6.61268C11.1283 6.61268 10.0339 5.51828 10.0339 4.16853C10.0339 2.81877 11.1283 1.72438 12.478 1.72438ZM5.99805 17.8897C5.75133 17.8897 5.50941 17.8101 5.30397 17.6603C5.09758 17.5201 4.93822 17.3099 4.84318 17.0699C4.7491 16.8299 4.72414 16.5601 4.77214 16.3096C4.82014 16.0494 4.93918 15.8094 5.1139 15.6299C5.28861 15.4398 5.51229 15.3198 5.75421 15.2699C5.99709 15.22 6.24861 15.2402 6.47613 15.34C6.70557 15.4398 6.90045 15.6098 7.03773 15.8306C7.17597 16.0504 7.24893 16.3 7.24893 16.5601C7.24797 16.9105 7.11741 17.2504 6.88221 17.5C6.64797 17.7505 6.33021 17.8897 5.99901 17.8897H5.99805Z"
        fill="currentColor" />
</svg>
    