<svg width="14" height="14" viewBox="0 0 20 20" fill="currentColor" xmlns="http://www.w3.org/2000/svg">
<path fill-rule="evenodd" clip-rule="evenodd" d="M17.4847 17.8898C17.4847 18.1548 17.3743 18.4092 17.1948 18.5974C17.0047 18.7846 16.7542 18.8902 16.4844 18.8902C16.2146 18.8902 15.9641 18.7846 15.7749 18.5974C15.5945 18.4102 15.485 18.1558 15.485 17.8898V16.0303H9.19885C9.22861 16.2098 9.24493 16.3903 9.24781 16.5602C9.24781 17.4809 8.90605 18.3506 8.29548 19.0006C7.68683 19.6409 6.8593 20.0009 5.99721 20.0009C5.13511 20.0009 4.30854 19.6409 3.69893 19.0006C3.08932 18.3506 2.7466 17.4809 2.7466 16.5602C2.75044 16.3903 2.76772 16.2098 2.79748 16.0303H1.00033C0.735371 16.0303 0.480007 15.9199 0.293764 15.7202C0.105602 15.5301 0 15.2604 0 14.98C0 13.3231 0 14.6863 0 13.0302C0 12.7653 0.110402 12.5109 0.289924 12.3227C0.480007 12.1355 0.72961 12.0299 0.999374 12.0299C3.55397 12.0299 9.72878 12.0299 14.2984 12.0299V11.0421C14.2984 10.7656 14.3964 10.5169 14.5913 10.3192C14.7785 10.1396 15.0329 10.0292 15.2988 10.0292H18.9996C19.2646 10.0292 19.519 10.1396 19.7072 10.3192C19.8944 10.5093 20 10.7598 20 11.0296C20 11.2993 19.8944 11.5499 19.7072 11.739C19.52 11.9195 19.2656 12.029 18.9996 12.029H17.4838C17.4838 14.3522 17.4838 15.5656 17.4838 17.8889L17.4847 17.8898ZM1.00033 8.33674C0.735371 8.33674 0.480007 8.22634 0.293764 8.02666C0.105602 7.83658 0 7.56681 0 7.28649C0 5.6295 0 2.65634 0 0.999358C0 0.734394 0.110402 0.47999 0.289924 0.291828C0.480007 0.104625 0.72961 -0.000976562 0.999374 -0.000976562H2.17731C2.44708 -0.000976562 2.69764 0.104625 2.88676 0.291828C3.06724 0.47903 3.17669 0.733434 3.17669 0.999358C3.17669 2.65634 3.17669 5.6295 3.17669 7.28649C3.17669 7.56681 3.07204 7.83658 2.88292 8.02666C2.69668 8.22634 2.44132 8.33674 2.17635 8.33674H0.998414H1.00033ZM15.3343 8.33674C15.0693 8.33674 14.814 8.22634 14.6277 8.02666C14.4396 7.83658 14.334 7.56681 14.334 7.28649C14.334 5.6295 14.334 2.65634 14.334 0.999358C14.334 0.734394 14.4444 0.47999 14.6239 0.291828C14.814 0.104625 15.0636 -0.000976562 15.3333 -0.000976562H16.5113C16.781 -0.000976562 17.0316 0.104625 17.2207 0.291828C17.4012 0.47903 17.5107 0.733434 17.5107 0.999358C17.5107 2.65634 17.5107 5.6295 17.5107 7.28649C17.5107 7.56681 17.406 7.83658 17.2169 8.02666C17.0306 8.22634 16.7753 8.33674 16.5103 8.33674H15.3324H15.3343ZM10.5563 8.33674C10.2913 8.33674 10.036 8.22634 9.84974 8.02666C9.66158 7.83658 9.55598 7.56681 9.55598 7.28649C9.55598 5.6295 9.55598 2.65634 9.55598 0.999358C9.55598 0.734394 9.66638 0.47999 9.8459 0.291828C10.036 0.104625 10.2856 -0.000976562 10.5554 -0.000976562H11.7333C12.0031 -0.000976562 12.2536 0.104625 12.4427 0.291828C12.6232 0.47903 12.7327 0.733434 12.7327 0.999358C12.7327 2.65634 12.7327 5.6295 12.7327 7.28649C12.7327 7.56681 12.628 7.83658 12.4389 8.02666C12.2527 8.22634 11.9973 8.33674 11.7323 8.33674H10.5544H10.5563ZM5.77832 8.33674C5.51336 8.33674 5.258 8.22634 5.07175 8.02666C4.88359 7.83658 4.77799 7.56681 4.77799 7.28649C4.77799 5.6295 4.77799 2.65634 4.77799 0.999358C4.77799 0.734394 4.88839 0.47999 5.06791 0.291828C5.258 0.104625 5.5076 -0.000976562 5.77736 -0.000976562H6.9553C7.22506 -0.000976562 7.47563 0.104625 7.66475 0.291828C7.84523 0.47903 7.95467 0.733434 7.95467 0.999358C7.95467 2.65634 7.95467 5.6295 7.95467 7.28649C7.95467 7.56681 7.85003 7.83658 7.66091 8.02666C7.47467 8.22634 7.2193 8.33674 6.95434 8.33674H5.7764H5.77832ZM5.99817 17.8898C5.75144 17.8898 5.50952 17.8102 5.30408 17.6604C5.09767 17.5202 4.93831 17.31 4.84327 17.07C4.74919 16.83 4.72423 16.5602 4.77223 16.3097C4.82023 16.0495 4.93927 15.8095 5.11399 15.63C5.28872 15.4399 5.5124 15.3199 5.75432 15.27C5.99721 15.22 6.24873 15.2402 6.47625 15.34C6.7057 15.4399 6.90058 15.6098 7.03786 15.8306C7.1761 16.0505 7.24906 16.3001 7.24906 16.5602C7.2481 16.9106 7.11754 17.2505 6.88234 17.5001C6.6481 17.7506 6.33033 17.8898 5.99913 17.8898H5.99817Z" fill="currentColor"/>
</svg>
