<svg   viewBox="0 0 95 36" fill="currentColor" xmlns="http://www.w3.org/2000/svg">
<path fill-rule="evenodd" clip-rule="evenodd" d="M40.0378 0H27.8455C26.8747 0 26.1307 0.362924 25.6218 1.03254L17.9295 11.1578L20.5706 14.6187L28.4927 4.19099H33.7269L23.1892 17.9999L33.7269 31.8088H28.4927L20.5965 21.4153L17.9429 24.8597L25.6218 34.9671C26.1307 35.6367 26.8747 35.9996 27.8455 35.9996H40.0378C41.0324 35.9996 41.4313 35.1084 40.8442 34.3359L28.3864 17.9997L40.8442 1.66356C41.4313 0.891005 41.0324 0 40.0378 0Z" fill="currentColor"/>
<path fill-rule="evenodd" clip-rule="evenodd" d="M1.07987 2.81334e-05H13.2722C14.243 2.81334e-05 14.987 0.362952 15.4959 1.03257L28.3864 17.9997L15.4959 34.9673C14.987 35.6369 14.243 35.9998 13.2722 35.9998H1.07987C0.085328 35.9998 -0.313571 35.1086 0.273507 34.3361L11.0927 20.0955H16.2901L7.39112 31.809H12.6254L23.1162 18.0001L12.6254 4.19119H7.39112L16.2901 15.9047H11.0927L0.273507 1.66412C-0.313571 0.891562 0.085328 2.81334e-05 1.07987 2.81334e-05Z" fill="currentColor"/>
<path d="M59.9145 9.25931V26.7904H56.3983V19.3309H48.8886V26.7904H45.3723V9.25931H48.8886V16.4676H56.3983V9.25931H59.9145Z" fill="currentColor"/>
<path d="M76.5112 12.876V26.7904H72.9698V25.0322C72.5177 25.635 71.9233 26.1122 71.1866 26.4639C70.4666 26.7987 69.6796 26.9662 68.8257 26.9662C67.7373 26.9662 66.7745 26.7401 65.9373 26.288C65.1001 25.8192 64.4387 25.1411 63.9531 24.2536C63.4843 23.3495 63.2499 22.2778 63.2499 21.0388V12.876H66.7662V20.5365C66.7662 21.6416 67.0424 22.4955 67.595 23.0983C68.1475 23.6843 68.901 23.9774 69.8554 23.9774C70.8266 23.9774 71.5884 23.6843 72.141 23.0983C72.6936 22.4955 72.9698 21.6416 72.9698 20.5365V12.876H76.5112Z" fill="currentColor"/>
<path d="M83.4968 14.9104C83.9489 14.2407 84.5685 13.6965 85.3554 13.2779C86.1591 12.8593 87.0717 12.65 88.0931 12.65C89.2819 12.65 90.3535 12.943 91.308 13.5291C92.2791 14.1151 93.041 14.9523 93.5935 16.0407C94.1628 17.1123 94.4475 18.3597 94.4475 19.783C94.4475 21.2062 94.1628 22.4704 93.5935 23.5755C93.041 24.6639 92.2791 25.5094 91.308 26.1122C90.3535 26.715 89.2819 27.0164 88.0931 27.0164C87.0549 27.0164 86.1424 26.8155 85.3554 26.4136C84.5852 25.995 83.9657 25.4592 83.4968 24.8062V26.7904H79.9806V8.20443H83.4968V14.9104ZM90.8559 19.783C90.8559 18.9458 90.68 18.2258 90.3284 17.623C89.9935 17.0034 89.5415 16.5346 88.9722 16.2165C88.4196 15.8983 87.8168 15.7393 87.1638 15.7393C86.5275 15.7393 85.9247 15.9067 85.3554 16.2416C84.8029 16.5597 84.3508 17.0286 83.9992 17.6481C83.6643 18.2676 83.4968 18.996 83.4968 19.8332C83.4968 20.6704 83.6643 21.3988 83.9992 22.0183C84.3508 22.6378 84.8029 23.115 85.3554 23.4499C85.9247 23.7681 86.5275 23.9271 87.1638 23.9271C87.8168 23.9271 88.4196 23.7597 88.9722 23.4248C89.5415 23.0899 89.9935 22.6127 90.3284 21.9932C90.68 21.3737 90.8559 20.6369 90.8559 19.783Z" fill="currentColor"/>
</svg>
