<svg   viewBox="0 0 295 37" fill="currentColor" xmlns="http://www.w3.org/2000/svg">
<path fill-rule="evenodd" clip-rule="evenodd" d="M40.0378 0.500176H27.8455C26.8747 0.500176 26.1307 0.8631 25.6217 1.53272L17.9294 11.6579L20.5706 15.1188L28.4926 4.69116H33.7269L23.1892 18.5001L33.7269 32.309H28.4926L20.5965 21.9155L17.9429 25.3598L25.6217 35.4673C26.1307 36.1369 26.8747 36.4998 27.8455 36.4998H40.0378C41.0323 36.4998 41.4312 35.6086 40.8442 34.8361L28.3864 18.4999L40.8442 2.16374C41.4312 1.39118 41.0323 0.5 40.0378 0.5V0.500176Z" fill="currentColor"/>
<path fill-rule="evenodd" clip-rule="evenodd" d="M1.07987 0.500183H13.2722C14.243 0.500183 14.987 0.863107 15.4959 1.53273L28.3865 18.5001L15.4959 35.4674C14.987 36.1371 14.243 36.5 13.2722 36.5H1.07987C0.085328 36.5 -0.313571 35.6088 0.273507 34.8362L11.0927 20.5957H16.2901L7.39112 32.3092H12.6254L23.1162 18.5003L12.6254 4.69135H7.39112L16.2901 16.4049H11.0927L0.273507 2.16427C-0.313571 1.39172 0.085328 0.500536 1.07987 0.500536V0.500183Z" fill="currentColor"/>
<path d="M59.9146 9.75947V27.2905H56.3983V19.831H48.8886V27.2905H45.3723V9.75947H48.8886V16.9678H56.3983V9.75947H59.9146Z" fill="currentColor"/>
<path d="M76.5112 13.3762V27.2905H72.9698V25.5324C72.5178 26.1352 71.9233 26.6124 71.1866 26.964C70.4666 27.2989 69.6796 27.4663 68.8257 27.4663C67.7373 27.4663 66.7745 27.2403 65.9373 26.7882C65.1001 26.3194 64.4387 25.6412 63.9532 24.7538C63.4843 23.8496 63.2499 22.778 63.2499 21.5389V13.3762H66.7662V21.0366C66.7662 22.1417 67.0424 22.9957 67.595 23.5985C68.1475 24.1845 68.901 24.4775 69.8554 24.4775C70.8266 24.4775 71.5885 24.1845 72.141 23.5985C72.6936 22.9957 72.9698 22.1417 72.9698 21.0366V13.3762H76.5112Z" fill="currentColor"/>
<path d="M83.4968 15.4106C83.9489 14.7408 84.5685 14.1967 85.3554 13.778C86.1592 13.3594 87.0717 13.1501 88.0931 13.1501C89.2819 13.1501 90.3535 13.4432 91.308 14.0292C92.2791 14.6153 93.041 15.4525 93.5935 16.5408C94.1628 17.6124 94.4475 18.8599 94.4475 20.2831C94.4475 21.7064 94.1628 22.9706 93.5935 24.0757C93.041 25.164 92.2791 26.0096 91.308 26.6124C90.3535 27.2152 89.2819 27.5166 88.0931 27.5166C87.055 27.5166 86.1424 27.3156 85.3554 26.9138C84.5852 26.4952 83.9657 25.9594 83.4968 25.3064V27.2905H79.9806V8.70459H83.4968V15.4106ZM90.8559 20.2831C90.8559 19.4459 90.6801 18.7259 90.3284 18.1231C89.9935 17.5036 89.5415 17.0348 88.9722 16.7166C88.4196 16.3985 87.8168 16.2394 87.1638 16.2394C86.5275 16.2394 85.9247 16.4069 85.3554 16.7418C84.8029 17.0599 84.3508 17.5287 83.9992 18.1483C83.6643 18.7678 83.4968 19.4962 83.4968 20.3334C83.4968 21.1706 83.6643 21.8989 83.9992 22.5185C84.3508 23.138 84.8029 23.6152 85.3554 23.9501C85.9247 24.2682 86.5275 24.4273 87.1638 24.4273C87.8168 24.4273 88.4196 24.2598 88.9722 23.925C89.5415 23.5901 89.9935 23.1129 90.3284 22.4933C90.6801 21.8738 90.8559 21.1371 90.8559 20.2831Z" fill="currentColor"/>
</svg>
