<svg   viewBox="0 0 253 96" fill="currentColor" xmlns="http://www.w3.org/2000/svg">
<path fill-rule="evenodd" clip-rule="evenodd" d="M107.215 0H74.7021C72.1133 0 70.1294 0.967797 68.7721 2.75345L48.2594 29.754L55.3024 38.9831L76.4279 11.176H90.3859L62.2854 47.9997L90.3859 84.8235H76.4279L55.3714 57.1075L48.2952 66.2924L68.7721 93.2455C70.1294 95.0312 72.1133 95.999 74.7021 95.999H107.215C109.867 95.999 110.931 93.6225 109.365 91.5623L76.1446 47.9993L109.365 4.43617C110.931 2.37601 109.867 0 107.215 0Z" fill="currentColor"/>
<path fill-rule="evenodd" clip-rule="evenodd" d="M3.32715 1.82487e-05H35.8401C38.4288 1.82487e-05 40.4127 0.967815 41.77 2.75347L76.1446 47.9993L41.77 93.246C40.4127 95.0317 38.4288 95.9995 35.8401 95.9995H3.32715C0.675051 95.9995 -0.388678 93.623 1.17686 91.5628L30.028 53.588H43.8877L20.1572 84.824H34.1152L62.0908 48.0002L34.1152 11.1765H20.1572L43.8877 42.4125H30.028L1.17686 4.4376C-0.388678 2.37744 0.675051 1.82487e-05 3.32715 1.82487e-05Z" fill="currentColor"/>
<path d="M160.22 24.6914V71.4409H150.843V51.549H130.817V71.4409H121.44V24.6914H130.817V43.9137H150.843V24.6914H160.22Z" fill="currentColor"/>
<path d="M204.477 34.336V71.4409H195.034V66.7526C193.828 68.36 192.243 69.6326 190.278 70.5703C188.358 71.4633 186.26 71.9098 183.983 71.9098C181.08 71.9098 178.513 71.307 176.28 70.1014C174.048 68.8512 172.284 67.0428 170.989 64.6763C169.739 62.2652 169.114 59.4075 169.114 56.1034V34.336H178.491V54.7638C178.491 57.7108 179.227 59.988 180.701 61.5954C182.174 63.1582 184.184 63.9396 186.729 63.9396C189.318 63.9396 191.35 63.1582 192.824 61.5954C194.297 59.988 195.034 57.7108 195.034 54.7638V34.336H204.477Z" fill="currentColor"/>
<path d="M223.106 39.7611C224.311 37.9751 225.963 36.5239 228.062 35.4077C230.205 34.2914 232.639 33.7332 235.362 33.7332C238.533 33.7332 241.39 34.5146 243.935 36.0774C246.525 37.6402 248.557 39.8727 250.03 42.7751C251.548 45.6327 252.307 48.9592 252.307 52.7545C252.307 56.5499 251.548 59.921 250.03 62.868C248.557 65.7703 246.525 68.0252 243.935 69.6326C241.39 71.24 238.533 72.0437 235.362 72.0437C232.594 72.0437 230.161 71.5079 228.062 70.4363C226.008 69.32 224.356 67.8912 223.106 66.1498V71.4409H213.729V21.8784H223.106V39.7611ZM242.73 52.7545C242.73 50.522 242.261 48.602 241.323 46.9946C240.43 45.3425 239.225 44.0923 237.707 43.2439C236.233 42.3955 234.626 41.9713 232.884 41.9713C231.188 41.9713 229.58 42.4179 228.062 43.3109C226.589 44.1592 225.383 45.4095 224.445 47.0615C223.552 48.7136 223.106 50.6559 223.106 52.8885C223.106 55.121 223.552 57.0634 224.445 58.7154C225.383 60.3675 226.589 61.6401 228.062 62.5331C229.58 63.3815 231.188 63.8056 232.884 63.8056C234.626 63.8056 236.233 63.3591 237.707 62.4661C239.225 61.5731 240.43 60.3005 241.323 58.6485C242.261 56.9964 242.73 55.0317 242.73 52.7545Z" fill="currentColor"/>
</svg>
