<svg viewBox="0 0 252 96" fill="currentColor" xmlns="http://www.w3.org/2000/svg">
<path fill-rule="evenodd" clip-rule="evenodd" d="M106.837 0.000470033H74.3245C71.7358 0.000470033 69.7519 0.968267 68.3946 2.75392L47.8818 29.7545L54.9249 38.9836L76.0504 11.1764H90.0084L61.9079 48.0002L90.0084 84.824H76.0504L54.9939 57.108L47.9177 66.2929L68.3946 93.246C69.7519 95.0317 71.7358 95.9995 74.3245 95.9995H106.837C109.49 95.9995 110.553 93.623 108.988 91.5628L75.7671 47.9997L108.988 4.43664C110.553 2.37648 109.49 0 106.837 0V0.000470033Z" fill="currentColor"/>
<path fill-rule="evenodd" clip-rule="evenodd" d="M2.94965 0.000488281H35.4626C38.0513 0.000488281 40.0352 0.968285 41.3925 2.75394L75.7673 48.0002L41.3925 93.2465C40.0352 95.0321 38.0513 95.9999 35.4626 95.9999H2.94965C0.297549 95.9999 -0.766181 93.6235 0.799359 91.5633L29.6505 53.5884H43.5102L19.7797 84.8244H33.7377L61.7133 48.0007L33.7377 11.1769H19.7797L43.5102 42.4129H29.6505L0.799359 4.43807C-0.766181 2.37791 0.297549 0.00142835 2.94965 0.00142835V0.000488281Z" fill="currentColor"/>
<path d="M159.842 24.6919V71.4414H150.465V51.5494H130.44V71.4414H121.063V24.6919H130.44V43.9141H150.465V24.6919H159.842Z" fill="currentColor"/>
<path d="M204.1 34.3365V71.4414H194.656V66.7531C193.451 68.3605 191.866 69.633 189.901 70.5707C187.981 71.4637 185.882 71.9102 183.605 71.9102C180.703 71.9102 178.135 71.3075 175.903 70.1019C173.67 68.8517 171.907 67.0433 170.612 64.6768C169.362 62.2657 168.736 59.408 168.736 56.1038V34.3365H178.113V54.7643C178.113 57.7113 178.85 59.9885 180.323 61.5959C181.797 63.1587 183.806 63.9401 186.351 63.9401C188.941 63.9401 190.973 63.1587 192.446 61.5959C193.92 59.9885 194.656 57.7113 194.656 54.7643V34.3365H204.1Z" fill="currentColor"/>
<path d="M222.728 39.7616C223.934 37.9756 225.586 36.5244 227.685 35.4081C229.828 34.2919 232.261 33.7337 234.985 33.7337C238.155 33.7337 241.013 34.5151 243.558 36.0779C246.148 37.6407 248.179 39.8732 249.653 42.7755C251.171 45.6332 251.93 48.9597 251.93 52.755C251.93 56.5503 251.171 59.9215 249.653 62.8684C248.179 65.7707 246.148 68.0256 243.558 69.633C241.013 71.2405 238.155 72.0442 234.985 72.0442C232.217 72.0442 229.783 71.5084 227.685 70.4368C225.631 69.3205 223.979 67.8917 222.728 66.1503V71.4414H213.352V21.8789H222.728V39.7616ZM242.352 52.755C242.352 50.5225 241.884 48.6025 240.946 46.995C240.053 45.343 238.847 44.0927 237.329 43.2444C235.856 42.396 234.248 41.9718 232.507 41.9718C230.81 41.9718 229.203 42.4183 227.685 43.3113C226.211 44.1597 225.005 45.4099 224.068 47.062C223.175 48.7141 222.728 50.6564 222.728 52.889C222.728 55.1215 223.175 57.0638 224.068 58.7159C225.005 60.368 226.211 61.6405 227.685 62.5336C229.203 63.3819 230.81 63.8061 232.507 63.8061C234.248 63.8061 235.856 63.3596 237.329 62.4666C238.847 61.5736 240.053 60.301 240.946 58.6489C241.884 56.9968 242.352 55.0322 242.352 52.755Z" fill="currentColor"/>
</svg>
