<svg  viewBox="0 0 10 16" fill="currentColor" xmlns="http://www.w3.org/2000/svg">
<path d="M2.63663 4.88293L2.63141 4.90018L2.62744 4.91777C2.58391 5.11062 2.58369 5.31 2.62682 5.50295L3.11478 5.39388L2.62682 5.50295C2.6698 5.69522 2.75437 5.8748 2.87292 6.03135C3.42968 6.77415 4.26622 7.28572 5.20579 7.47547C6.59002 7.76294 7.7815 8.53689 8.52907 9.61374C8.73984 9.9263 8.87794 10.272 8.93743 10.6299C8.99636 10.9845 8.97734 11.3463 8.88113 11.6948C8.69909 12.2266 8.36803 12.7118 7.91465 13.1005C7.45754 13.4925 6.8927 13.772 6.27437 13.9074L5.88133 13.9935V14.3959V14.8291C5.88133 14.9919 5.81102 15.1581 5.66891 15.2881C5.52532 15.4194 5.32175 15.5 5.10115 15.5C4.88055 15.5 4.67698 15.4194 4.53338 15.2881L4.27463 15.571L4.53338 15.2881C4.39128 15.1581 4.32097 14.9919 4.32097 14.8291V14.4872V14.0626L3.90197 13.9938C3.8405 13.9837 3.78985 13.9763 3.74462 13.9697C3.66658 13.9583 3.60467 13.9492 3.53114 13.9328L3.53115 13.9328L3.52589 13.9317C2.48363 13.7112 1.55139 13.196 0.859356 12.4677C0.737495 12.3303 0.685985 12.164 0.702117 12.0042C0.718485 11.8421 0.805324 11.6806 0.961529 11.5609C1.11906 11.4403 1.33027 11.3765 1.54879 11.3935C1.7672 11.4104 1.95967 11.5051 2.08843 11.6436L2.08834 11.6437L2.0962 11.6518C2.58272 12.1519 3.2237 12.493 3.92448 12.6339C4.64984 12.7936 5.3949 12.7547 6.00767 12.556C6.60134 12.3636 7.18086 11.9794 7.36908 11.3624L7.37459 11.3443L7.37873 11.3259C7.42197 11.133 7.42192 10.9336 7.37857 10.7407C7.33542 10.5487 7.25082 10.3694 7.13235 10.2131C6.57599 9.46951 5.73927 8.95727 4.79927 8.76728C3.4159 8.48086 2.22474 7.70829 1.47685 6.63281C1.26617 6.32032 1.12817 5.97471 1.06883 5.61687C1.01008 5.26268 1.02917 4.90137 1.12531 4.55332C1.31931 3.99709 1.67501 3.49279 2.16131 3.09617C2.65179 2.69615 3.2557 2.42176 3.91021 2.30655L4.32353 2.23379V1.81412V1.1709C4.32353 1.00809 4.39384 0.84187 4.53594 0.711898C4.67954 0.580564 4.88311 0.5 5.10371 0.5C5.32431 0.5 5.52788 0.580564 5.67147 0.711898C5.81357 0.841869 5.88389 1.00809 5.88389 1.1709V1.79538V2.21222L6.29391 2.28722C6.34185 2.29599 6.3896 2.30139 6.41763 2.30455C6.42145 2.30499 6.4249 2.30538 6.42794 2.30573C6.46021 2.30946 6.47031 2.31127 6.47555 2.31247L6.47554 2.31253L6.48312 2.31414C7.51349 2.533 8.43658 3.03962 9.12641 3.7558C9.19012 3.82384 9.23631 3.90013 9.26475 3.97939C9.29338 4.05914 9.30409 4.14196 9.29719 4.22373C9.29029 4.30553 9.26568 4.38711 9.2229 4.4639C9.18004 4.54085 9.11926 4.61234 9.0418 4.67267C8.96425 4.73307 8.87209 4.7806 8.76993 4.81066C8.66776 4.84072 8.55916 4.85223 8.45087 4.84399C8.34259 4.83575 8.23854 4.80808 8.14486 4.76378C8.05122 4.7195 7.97101 4.6601 7.90745 4.591L7.90133 4.58434L7.89497 4.57792C7.40934 4.08686 6.77457 3.75134 6.08139 3.61058C5.35491 3.44987 4.60928 3.48877 3.99641 3.68778C3.40274 3.88056 2.82364 4.26545 2.63663 4.88293Z" fill="currentColor" stroke="currentColor"/>
</svg>
