<svg  viewBox="0 0 14 13" fill="none" xmlns="http://www.w3.org/2000/svg">
<path d="M1.39995 12.8002H12.6C12.7856 12.8002 12.9637 12.7264 13.0949 12.5952C13.2262 12.4639 13.3 12.2858 13.3 12.1002V7.9002H10.1927C10.0573 7.90055 9.92498 7.94051 9.81204 8.01513C9.6991 8.08976 9.61046 8.19581 9.55705 8.3202C9.34171 8.8197 8.98479 9.2452 8.53036 9.54415C8.07593 9.84311 7.5439 10.0024 6.99995 10.0024C6.456 10.0024 5.92397 9.84311 5.46954 9.54415C5.01511 9.2452 4.65819 8.8197 4.44285 8.3202C4.38944 8.19581 4.30081 8.08976 4.18787 8.01513C4.07493 7.94051 3.94262 7.90055 3.80725 7.9002H0.699951V12.1002C0.699951 12.2858 0.773701 12.4639 0.904976 12.5952C1.03625 12.7264 1.2143 12.8002 1.39995 12.8002Z" fill="currentColor"/>
<path d="M3.80725 6.5002C4.21514 6.50042 4.61409 6.61978 4.95507 6.84363C5.29606 7.06747 5.56423 7.38604 5.72665 7.7602C5.83297 8.0099 6.01036 8.22284 6.23675 8.37251C6.46315 8.52218 6.72855 8.60198 6.99995 8.60198C7.27135 8.60198 7.53676 8.52218 7.76315 8.37251C7.98955 8.22284 8.16694 8.0099 8.27325 7.7602C8.43567 7.38604 8.70385 7.06747 9.04483 6.84363C9.38582 6.61978 9.78476 6.50042 10.1927 6.5002H13.16L11.8839 0.748296C11.8493 0.592734 11.7626 0.453628 11.6383 0.353969C11.5139 0.25431 11.3593 0.200064 11.2 0.200196H2.79995C2.64059 0.200064 2.48596 0.25431 2.36161 0.353969C2.23726 0.453628 2.15063 0.592734 2.11605 0.748296L0.839952 6.5002H3.80725Z" fill="currentColor"/>
</svg>
