<svg viewBox="0 0 14 15" fill="none" xmlns="http://www.w3.org/2000/svg">
<path d="M1.39995 13.8002H12.6C12.7856 13.8002 12.9637 13.7264 13.0949 13.5952C13.2262 13.4639 13.3 13.2858 13.3 13.1002V8.9002H10.1927C10.0573 8.90055 9.92498 8.94051 9.81204 9.01513C9.6991 9.08976 9.61046 9.19581 9.55705 9.3202C9.34171 9.8197 8.98479 10.2452 8.53036 10.5442C8.07593 10.8431 7.5439 11.0024 6.99995 11.0024C6.456 11.0024 5.92397 10.8431 5.46954 10.5442C5.01511 10.2452 4.65819 9.8197 4.44285 9.3202C4.38944 9.19581 4.30081 9.08976 4.18787 9.01513C4.07493 8.94051 3.94262 8.90055 3.80725 8.9002H0.699951V13.1002C0.699951 13.2858 0.773701 13.4639 0.904976 13.5952C1.03625 13.7264 1.2143 13.8002 1.39995 13.8002Z" fill="currentColor"/>
<path d="M3.80725 7.5002C4.21514 7.50042 4.61409 7.61978 4.95507 7.84363C5.29606 8.06747 5.56423 8.38604 5.72665 8.7602C5.83297 9.0099 6.01036 9.22284 6.23675 9.37251C6.46315 9.52218 6.72855 9.60198 6.99995 9.60198C7.27135 9.60198 7.53676 9.52218 7.76315 9.37251C7.98955 9.22284 8.16694 9.0099 8.27325 8.7602C8.43567 8.38604 8.70385 8.06747 9.04483 7.84363C9.38582 7.61978 9.78476 7.50042 10.1927 7.5002H13.16L11.8839 1.7483C11.8493 1.59273 11.7626 1.45363 11.6383 1.35397C11.5139 1.25431 11.3593 1.20006 11.2 1.2002H2.79995C2.64059 1.20006 2.48596 1.25431 2.36161 1.35397C2.23726 1.45363 2.15063 1.59273 2.11605 1.7483L0.839952 7.5002H3.80725Z" fill="currentColor"/>
</svg>
