<svg viewBox="0 0 32 32" fill="currentColor" xmlns="http://www.w3.org/2000/svg">
<path d="M0 8C0 3.58172 3.58172 0 8 0H24C28.4183 0 32 3.58172 32 8V24C32 28.4183 28.4183 32 24 32H8C3.58172 32 0 28.4183 0 24V8Z" fill="currentColor"/>
<g clip-path="url(#clip0_2495_1087)">
<mask id="mask0_2495_1087" style="mask-type:alpha" maskUnits="userSpaceOnUse" x="8" y="8">
<rect x="8" y="8" fill="currentColor"/>
</mask>
<g mask="url(#mask0_2495_1087)">
<path d="M16 8C14.4178 8 12.871 8.46919 11.5554 9.34824C10.2398 10.2273 9.21447 11.4767 8.60897 12.9385C8.00347 14.4003 7.84504 16.0089 8.15372 17.5607C8.4624 19.1126 9.22433 20.538 10.3431 21.6569C11.462 22.7757 12.8874 23.5376 14.4393 23.8463C15.9911 24.155 17.5997 23.9965 19.0615 23.391C20.5233 22.7855 21.7727 21.7602 22.6518 20.4446C23.5308 19.129 24 17.5822 24 16C23.9977 13.879 23.1541 11.8455 21.6543 10.3457C20.1545 8.84593 18.121 8.00233 16 8ZM15.6 11.2C15.8373 11.2 16.0693 11.2704 16.2667 11.4022C16.464 11.5341 16.6178 11.7215 16.7087 11.9408C16.7995 12.16 16.8232 12.4013 16.7769 12.6341C16.7306 12.8669 16.6164 13.0807 16.4485 13.2485C16.2807 13.4163 16.0669 13.5306 15.8341 13.5769C15.6013 13.6232 15.3601 13.5995 15.1408 13.5087C14.9215 13.4178 14.7341 13.264 14.6022 13.0667C14.4704 12.8693 14.4 12.6373 14.4 12.4C14.4 12.0817 14.5264 11.7765 14.7515 11.5515C14.9765 11.3264 15.2817 11.2 15.6 11.2ZM17.6 20H14.4C14.1878 20 13.9843 19.9157 13.8343 19.7657C13.6843 19.6157 13.6 19.4122 13.6 19.2C13.6 18.9878 13.6843 18.7843 13.8343 18.6343C13.9843 18.4843 14.1878 18.4 14.4 18.4H15.2V16H14.4C14.1878 16 13.9843 15.9157 13.8343 15.7657C13.6843 15.6157 13.6 15.4122 13.6 15.2C13.6 14.9878 13.6843 14.7843 13.8343 14.6343C13.9843 14.4843 14.1878 14.4 14.4 14.4H16C16.2122 14.4 16.4157 14.4843 16.5657 14.6343C16.7157 14.7843 16.8 14.9878 16.8 15.2V18.4H17.6C17.8122 18.4 18.0157 18.4843 18.1657 18.6343C18.3157 18.7843 18.4 18.9878 18.4 19.2C18.4 19.4122 18.3157 19.6157 18.1657 19.7657C18.0157 19.9157 17.8122 20 17.6 20Z" fill="currentColor"/>
</g>
</g>
<defs>
<clipPath id="clip0_2495_1087">
<rect fill="currentColor" transform="translate(8 8)"/>
</clipPath>
</defs>
</svg>
