<svg viewBox="0 0 20 20" fill="currentColor" xmlns="http://www.w3.org/2000/svg">
    <path
        d="M11.09 1.29401C13.014 2.24401 14.512 2.98401 16.562 1.98601C16.7145 1.91169 16.8835 1.87741 17.0529 1.88638C17.2223 1.89536 17.3867 1.9473 17.5305 2.03732C17.6744 2.12733 17.7929 2.25246 17.875 2.40094C17.9572 2.54941 18.0002 2.71633 18 2.88601V12.426C18.0002 12.6136 17.9476 12.7975 17.8482 12.9567C17.7488 13.1158 17.6067 13.2438 17.438 13.326C14.457 14.776 12.056 13.566 10.188 12.625C9.9816 12.5198 9.77426 12.4165 9.566 12.315C8.533 11.818 7.679 11.503 6.81 11.545C6.05 11.581 5.138 11.902 4 12.941V19C4 19.2652 3.89464 19.5196 3.70711 19.7071C3.51957 19.8947 3.26522 20 3 20C2.73478 20 2.48043 19.8947 2.29289 19.7071C2.10536 19.5196 2 19.2652 2 19V2.97101C2.00016 2.83891 2.02648 2.70816 2.07746 2.58629C2.12844 2.46443 2.20305 2.35387 2.297 2.26101C3.819 0.755008 5.264 0.0760079 6.714 0.00600792C8.121 -0.0619921 9.367 0.459008 10.434 0.973008C10.659 1.08101 10.877 1.18901 11.089 1.29301L11.09 1.29401Z"
        fill="currentColor" />
</svg>