<svg width="10" height="12" viewBox="0 0 10 12" fill="none" xmlns="http://www.w3.org/2000/svg">
<path d="M5.00009 2.28788e-06C4.0885 -0.000852398 3.19405 0.237773 2.41364 0.690027C1.63323 1.14228 0.996616 1.79092 0.572771 2.56566C0.148927 3.34041 -0.045987 4.21173 0.0091456 5.08521C0.0642782 5.9587 0.367355 6.80105 0.885542 7.521C0.906284 7.56012 0.931435 7.59694 0.960545 7.6308L1.03555 7.7184C1.10555 7.8054 1.17743 7.8894 1.23931 7.9584L4.51757 11.7828C4.57635 11.8509 4.65009 11.9057 4.73351 11.9432C4.81692 11.9808 4.90796 12.0002 5.00009 12C5.09248 12 5.18373 11.9804 5.26727 11.9426C5.35081 11.9047 5.42457 11.8495 5.48324 11.781L8.66587 8.058C8.79478 7.92493 8.91541 7.78469 9.02713 7.638L9.10651 7.545C9.13675 7.50974 9.16236 7.47105 9.18277 7.4298C9.6767 6.70581 9.95753 5.86709 9.99555 5.00242C10.0336 4.13775 9.82735 3.27929 9.39873 2.51792C8.97011 1.75655 8.33503 1.12058 7.56071 0.677335C6.78638 0.234089 5.90163 5.43947e-05 5.00009 2.28788e-06ZM5.00009 3C5.37095 3 5.73347 3.10557 6.04183 3.30336C6.35018 3.50114 6.59052 3.78226 6.73244 4.11117C6.87436 4.44008 6.91149 4.802 6.83914 5.15116C6.76679 5.50033 6.58821 5.82106 6.32597 6.07279C6.06374 6.32453 5.72963 6.49596 5.3659 6.56541C5.00217 6.63487 4.62515 6.59922 4.28253 6.46298C3.9399 6.32675 3.64706 6.09604 3.44102 5.80003C3.23498 5.50402 3.12501 5.15601 3.12501 4.8C3.12501 4.32261 3.32256 3.86477 3.67421 3.52721C4.02585 3.18964 4.50279 3 5.00009 3Z" fill="currentColor"/>
</svg>
