<svg   viewBox="0 0 64 64" fill="currentColor" xmlns="http://www.w3.org/2000/svg">
<path d="M0 8C0 3.58172 3.58172 0 8 0H56C60.4183 0 64 3.58172 64 8V56C64 60.4183 60.4183 64 56 64H8C3.58172 64 0 60.4183 0 56V8Z" fill="currentColor"/>
<g clip-path="url(#clip0_2522_5355)">
<mask id="mask0_2522_5355" style="mask-type:alpha" maskUnits="userSpaceOnUse" x="14" y="14"  >
<rect x="14" y="14"   fill="currentColor"/>
</mask>
<g mask="url(#mask0_2522_5355)">
<path d="M44.375 26.6H41.2812V22.1C41.2812 19.9517 40.3034 17.8915 38.5628 16.3724C36.8223 14.8534 34.4615 14 32 14C29.5385 14 27.1777 14.8534 25.4372 16.3724C23.6966 17.8915 22.7188 19.9517 22.7188 22.1V26.6H19.625C18.531 26.6 17.4818 26.9793 16.7082 27.6544C15.9346 28.3295 15.5 29.2452 15.5 30.2V46.4C15.5 47.3548 15.9346 48.2705 16.7082 48.9456C17.4818 49.6207 18.531 50 19.625 50H44.375C45.469 50 46.5182 49.6207 47.2918 48.9456C48.0654 48.2705 48.5 47.3548 48.5 46.4V30.2C48.5 29.2452 48.0654 28.3295 47.2918 27.6544C46.5182 26.9793 45.469 26.6 44.375 26.6ZM34.0625 41C34.0625 41.4774 33.8452 41.9352 33.4584 42.2728C33.0716 42.6104 32.547 42.8 32 42.8C31.453 42.8 30.9284 42.6104 30.5416 42.2728C30.1548 41.9352 29.9375 41.4774 29.9375 41V35.6C29.9375 35.1226 30.1548 34.6648 30.5416 34.3272C30.9284 33.9896 31.453 33.8 32 33.8C32.547 33.8 33.0716 33.9896 33.4584 34.3272C33.8452 34.6648 34.0625 35.1226 34.0625 35.6V41ZM37.1562 26.6H26.8438V22.1C26.8438 20.9065 27.387 19.7619 28.354 18.918C29.321 18.0741 30.6325 17.6 32 17.6C33.3675 17.6 34.679 18.0741 35.646 18.918C36.613 19.7619 37.1562 20.9065 37.1562 22.1V26.6Z" fill="currentColor"/>
</g>
</g>
<defs>
<clipPath id="clip0_2522_5355">
<rect   fill="currentColor" transform="translate(14 14)"/>
</clipPath>
</defs>
</svg>
