<svg viewBox="0 0 56 56" fill="none" xmlns="http://www.w3.org/2000/svg">

<path d="M47.2487 19.6H42.4362V12.6C42.4362 9.25827 40.9151 6.05341 38.2076 3.69045C35.5 1.3275 31.8278 0 27.9987 0C24.1696 0 20.4974 1.3275 17.7898 3.69045C15.0823 6.05341 13.5612 9.25827 13.5612 12.6V19.6H8.7487C7.04689 19.6 5.41479 20.19 4.21143 21.2402C3.00807 22.2904 2.33203 23.7148 2.33203 25.2V50.4C2.33203 51.8852 3.00807 53.3096 4.21143 54.3598C5.41479 55.41 7.04689 56 8.7487 56H47.2487C48.9505 56 50.5826 55.41 51.786 54.3598C52.9893 53.3096 53.6654 51.8852 53.6654 50.4V25.2C53.6654 23.7148 52.9893 22.2904 51.786 21.2402C50.5826 20.19 48.9505 19.6 47.2487 19.6ZM31.207 42C31.207 42.7426 30.869 43.4548 30.2673 43.9799C29.6657 44.505 28.8496 44.8 27.9987 44.8C27.1478 44.8 26.3317 44.505 25.7301 43.9799C25.1284 43.4548 24.7904 42.7426 24.7904 42V33.6C24.7904 32.8574 25.1284 32.1452 25.7301 31.6201C26.3317 31.095 27.1478 30.8 27.9987 30.8C28.8496 30.8 29.6657 31.095 30.2673 31.6201C30.869 32.1452 31.207 32.8574 31.207 33.6V42ZM36.0195 19.6H19.9779V12.6C19.9779 10.7435 20.8229 8.96301 22.3271 7.65025C23.8313 6.3375 25.8714 5.6 27.9987 5.6C30.126 5.6 32.1661 6.3375 33.6703 7.65025C35.1745 8.96301 36.0195 10.7435 36.0195 12.6V19.6Z" fill="currentColor"/>

</svg>
