<svg viewBox="0 0 20 20" fill="currentColor" xmlns="http://www.w3.org/2000/svg">
<path d="M17.9371 0H2.06309C0.924502 0 0 0.924502 0 2.06309V17.938C0 19.0766 0.924502 20.0011 2.06309 20.0011H17.9371C19.0766 20.0011 20.0002 19.0766 20.0002 17.938V2.06309C20.0002 0.923542 19.0757 0 17.9371 0ZM7.54482 13.0266C6.02222 13.0266 4.72811 12.4928 3.66249 11.4272C2.59686 10.3615 2.06309 9.06646 2.06309 7.54386C2.06309 7.23953 2.08613 6.93521 2.13221 6.63088C2.17733 6.32655 2.26181 6.03758 2.38374 5.76302C2.45958 5.61037 2.55462 5.49613 2.66886 5.42029C2.78311 5.34349 2.90887 5.29069 3.04615 5.25997C3.18344 5.22925 3.32456 5.23309 3.46856 5.27149C3.61257 5.30893 3.74601 5.38957 3.86793 5.51149L6.26607 7.90963L7.91059 6.26511L5.51245 3.86697C5.39053 3.74505 5.30989 3.61161 5.27245 3.4676C5.23405 3.3236 5.23021 3.18248 5.26093 3.04519C5.29069 2.90791 5.34445 2.78215 5.42125 2.6679C5.49709 2.55366 5.61133 2.45862 5.76398 2.38278C6.03855 2.26085 6.32751 2.17637 6.63184 2.13125C6.93617 2.08517 7.24145 2.06213 7.54482 2.06213C9.06742 2.06213 10.3625 2.5959 11.4281 3.66153C12.4937 4.72715 13.0275 6.02126 13.0275 7.54386C13.0275 7.89427 12.9968 8.22548 12.9363 8.53749C12.8749 8.84949 12.7837 9.15766 12.6617 9.46199L17.2756 14.0298C17.7163 14.4714 17.938 15.0119 17.938 15.6513C17.938 16.2906 17.7172 16.8311 17.2756 17.2727C16.834 17.7134 16.2935 17.9352 15.6541 17.9352C15.0148 17.9352 14.4743 17.7067 14.0327 17.2497L9.46487 12.6589C9.16054 12.7808 8.85237 12.872 8.54037 12.9334C8.22836 12.9939 7.89715 13.0246 7.54674 13.0246L7.54482 13.0266Z" fill="currentColor"/>
</svg>
