<svg viewBox="0 0 20 20" fill="currentColor" xmlns="http://www.w3.org/2000/svg">
<path d="M6.49917 9.47419C6.94557 9.47419 7.37564 9.40508 7.78268 9.27836C8.0582 9.01436 8.35292 8.76284 8.663 8.52956C9.09212 8.20796 9.55579 7.9094 10.0473 7.64924C10.6425 6.84573 10.9987 5.83485 10.9987 4.73662C10.9987 2.12063 8.98364 0 6.49917 0C4.01374 0 1.99967 2.12063 1.99967 4.73662C1.99967 7.3526 4.0147 9.47323 6.49917 9.47323V9.47419ZM13.75 8.9174C10.3824 8.9174 7.50044 12.4905 7.50044 13.6041C7.50044 14.7705 9.71611 18.2918 13.75 18.2918C17.7839 18.2918 19.9996 14.7705 19.9996 13.6041C19.9996 12.4905 17.1177 8.9174 13.75 8.9174ZM13.75 15.6134C13.3795 15.6134 13.0175 15.4962 12.7084 15.2754C12.4012 15.0546 12.1593 14.7407 12.0182 14.374C11.8771 14.0073 11.8396 13.6022 11.9126 13.2134C11.9846 12.8236 12.1631 12.4665 12.4262 12.1843C12.6873 11.9039 13.0223 11.7119 13.3862 11.6342C13.7491 11.5564 14.1263 11.5967 14.4691 11.7484C14.8118 11.9011 15.1046 12.1583 15.31 12.4876C15.5164 12.8179 15.6268 13.2067 15.6268 13.6041C15.6268 14.1369 15.429 14.6476 15.0767 15.0249C14.7254 15.4022 14.2492 15.6134 13.7519 15.6134H13.75ZM6.66909 10.5273H4.99966C3.6739 10.5292 2.40383 11.0841 1.46591 12.071C0.528957 13.0569 0.00191999 14.3951 0 15.79V18.9474C0 19.2277 0.104639 19.4946 0.292799 19.6924C0.479998 19.8901 0.735356 20.0005 1.00032 20.0005H10.7385C9.87931 19.6837 9.11612 19.2489 8.45468 18.7526C6.36477 17.1849 5.26078 14.7734 5.26078 13.6051C5.26078 12.8793 5.78301 11.6918 6.66909 10.5273Z" fill="currentColor"/>
</svg>
