<svg viewBox="0 0 20 20" fill="white" xmlns="http://www.w3.org/2000/svg">
<path fill-rule="evenodd" clip-rule="evenodd" d="M17.1297 1.00034H13.7917C13.6141 0.697937 13.3587 0.445451 13.0505 0.269766C12.7433 0.0940822 12.3929 0.000960023 12.0377 0H7.96336C7.60719 0.000960023 7.25774 0.0940822 6.95053 0.269766C6.64333 0.445451 6.387 0.696977 6.21036 1.00034H2.8714C2.3309 1.00034 1.81345 1.21155 1.43136 1.58596C1.04927 1.96133 0.834229 2.47014 0.834229 3.00007V18.0004C0.834229 18.5304 1.04927 19.0392 1.43136 19.4145C1.81345 19.7899 2.33186 20.0002 2.8714 20.0002H17.1306C17.6711 20.0002 18.1895 19.7899 18.5716 19.4145C18.9537 19.0392 19.1678 18.5313 19.1678 18.0004V3.00007C19.1678 2.47014 18.9537 1.96133 18.5716 1.58596C18.1895 1.21059 17.6711 1.00034 17.1306 1.00034H17.1297ZM10.0005 7.26833C9.09235 7.26833 8.20624 7.53714 7.45167 8.04115C6.69613 8.54517 6.10955 9.2623 5.76203 10.1004C5.4145 10.9385 5.3233 11.8611 5.5009 12.751C5.67754 13.641 6.11435 14.4579 6.75661 15.1002C7.39791 15.7415 8.21584 16.1793 9.10579 16.3559C9.99573 16.5335 10.9183 16.4423 11.7564 16.0948C12.5945 15.7473 13.3116 15.1597 13.8157 14.4051C14.3197 13.6506 14.5885 12.7645 14.5885 11.8563C14.5875 10.6399 14.1027 9.47351 13.2435 8.61333C12.3833 7.75315 11.2169 7.26929 10.0005 7.26833ZM11.8275 13.6832C11.742 13.7696 11.6249 13.8176 11.503 13.8176C11.381 13.8176 11.2649 13.7696 11.1785 13.6832L9.67604 12.1808C9.5906 12.0944 9.54164 11.9782 9.54068 11.8563V10.0217C9.54068 9.89976 9.58964 9.7836 9.67508 9.69719C9.76052 9.61079 9.87764 9.56279 9.99957 9.56279C10.1205 9.56279 10.2377 9.61079 10.3241 9.69719C10.4095 9.78263 10.4585 9.89976 10.4585 10.0217V11.6672L11.8265 13.0352C11.9129 13.1216 11.9609 13.2378 11.9609 13.3597C11.9609 13.4816 11.9129 13.5978 11.8265 13.6842L11.8275 13.6832ZM7.96336 2.00069H12.0377V4.00042H7.96336V2.00069Z" fill="currentColor"/>
</svg>
