<svg width="20" height="21" viewBox="0 0 20 21" fill="none" xmlns="http://www.w3.org/2000/svg">
<g clip-path="url(#clip0_2705_35660)">
<mask id="mask0_2705_35660" style="mask-type:alpha" maskUnits="userSpaceOnUse" x="0" y="0" width="20" height="21">
<rect y="0.5" width="20" height="20" fill="white"/>
</mask>
<g mask="url(#mask0_2705_35660)">
<path d="M10 15.5C12.7614 15.5 15 13.2614 15 10.5C15 7.73858 12.7614 5.5 10 5.5C7.23858 5.5 5 7.73858 5 10.5C5 13.2614 7.23858 15.5 10 15.5Z" fill="#A3A3A3"/>
<path d="M10 4.5C10.2652 4.5 10.5196 4.39464 10.7071 4.20711C10.8946 4.01957 11 3.76522 11 3.5V1.5C11 1.23478 10.8946 0.98043 10.7071 0.792893C10.5196 0.605357 10.2652 0.5 10 0.5C9.73478 0.5 9.48043 0.605357 9.29289 0.792893C9.10536 0.98043 9 1.23478 9 1.5V3.5C9 3.76522 9.10536 4.01957 9.29289 4.20711C9.48043 4.39464 9.73478 4.5 10 4.5Z" fill="#A3A3A3"/>
<path d="M10 16.5C9.73478 16.5 9.48043 16.6054 9.29289 16.7929C9.10536 16.9804 9 17.2348 9 17.5V19.5C9 19.7652 9.10536 20.0196 9.29289 20.2071C9.48043 20.3946 9.73478 20.5 10 20.5C10.2652 20.5 10.5196 20.3946 10.7071 20.2071C10.8946 20.0196 11 19.7652 11 19.5V17.5C11 17.2348 10.8946 16.9804 10.7071 16.7929C10.5196 16.6054 10.2652 16.5 10 16.5Z" fill="#A3A3A3"/>
<path d="M4.343 6.257C4.5316 6.43916 4.7842 6.53995 5.0464 6.53767C5.3086 6.5354 5.55941 6.43023 5.74482 6.24482C5.93023 6.05941 6.0354 5.8086 6.03767 5.5464C6.03995 5.2842 5.93916 5.0316 5.757 4.843L4.343 3.429C4.1544 3.24684 3.9018 3.14605 3.6396 3.14833C3.3774 3.1506 3.12659 3.25577 2.94118 3.44118C2.75577 3.62659 2.6506 3.8774 2.64833 4.1396C2.64605 4.4018 2.74684 4.6544 2.929 4.843L4.343 6.257Z" fill="#A3A3A3"/>
<path d="M15.657 14.743C15.4684 14.5608 15.2158 14.46 14.9536 14.4623C14.6914 14.4646 14.4406 14.5698 14.2552 14.7552C14.0698 14.9406 13.9646 15.1914 13.9623 15.4536C13.96 15.7158 14.0608 15.9684 14.243 16.157L15.657 17.571C15.8456 17.7532 16.0982 17.854 16.3604 17.8517C16.6226 17.8494 16.8734 17.7442 17.0588 17.5588C17.2442 17.3734 17.3494 17.1226 17.3517 16.8604C17.354 16.5982 17.2532 16.3456 17.071 16.157L15.657 14.743Z" fill="#A3A3A3"/>
<path d="M4 10.5C4 10.2348 3.89464 9.98043 3.70711 9.79289C3.51957 9.60536 3.26522 9.5 3 9.5H1C0.734784 9.5 0.48043 9.60536 0.292893 9.79289C0.105357 9.98043 0 10.2348 0 10.5C0 10.7652 0.105357 11.0196 0.292893 11.2071C0.48043 11.3946 0.734784 11.5 1 11.5H3C3.26522 11.5 3.51957 11.3946 3.70711 11.2071C3.89464 11.0196 4 10.7652 4 10.5Z" fill="#A3A3A3"/>
<path d="M19 9.5H17C16.7348 9.5 16.4804 9.60536 16.2929 9.79289C16.1054 9.98043 16 10.2348 16 10.5C16 10.7652 16.1054 11.0196 16.2929 11.2071C16.4804 11.3946 16.7348 11.5 17 11.5H19C19.2652 11.5 19.5196 11.3946 19.7071 11.2071C19.8946 11.0196 20 10.7652 20 10.5C20 10.2348 19.8946 9.98043 19.7071 9.79289C19.5196 9.60536 19.2652 9.5 19 9.5Z" fill="#A3A3A3"/>
<path d="M4.343 14.743L2.929 16.157C2.83349 16.2492 2.75731 16.3596 2.7049 16.4816C2.65249 16.6036 2.6249 16.7348 2.62375 16.8676C2.6226 17.0004 2.6479 17.1321 2.69818 17.255C2.74846 17.3778 2.82271 17.4895 2.9166 17.5834C3.0105 17.6773 3.12215 17.7515 3.24505 17.8018C3.36794 17.8521 3.49962 17.8774 3.6324 17.8763C3.76518 17.8751 3.8964 17.8475 4.0184 17.7951C4.14041 17.7427 4.25075 17.6665 4.343 17.571L5.757 16.157C5.93916 15.9684 6.03995 15.7158 6.03767 15.4536C6.0354 15.1914 5.93023 14.9406 5.74482 14.7552C5.55941 14.5698 5.3086 14.4646 5.0464 14.4623C4.7842 14.46 4.5316 14.5608 4.343 14.743Z" fill="#A3A3A3"/>
<path d="M14.95 6.55C15.2152 6.54994 15.4695 6.44455 15.657 6.257L17.071 4.843C17.1665 4.75075 17.2427 4.64041 17.2951 4.5184C17.3475 4.3964 17.3751 4.26518 17.3763 4.1324C17.3774 3.99962 17.3521 3.86794 17.3018 3.74505C17.2515 3.62215 17.1773 3.5105 17.0834 3.4166C16.9895 3.32271 16.8778 3.24846 16.755 3.19818C16.6321 3.1479 16.5004 3.1226 16.3676 3.12375C16.2348 3.1249 16.1036 3.15249 15.9816 3.2049C15.8596 3.25731 15.7492 3.33349 15.657 3.429L14.243 4.843C14.1032 4.98285 14.008 5.16102 13.9694 5.35497C13.9308 5.54892 13.9507 5.74995 14.0263 5.93265C14.102 6.11535 14.2301 6.27152 14.3945 6.3814C14.559 6.49129 14.7523 6.54996 14.95 6.55Z" fill="#A3A3A3"/>
</g>
</g>
<defs>
<clipPath id="clip0_2705_35660">
<rect width="20" height="20" fill="white" transform="translate(0 0.5)"/>
</clipPath>
</defs>
</svg>
