<svg width="158" height="158" viewBox="0 0 158 158" fill="none" xmlns="http://www.w3.org/2000/svg">
<rect width="158" height="158" rx="8" fill="currentColor"/>
<path d="M31 39C31 34.5817 34.5817 31 39 31H119C123.418 31 127 34.5817 127 39V119C127 123.418 123.418 127 119 127H39C34.5817 127 31 123.418 31 119V39Z" fill="currentColor"/>
 
<path d="M101.4 53.332H56.6C55.1148 53.332 53.6904 53.933 52.6402 55.0026C51.59 56.0723 51 57.523 51 59.0357V98.9617C51 100.474 51.59 101.925 52.6402 102.995C53.6904 104.064 55.1148 104.665 56.6 104.665H101.4C102.885 104.665 104.31 104.064 105.36 102.995C106.41 101.925 107 100.474 107 98.9617V59.0357C107 57.523 106.41 56.0723 105.36 55.0026C104.31 53.933 102.885 53.332 101.4 53.332ZM86 64.7394C86.8307 64.7394 87.6427 64.9903 88.3334 65.4604C89.0241 65.9304 89.5624 66.5985 89.8803 67.3802C90.1982 68.1618 90.2814 69.022 90.1193 69.8518C89.9572 70.6816 89.5572 71.4438 88.9698 72.0421C88.3825 72.6403 87.6341 73.0477 86.8194 73.2128C86.0047 73.3779 85.1602 73.2931 84.3927 72.9694C83.6253 72.6456 82.9693 72.0973 82.5078 71.3938C82.0463 70.6903 81.8 69.8633 81.8 69.0172C81.8 67.8827 82.2425 66.7946 83.0302 65.9924C83.8178 65.1901 84.8861 64.7394 86 64.7394ZM98.2528 94.6297C98.0116 95.0775 97.6567 95.4512 97.2252 95.7115C96.7937 95.9719 96.3015 96.1094 95.8 96.1098H62.2C61.7227 96.11 61.2532 95.986 60.8362 95.7494C60.4192 95.5128 60.0685 95.1716 59.8174 94.7581C59.5663 94.3447 59.4232 93.8727 59.4016 93.387C59.38 92.9013 59.4806 92.4181 59.694 91.9832L69.494 72.0202C69.7196 71.5597 70.0633 71.17 70.4887 70.8924C70.9141 70.6147 71.4054 70.4595 71.9104 70.4431C72.4198 70.4143 72.9267 70.5329 73.3727 70.7852C73.8187 71.0376 74.1854 71.4133 74.4304 71.8691L82.2004 85.4353L86.5292 80.0539C86.8104 79.7051 87.1688 79.4292 87.575 79.249C87.9813 79.0688 88.4237 78.9893 88.866 79.0171C89.3082 79.045 89.7377 79.1793 90.119 79.4091C90.5004 79.6389 90.8227 79.9577 91.0596 80.3391L98.1744 91.7465C98.4379 92.1766 98.5841 92.6705 98.5979 93.1772C98.6116 93.684 98.4925 94.1854 98.2528 94.6297Z" fill="#737373"/>
 
</svg>
