<svg width="49" height="48" viewBox="0 0 49 48" fill="none" xmlns="http://www.w3.org/2000/svg">
<path d="M0.5 8C0.5 3.58172 4.08172 0 8.5 0H40.5C44.9183 0 48.5 3.58172 48.5 8V40C48.5 44.4183 44.9183 48 40.5 48H8.5C4.08172 48 0.5 44.4183 0.5 40V8Z" fill="#F87171"/>
<g clip-path="url(#clip0_2511_4853)">
<mask id="mask0_2511_4853" style="mask-type:alpha" maskUnits="userSpaceOnUse" x="12" y="12" width="25" height="24">
<rect x="12.5" y="12" width="24" height="24" fill="white"/>
</mask>
<g mask="url(#mask0_2511_4853)">
<path d="M24.5 27.6045L35.4992 19.882L25.94 13.4504C25.5279 13.1606 25.027 13.0027 24.5116 13C23.9961 12.9974 23.4935 13.1502 23.078 13.4358L13.5008 19.882L24.5 27.6045Z" fill="#F87171"/>
<path d="M25.94 29.402C25.5239 29.6923 25.0189 29.8491 24.5 29.8491C23.9811 29.8491 23.4761 29.6923 23.06 29.402L12.5 21.9873V32.7531C12.5 33.349 12.7529 33.9205 13.2029 34.3419C13.653 34.7633 14.2635 35 14.9 35H34.1C34.7365 35 35.347 34.7633 35.7971 34.3419C36.2471 33.9205 36.5 33.349 36.5 32.7531V21.9873L25.94 29.402Z" fill="#F87171"/>
</g>
</g>
<defs>
<clipPath id="clip0_2511_4853">
<rect width="24" height="24" fill="white" transform="translate(12.5 12)"/>
</clipPath>
</defs>
</svg>
