<svg viewBox="0 0 96 96" fill="currentColor" xmlns="http://www.w3.org/2000/svg">
<path d="M0 8C0 3.58172 3.58172 0 8 0H88C92.4183 0 96 3.58172 96 8V88C96 92.4183 92.4183 96 88 96H8C3.58172 96 0 92.4183 0 88V8Z" fill="currentColor"/>
<g clip-path="url(#clip0_2510_676)">
<mask id="mask0_2510_676" style="mask-type:alpha" maskUnits="userSpaceOnUse" x="20" y="20">
<rect x="20" y="20" fill="currentColor"/>
</mask>
<g mask="url(#mask0_2510_676)">
<path d="M48 56.4105L73.6648 38.3914L51.36 23.3843C50.3984 22.708 49.2297 22.3395 48.027 22.3334C46.8243 22.3273 45.6514 22.6838 44.682 23.3502L22.3352 38.3914L48 56.4105Z" fill="currentColor"/>
<path d="M51.36 60.6046C50.3892 61.282 49.2108 61.6479 48 61.6479C46.7892 61.6479 45.6108 61.282 44.64 60.6046L20 43.3038V68.424C20 69.8144 20.59 71.1479 21.6402 72.1311C22.6904 73.1143 24.1148 73.6667 25.6 73.6667H70.4C71.8852 73.6667 73.3096 73.1143 74.3598 72.1311C75.41 71.1479 76 69.8144 76 68.424V43.3038L51.36 60.6046Z" fill="currentColor"/>
</g>
</g>
<defs>
<clipPath id="clip0_2510_676">
<rect fill="currentColor" transform="translate(20 20)"/>
</clipPath>
</defs>
</svg>
