<svg viewBox="0 0 14 15" fill="currentColor" xmlns="http://www.w3.org/2000/svg">
<path d="M10.5931 8.26031V6.93402C10.5936 6.03761 10.3068 5.16725 9.77911 4.46366C9.25144 3.76008 8.51374 3.26441 7.6853 3.05681C7.69161 3.03109 7.69652 3.00501 7.7 2.9787V1.23683C7.7 1.04141 7.62625 0.853996 7.49497 0.715813C7.3637 0.57763 7.18565 0.5 7 0.5C6.81435 0.5 6.6363 0.57763 6.50503 0.715813C6.37375 0.853996 6.3 1.04141 6.3 1.23683V2.9787C6.30348 3.00501 6.30839 3.03109 6.3147 3.05681C5.48626 3.26441 4.74856 3.76008 4.22089 4.46366C3.69322 5.16725 3.40643 6.03761 3.4069 6.93402V8.26031C3.4069 10.0184 2.1 10.4575 2.1 11.3366C2.1 11.7735 2.1 12.2156 2.4766 12.2156H11.5234C11.9 12.2156 11.9 11.7735 11.9 11.3366C11.9 10.4575 10.5931 10.0184 10.5931 8.26031Z" fill="currentColor"/>
<path d="M2.8 3.37365C2.61437 3.37361 2.43635 3.29595 2.3051 3.15776L1.6051 2.42092C1.47759 2.28196 1.40704 2.09583 1.40863 1.90264C1.41023 1.70944 1.48384 1.52463 1.61363 1.38802C1.74341 1.2514 1.91898 1.17391 2.10252 1.17223C2.28606 1.17056 2.46288 1.24482 2.5949 1.37904L3.2949 2.11588C3.39277 2.21892 3.45941 2.3502 3.48641 2.49311C3.51341 2.63602 3.49955 2.78415 3.44658 2.91877C3.39361 3.05339 3.30391 3.16845 3.18882 3.24942C3.07374 3.33039 2.93843 3.37362 2.8 3.37365Z" fill="currentColor"/>
<path d="M1.4 6.32097H0.7C0.514348 6.32097 0.336301 6.24334 0.205025 6.10515C0.0737498 5.96697 0 5.77956 0 5.58414C0 5.38872 0.0737498 5.2013 0.205025 5.06312C0.336301 4.92493 0.514348 4.8473 0.7 4.8473H1.4C1.58565 4.8473 1.7637 4.92493 1.89497 5.06312C2.02625 5.2013 2.1 5.38872 2.1 5.58414C2.1 5.77956 2.02625 5.96697 1.89497 6.10515C1.7637 6.24334 1.58565 6.32097 1.4 6.32097Z" fill="currentColor"/>
<path d="M11.2 3.37364C11.0616 3.37361 10.9263 3.33038 10.8112 3.24941C10.6961 3.16845 10.6064 3.05338 10.5534 2.91876C10.5005 2.78414 10.4866 2.63602 10.5136 2.49311C10.5406 2.3502 10.6072 2.21892 10.7051 2.11587L11.4051 1.37904C11.4697 1.30866 11.5469 1.25253 11.6323 1.21391C11.7177 1.1753 11.8096 1.15497 11.9025 1.15412C11.9955 1.15327 12.0876 1.17191 12.1737 1.20896C12.2597 1.24601 12.3379 1.30072 12.4036 1.36991C12.4693 1.43909 12.5213 1.52136 12.5565 1.61191C12.5917 1.70247 12.6094 1.79949 12.6086 1.89733C12.6078 1.99516 12.5885 2.09185 12.5518 2.18175C12.5151 2.27164 12.4618 2.35295 12.3949 2.42092L11.6949 3.15775C11.5637 3.29594 11.3856 3.3736 11.2 3.37364Z" fill="currentColor"/>
<path d="M13.3 6.32097H12.6C12.4143 6.32097 12.2363 6.24334 12.105 6.10515C11.9737 5.96697 11.9 5.77956 11.9 5.58414C11.9 5.38872 11.9737 5.2013 12.105 5.06312C12.2363 4.92493 12.4143 4.8473 12.6 4.8473H13.3C13.4857 4.8473 13.6637 4.92493 13.795 5.06312C13.9263 5.2013 14 5.38872 14 5.58414C14 5.77956 13.9263 5.96697 13.795 6.10515C13.6637 6.24334 13.4857 6.32097 13.3 6.32097Z" fill="currentColor"/>
<path d="M4.7761 12.9525C4.96179 13.4115 5.27162 13.803 5.66703 14.0781C6.06245 14.3533 6.52599 14.5 7 14.5C7.47401 14.5 7.93755 14.3533 8.33296 14.0781C8.72838 13.803 9.03821 13.4115 9.2239 12.9525H4.7761Z" fill="currentColor"/>
</svg>
