<svg viewBox="0 0 20 20" fill="currentColor"
    xmlns="http://www.w3.org/2000/svg">
    <g clip-path="url(#clip0_9378_30230)">
        <mask id="mask0_9378_30230" style="mask-type:alpha" maskUnits="userSpaceOnUse" x="0" y="0">
            <rect fill="currentColor"/>
        </mask>
        <g mask="url(#mask0_9378_30230)">
            <path d="M5.3985 1.73634L8.82745 5.16528C9.24744 5.06228 9.68044 4.99228 10.1334 5.00128C10.4974 5.01128 10.8494 5.06428 11.1894 5.14828L14.6024 1.73534C14.7384 1.59935 14.8924 1.48835 15.0534 1.39135C13.6444 0.557365 12.0174 0.0503744 10.2674 0.00237529C8.32246 -0.0396239 6.50349 0.477366 4.94651 1.39235C5.10851 1.48935 5.26251 1.60035 5.3985 1.73634Z" fill="currentColor"/>
            <path d="M16.8513 3.27631L16.7243 3.14932C16.5963 3.02132 16.4483 3.00332 16.3703 3.00332C16.2923 3.00332 16.1443 3.02232 16.0173 3.14932L13.0854 6.08226C13.1144 6.10526 13.1344 6.13626 13.1634 6.15926C13.4004 6.35526 13.6174 6.56825 13.8154 6.80425C13.8484 6.84325 13.8924 6.87225 13.9244 6.91225L16.8513 3.9853C17.0453 3.7883 17.0453 3.47231 16.8513 3.27631Z" fill="currentColor"/>
            <path d="M13.9194 13.0861C13.8954 13.1161 13.8624 13.1381 13.8384 13.1681C13.6464 13.4001 13.4364 13.6131 13.2064 13.8071C13.1644 13.8431 13.1334 13.8901 13.0904 13.9241L16.0173 16.8511C16.1453 16.9791 16.2933 16.9971 16.3713 16.9971C16.4493 16.9971 16.5973 16.9781 16.7253 16.8511L16.8523 16.7241C16.9803 16.5961 16.9983 16.4481 16.9983 16.3701C16.9983 16.2921 16.9793 16.1441 16.8523 16.0161L13.9194 13.0861Z" fill="currentColor"/>
            <path d="M12.4774 8.32322C12.1414 7.83523 11.6614 7.44624 11.0934 7.22124C11.0894 7.21924 11.0864 7.21624 11.0814 7.21524C10.7684 7.09324 10.4344 7.01124 10.0794 7.00224C10.0544 7.00024 10.0264 7.00024 10.0004 7.00024C9.60544 7.00024 9.22844 7.07924 8.88145 7.22024C8.13046 7.52223 7.52647 8.13522 7.22148 8.90721C7.21948 8.91321 7.21548 8.91721 7.21248 8.92321C7.09148 9.2352 7.01048 9.56819 7.00148 9.92119C6.99048 10.3472 7.07148 10.7542 7.22248 11.1262C7.29548 11.3052 7.38347 11.4772 7.48947 11.6372C7.49847 11.6512 7.51147 11.6632 7.52147 11.6782C7.85747 12.1671 8.33746 12.5561 8.90645 12.7811C8.91045 12.7831 8.91345 12.7861 8.91745 12.7871C9.23044 12.9091 9.56444 12.9911 9.91943 13.0011C10.3234 13.0171 10.7124 12.9461 11.0694 12.8091C11.0804 12.8041 11.0904 12.7961 11.1014 12.7911C11.8604 12.4911 12.4704 11.8732 12.7784 11.0962C12.7794 11.0942 12.7814 11.0922 12.7814 11.0902C12.9054 10.7752 12.9884 10.4392 12.9974 10.0832C13.0084 9.65819 12.9284 9.2532 12.7784 8.88221C12.7054 8.70121 12.6154 8.52921 12.5094 8.36722C12.5004 8.35022 12.4874 8.33722 12.4774 8.32322Z" fill="currentColor"/>
            <path d="M18.6143 4.95028C18.5143 5.10928 18.4013 5.26128 18.2653 5.39727L14.8394 8.82321C14.9424 9.2452 15.0114 9.67919 14.9994 10.1332C14.9894 10.4972 14.9354 10.8492 14.8514 11.1882L18.2643 14.6011C18.4003 14.7371 18.5133 14.8881 18.6113 15.0451C19.4433 13.6381 19.9493 12.0141 19.9963 10.2672V10.2662C20.0493 8.32922 19.5333 6.50925 18.6143 4.95028Z" fill="currentColor"/>
            <path d="M14.6024 18.264L11.1814 14.8431C10.8004 14.9361 10.4094 15.0001 10.0014 15.0001C9.95643 15.0001 9.91143 15.0001 9.86644 14.9991C9.50244 14.9891 9.15045 14.9361 8.81045 14.8521L5.3975 18.265C5.26251 18.4 5.11151 18.513 4.95251 18.613C6.36049 19.445 7.98446 19.951 9.73244 19.998C9.82344 19.999 9.91343 20 10.0034 20C11.8404 20 13.5614 19.488 15.0474 18.612C14.8884 18.512 14.7374 18.399 14.6024 18.264Z" fill="currentColor"/>
            <path d="M1.73556 14.6031L5.16151 11.1772C5.05851 10.7552 4.98951 10.3212 5.00151 9.86719C5.01151 9.5032 5.06451 9.1512 5.14851 8.81121L1.73556 5.39727C1.59856 5.26028 1.48556 5.10828 1.38656 4.95028C0.555578 6.35726 0.0505856 7.98123 0.00358635 9.73219C-0.0484128 11.6702 0.467579 13.4901 1.38656 15.0501C1.48656 14.8911 1.59956 14.7391 1.73556 14.6031Z" fill="currentColor"/>
            <path d="M6.83648 13.8421C6.59949 13.6461 6.38249 13.4331 6.18449 13.1971C6.15149 13.1581 6.10749 13.1291 6.07549 13.0891L3.14854 16.0161C2.95454 16.2111 2.95454 16.5281 3.14854 16.7231L3.27554 16.8501C3.40353 16.9781 3.55153 16.9961 3.62953 16.9961C3.70753 16.9961 3.85553 16.9771 3.98252 16.8501L6.91448 13.9171C6.88548 13.8961 6.86548 13.8651 6.83648 13.8421Z" fill="currentColor"/>
            <path d="M6.08149 6.91425C6.11049 6.87725 6.15049 6.85125 6.17949 6.81525C6.36449 6.59525 6.56249 6.39126 6.78248 6.20626C6.82848 6.16626 6.86348 6.11426 6.91048 6.07726L3.98353 3.14932C3.85553 3.02132 3.70753 3.00332 3.63053 3.00332C3.55353 3.00332 3.40453 3.02132 3.27654 3.14932L3.14954 3.27631C3.02154 3.40431 3.00354 3.55331 3.00354 3.63031C3.00354 3.70731 3.02254 3.8563 3.14954 3.9843L6.08149 6.91425Z" fill="currentColor"/>
        </g>
    </g>
</svg>
