<svg viewBox="0 0 20 20" fill="none" xmlns="http://www.w3.org/2000/svg">

<path d="M18.8889 0.833252H1.11111C0.497461 0.833252 0 1.31608 0 1.91168V4.06855C0 4.66415 0.497461 5.14698 1.11111 5.14698H18.8889C19.5025 5.14698 20 4.66415 20 4.06855V1.91168C20 1.31608 19.5025 0.833252 18.8889 0.833252Z" fill="currentColor"/>
<path d="M1.11111 7.30384V17.0097C1.11111 17.5818 1.34524 18.1304 1.76198 18.5349C2.17873 18.9393 2.74396 19.1666 3.33333 19.1666H16.6667C17.256 19.1666 17.8213 18.9393 18.238 18.5349C18.6548 18.1304 18.8889 17.5818 18.8889 17.0097V7.30384H1.11111ZM13.3333 10.5391C13.3333 10.8252 13.2163 11.0995 13.0079 11.3017C12.7995 11.5039 12.5169 11.6176 12.2222 11.6176H7.77778C7.48309 11.6176 7.20048 11.5039 6.9921 11.3017C6.78373 11.0995 6.66667 10.8252 6.66667 10.5391V9.4607C6.66667 9.17469 6.78373 8.90038 6.9921 8.69814C7.20048 8.49589 7.48309 8.38227 7.77778 8.38227C8.07246 8.38227 8.35508 8.49589 8.56345 8.69814C8.77183 8.90038 8.88889 9.17469 8.88889 9.4607H11.1111C11.1111 9.17469 11.2282 8.90038 11.4365 8.69814C11.6449 8.49589 11.9275 8.38227 12.2222 8.38227C12.5169 8.38227 12.7995 8.49589 13.0079 8.69814C13.2163 8.90038 13.3333 9.17469 13.3333 9.4607V10.5391Z" fill="currentColor"/>

</svg>
