<svg viewBox="0 0 24 24" fill="currentColor" xmlns="http://www.w3.org/2000/svg">
<path d="M16.6033 9.09136L16.5973 9.09976L8.03246 17.6654L10.5994 20.2314L19.1714 11.6597L16.6033 9.09136Z" fill="currentColor"/>
<path d="M3.76745 13.4L6.33438 15.9684L14.9004 7.40271L14.9088 7.39671L12.3395 4.82712L3.76745 13.4Z" fill="currentColor"/>
<path d="M2.39458 15.4211L0.0616657 22.4194C-0.0823415 22.8502 0.0304639 23.3267 0.35208 23.6471C0.580091 23.8764 0.887306 24 1.20052 24C1.32773 24 1.45613 23.9796 1.57974 23.9376L8.57729 21.6044L2.39458 15.4211Z" fill="currentColor"/>
<path d="M22.5868 1.41141C20.7039 -0.470471 17.6389 -0.470471 15.756 1.41141L14.0376 3.13007L20.8695 9.96269L22.588 8.24404C24.4709 6.36095 24.4709 3.29449 22.5868 1.41141Z" fill="currentColor"/>
</svg>
