<svg viewBox="0 0 15 14" fill="currentColor" xmlns="http://www.w3.org/2000/svg">

<path d="M7.01984 9.16067C7.34526 9.48503 7.78602 9.66717 8.24552 9.66717C8.70501 9.66717 9.14577 9.48503 9.47119 9.16067L10.084 8.54793C10.4095 8.22357 10.8502 8.04144 11.3097 8.04144C11.7692 8.04144 12.21 8.22357 12.5354 8.54793L13.7611 9.77342C13.9403 9.92344 14.0844 10.1109 14.1832 10.3227C14.2821 10.5344 14.3334 10.7652 14.3334 10.9989C14.3334 11.2326 14.2821 11.4634 14.1832 11.6752C14.0844 11.8869 13.9403 12.0744 13.7611 12.2244C10.5515 15.4343 6.857 13.9095 3.63784 10.6908C0.418686 7.47212 -1.09853 3.78164 2.11187 0.571733C2.262 0.392706 2.44954 0.248741 2.6613 0.149964C2.87305 0.0511883 3.10388 0 3.33755 0C3.57122 0 3.80205 0.0511883 4.0138 0.149964C4.22556 0.248741 4.4131 0.392706 4.56323 0.571733L5.78891 1.79722C6.11353 2.12248 6.29584 2.56322 6.29584 3.02272C6.29584 3.48221 6.11353 3.92295 5.78891 4.24821L5.17607 4.86095C4.85145 5.18621 4.66914 5.62694 4.66914 6.08644C4.66914 6.54594 4.85145 6.98668 5.17607 7.31193L7.01984 9.16067Z" fill="currentColor"/>

</svg>
