<svg viewBox="0 0 20 20" fill="currentColor" xmlns="http://www.w3.org/2000/svg">
<g clip-path="url(#clip0_7501_22336)">
<mask id="mask0_7501_22336" style="mask-type:alpha" maskUnits="userSpaceOnUse" x="0" y="0">
<rect fill="currentColor"/>
</mask>
<g mask="url(#mask0_7501_22336)">
<path d="M5.68948 1.15004C6.99017 0.396289 8.48092 -0.00142066 10.0002 3.81312e-06C11.5028 9.06579e-05 12.9774 0.390148 14.2679 1.12889C15.5585 1.86763 16.6169 2.92758 17.3313 4.19653C18.0457 5.46549 18.3894 6.89624 18.326 8.33736C18.2626 9.77848 17.7946 11.1763 16.9714 12.383C16.9373 12.4518 16.8947 12.5162 16.8443 12.575L16.712 12.73C16.5258 12.9745 16.3247 13.2082 16.1099 13.43L10.8055 19.635C10.7077 19.7492 10.5848 19.8411 10.4455 19.9043C10.3063 19.9674 10.1542 20.0001 10.0002 20C9.84668 20.0003 9.69495 19.968 9.55592 19.9054C9.41689 19.8428 9.294 19.7515 9.19603 19.638L3.73226 13.264C3.62913 13.149 3.50933 13.009 3.39266 12.864L3.26766 12.718C3.21914 12.6616 3.17722 12.6002 3.14265 12.535C2.27901 11.3351 1.77388 9.93116 1.68199 8.47535C1.5901 7.01954 1.91496 5.56735 2.62137 4.27611C3.32777 2.98486 4.3888 1.9038 5.68948 1.15004Z" fill="currentColor"/>
<path d="M10.545 3.647C11.507 4.122 12.256 4.492 13.281 3.993C13.3573 3.95585 13.4417 3.9387 13.5265 3.94319C13.6112 3.94768 13.6934 3.97365 13.7653 4.01866C13.8372 4.06367 13.8965 4.12623 13.9375 4.20047C13.9786 4.2747 14.0001 4.35817 14 4.443V9.213C14.0001 9.30682 13.9738 9.39877 13.9241 9.47835C13.8744 9.55792 13.8033 9.62191 13.719 9.663C12.2285 10.388 11.028 9.783 10.094 9.3125C9.9908 9.25991 9.88713 9.20824 9.783 9.1575C9.2665 8.909 8.8395 8.7515 8.405 8.7725C8.025 8.7905 7.569 8.951 7 9.4705V12.5C7 12.6326 6.94732 12.7598 6.85355 12.8536C6.75979 12.9473 6.63261 13 6.5 13C6.36739 13 6.24021 12.9473 6.14645 12.8536C6.05268 12.7598 6 12.6326 6 12.5V4.4855C6.00008 4.41946 6.01324 4.35408 6.03873 4.29315C6.06422 4.23221 6.10153 4.17694 6.1485 4.1305C6.9095 3.3775 7.632 3.038 8.357 3.003C9.0605 2.969 9.6835 3.2295 10.217 3.4865C10.3295 3.5405 10.4385 3.5945 10.5445 3.6465L10.545 3.647Z" fill="currentColor"/>
</g>
</g>
<defs>
<clipPath id="clip0_7501_22336">
<rect fill="currentColor"/>
</clipPath>
</defs>
</svg>
