<svg viewBox="0 0 20 20" fill="none" xmlns="http://www.w3.org/2000/svg">
<path fill-rule="evenodd" clip-rule="evenodd" d="M17.9366 0H2.06303C0.924476 0 0 0.924476 0 2.06303V17.9375C0 19.0761 0.924476 20.0005 2.06303 20.0005H17.9366C19.0761 20.0005 19.9996 19.0761 19.9996 17.9375V2.06303C19.9996 0.923516 19.0751 0 17.9366 0ZM9.99931 2.06399C8.79356 2.06207 7.60988 2.37887 6.57789 2.97599C5.54685 3.57406 4.70398 4.4323 4.14334 5.45757C3.5827 6.48285 3.32542 7.63484 3.39838 8.79068C3.47134 9.94651 3.87262 11.0601 4.5571 12.0124C4.5859 12.0643 4.61854 12.1132 4.65694 12.1574L4.75678 12.2735C4.84894 12.3887 4.94494 12.5001 5.02654 12.5913L9.3638 17.6505C9.44156 17.7407 9.53947 17.8127 9.64987 17.8626C9.76027 17.9126 9.87931 17.9375 10.0022 17.9375C10.1251 17.9375 10.2451 17.9116 10.3555 17.8617C10.4668 17.8118 10.5638 17.7388 10.6415 17.6486L14.8521 12.7228C15.022 12.5471 15.1823 12.3619 15.3302 12.167L15.4348 12.0441C15.4742 11.9971 15.5087 11.9462 15.5356 11.8915C16.1884 10.9334 16.5599 9.82363 16.6108 8.68028C16.6607 7.53692 16.3871 6.40125 15.8207 5.39421C15.2543 4.38718 14.4134 3.54526 13.39 2.95871C12.3657 2.37215 11.1955 2.06303 10.0022 2.06303L9.99931 2.06399ZM9.99931 6.03165C10.4899 6.03165 10.9699 6.17181 11.3779 6.43293C11.7859 6.69501 12.1036 7.06653 12.2908 7.5014C12.479 7.93628 12.5279 8.41532 12.4319 8.87708C12.3359 9.33884 12.0998 9.76315 11.7532 10.0963C11.4067 10.4294 10.9641 10.6559 10.4831 10.7481C10.0012 10.8403 9.50299 10.7923 9.04988 10.6127C8.59676 10.4332 8.20892 10.128 7.93724 9.73627C7.66364 9.34556 7.51868 8.88476 7.51868 8.4134C7.51868 7.78268 7.7798 7.17597 8.2454 6.72957C8.711 6.28317 9.34171 6.03165 9.99931 6.03165Z" fill="currentColor"/>

</svg>
