<svg viewBox="0 0 20 20" fill="currentColor" xmlns="http://www.w3.org/2000/svg">
<g clip-path="url(#clip0_7501_22331)">
<mask id="mask0_7501_22331" style="mask-type:alpha" maskUnits="userSpaceOnUse" x="0" y="0">
<rect fill="currentColor"/>
</mask>
<g mask="url(#mask0_7501_22331)">
<path d="M5.68948 1.15004C6.99017 0.396289 8.48092 -0.00142066 10.0002 3.81312e-06C11.5028 9.06579e-05 12.9774 0.390148 14.2679 1.12889C15.5585 1.86763 16.6169 2.92758 17.3313 4.19653C18.0457 5.46549 18.3894 6.89624 18.326 8.33736C18.2626 9.77848 17.7946 11.1763 16.9714 12.383C16.9373 12.4518 16.8947 12.5162 16.8443 12.575L16.712 12.73C16.5258 12.9745 16.3247 13.2082 16.1099 13.43L10.8055 19.635C10.7077 19.7492 10.5848 19.8411 10.4455 19.9043C10.3063 19.9674 10.1542 20.0001 10.0002 20C9.84668 20.0003 9.69495 19.968 9.55592 19.9054C9.41689 19.8428 9.294 19.7515 9.19603 19.638L3.73226 13.264C3.62913 13.149 3.50933 13.009 3.39266 12.864L3.26766 12.718C3.21914 12.6616 3.17722 12.6002 3.14265 12.535C2.27901 11.3351 1.77388 9.93116 1.68199 8.47535C1.5901 7.01954 1.91496 5.56735 2.62137 4.27611C3.32777 2.98486 4.3888 1.9038 5.68948 1.15004Z" fill="currentColor"/>
<path d="M14.9948 6.69628C14.9948 6.5568 14.9425 6.42167 14.8466 6.32578C14.755 6.22553 14.6243 6.16886 14.4935 6.16886H12.1485L11.2854 4.34687C11.2418 4.25534 11.1808 4.18124 11.1023 4.13329C11.0239 4.08535 10.9324 4.05483 10.8408 4.05483L8.84012 4.04176V3.50126C8.84012 3.3705 8.78345 3.23974 8.69628 3.1482C8.60038 3.05231 8.47398 3 8.34321 3C8.20809 3 8.08168 3.05231 7.99015 3.1482C7.89861 3.24409 7.84631 3.3705 7.84631 3.50126V9.01517H5.99817C5.73228 9.01517 5.47947 9.12414 5.29204 9.32465C5.10461 9.52079 5 9.79104 5 10.07V10.4885C5 10.6279 5.05231 10.7631 5.1482 10.859C5.23974 10.9592 5.3705 11.0159 5.50126 11.0159H5.64946C5.63639 11.1074 5.62767 11.1946 5.62331 11.2818C5.62331 11.7438 5.7933 12.1753 6.09842 12.5022C6.40354 12.8204 6.81763 13.0035 7.24915 13.0035C7.68067 13.0035 8.09476 12.8248 8.39988 12.5022C8.705 12.1753 8.87499 11.7438 8.87499 11.2818C8.87499 11.1989 8.86627 11.1074 8.84884 11.0159H11.1503C11.1372 11.1074 11.1285 11.1946 11.1241 11.2818C11.1241 11.7438 11.2941 12.1753 11.5993 12.5022C11.9044 12.8204 12.3185 13.0035 12.75 13.0035C13.1815 13.0035 13.5956 12.8248 13.9007 12.5022C14.2058 12.1753 14.3758 11.7438 14.3758 11.2818C14.3758 11.1989 14.3671 11.1074 14.3497 11.0159H14.5022C14.633 11.0159 14.7638 10.9592 14.8553 10.859C14.9512 10.7631 15.0035 10.6279 15.0035 10.4885C15.0035 9.80847 15.0035 7.37625 15.0035 6.69628H14.9948ZM10.5313 5.11403L11.0326 6.17322H8.84012C8.84012 5.82016 8.84012 5.46709 8.84012 5.11403H10.5313ZM7.24043 11.9443C7.11839 11.9443 6.99634 11.9051 6.89173 11.831C6.78712 11.7612 6.70866 11.6566 6.66071 11.5346C6.61276 11.4125 6.59969 11.2774 6.62584 11.1553C6.65199 11.0246 6.70866 10.9069 6.79583 10.8154C6.88301 10.7195 6.99634 10.6584 7.11403 10.6367C7.23607 10.6105 7.36248 10.6236 7.47581 10.6715C7.58914 10.7195 7.68939 10.8066 7.75477 10.9156C7.82451 11.0246 7.85938 11.151 7.85938 11.2818C7.85938 11.4561 7.794 11.6261 7.67631 11.7525C7.55863 11.8789 7.40171 11.9487 7.23607 11.9487L7.24043 11.9443ZM12.7413 11.9443C12.6192 11.9443 12.4972 11.9051 12.3926 11.831C12.2879 11.7612 12.2095 11.6566 12.1615 11.5346C12.1136 11.4125 12.1005 11.2774 12.1267 11.1553C12.1528 11.0246 12.2095 10.9069 12.2967 10.8154C12.3838 10.7195 12.4972 10.6584 12.6149 10.6367C12.7369 10.6105 12.8633 10.6236 12.9766 10.6715C13.09 10.7195 13.1902 10.8066 13.2556 10.9156C13.3253 11.0246 13.3602 11.151 13.3602 11.2818C13.3602 11.4561 13.2948 11.6261 13.1771 11.7525C13.0595 11.8789 12.9025 11.9487 12.7369 11.9487L12.7413 11.9443Z" fill="currentColor"/>
</g>
</g>
<defs>
<clipPath id="clip0_7501_22331">
<rect fill="currentColor"/>
</clipPath>
</defs>
</svg>
