<svg viewBox="0 0 20 20" fill="currentColor" xmlns="http://www.w3.org/2000/svg">
<g clip-path="url(#clip0_7501_22341)">
<mask id="mask0_7501_22341" style="mask-type:alpha" maskUnits="userSpaceOnUse" x="0" y="0">
<rect fill="currentColor"/>
</mask>
<g mask="url(#mask0_7501_22341)">
<path d="M5.68948 1.15004C6.99017 0.396289 8.48092 -0.00142066 10.0002 3.81312e-06C11.5028 9.06579e-05 12.9774 0.390148 14.2679 1.12889C15.5585 1.86763 16.6169 2.92758 17.3313 4.19653C18.0457 5.46549 18.3894 6.89624 18.326 8.33736C18.2626 9.77848 17.7946 11.1763 16.9714 12.383C16.9373 12.4518 16.8947 12.5162 16.8443 12.575L16.712 12.73C16.5258 12.9745 16.3247 13.2082 16.1099 13.43L10.8055 19.635C10.7077 19.7492 10.5848 19.8411 10.4455 19.9043C10.3063 19.9674 10.1542 20.0001 10.0002 20C9.84668 20.0003 9.69495 19.968 9.55592 19.9054C9.41689 19.8428 9.294 19.7515 9.19603 19.638L3.73226 13.264C3.62913 13.149 3.50933 13.009 3.39266 12.864L3.26766 12.718C3.21914 12.6616 3.17722 12.6002 3.14265 12.535C2.27901 11.3351 1.77388 9.93116 1.68199 8.47535C1.5901 7.01954 1.91496 5.56735 2.62137 4.27611C3.32777 2.98486 4.3888 1.9038 5.68948 1.15004Z" fill="currentColor"/>
<path d="M14.8595 7.64644L13.8582 6.64643L10.3539 3.14639C10.2601 3.05266 10.1327 3 10 3C9.86725 3 9.73994 3.05266 9.64607 3.14639L6.14176 6.64643L5.14053 7.64644C5.04934 7.74075 4.99888 7.86705 5.00002 7.99815C5.00116 8.12925 5.05381 8.25465 5.14663 8.34736C5.23944 8.44006 5.36501 8.49265 5.49627 8.49379C5.62752 8.49493 5.75398 8.44453 5.8484 8.35345L5.99508 8.20695V12C5.99508 12.2652 6.10057 12.5196 6.28833 12.7071C6.4761 12.8946 6.73077 13 6.99631 13H8.49815C8.63093 13 8.75826 12.9473 8.85214 12.8536C8.94603 12.7598 8.99877 12.6326 8.99877 12.5V10.5C8.99877 10.3674 9.05151 10.2402 9.1454 10.1464C9.23928 10.0526 9.36661 9.99997 9.49939 9.99997H10.5006C10.6334 9.99997 10.7607 10.0526 10.8546 10.1464C10.9485 10.2402 11.0012 10.3674 11.0012 10.5V12.5C11.0012 12.6326 11.054 12.7598 11.1479 12.8536C11.2417 12.9473 11.3691 13 11.5018 13H13.0037C13.2692 13 13.5239 12.8946 13.7117 12.7071C13.8994 12.5196 14.0049 12.2652 14.0049 12V8.20695L14.1516 8.35345C14.246 8.44453 14.3725 8.49493 14.5037 8.49379C14.635 8.49265 14.7606 8.44006 14.8534 8.34736C14.9462 8.25465 14.9988 8.12925 15 7.99815C15.0011 7.86705 14.9507 7.74075 14.8595 7.64644Z" fill="currentColor"/>
</g>
</g>
<defs>
<clipPath id="clip0_7501_22341">
<rect fill="currentColor"/>
</clipPath>
</defs>
</svg>
