<svg viewBox="0 0 14 15" fill="currentColor" xmlns="http://www.w3.org/2000/svg">
<path fill-rule="evenodd" clip-rule="evenodd" d="M12.5556 0.5H1.44412C0.647133 0.5 0 1.14713 0 1.94412V13.0563C0 13.8532 0.647133 14.5004 1.44412 14.5004H12.5556C13.3532 14.5004 13.9997 13.8532 13.9997 13.0563V1.94412C13.9997 1.14646 13.3526 0.5 12.5556 0.5ZM6.99952 1.94479C6.15549 1.94345 5.32692 2.16521 4.60452 2.58319C3.8828 3.00184 3.29278 3.60261 2.90034 4.3203C2.50789 5.03799 2.3278 5.84439 2.37887 6.65347C2.42994 7.46256 2.71083 8.24207 3.18997 8.9087C3.21013 8.94498 3.23298 8.97926 3.25986 9.01017L3.32974 9.09148C3.39426 9.17212 3.46146 9.25007 3.51858 9.31391L6.55466 12.8553C6.60909 12.9185 6.67763 12.9689 6.75491 13.0038C6.83219 13.0388 6.91552 13.0563 7.00153 13.0563C7.08755 13.0563 7.17155 13.0381 7.24883 13.0032C7.32678 12.9682 7.39465 12.9172 7.44908 12.854L10.3965 9.40597C10.5154 9.283 10.6276 9.1533 10.7311 9.01689L10.8044 8.93087C10.8319 8.89794 10.8561 8.86233 10.8749 8.82402C11.3319 8.15337 11.5919 7.37654 11.6276 6.57619C11.6625 5.77585 11.471 4.98087 11.0745 4.27595C10.678 3.57103 10.0894 2.98168 9.37301 2.57109C8.65599 2.1605 7.83683 1.94412 7.00153 1.94412L6.99952 1.94479ZM6.99952 4.72216C7.34291 4.72216 7.67891 4.82027 7.96451 5.00305C8.2501 5.18651 8.47254 5.44657 8.60357 5.75098C8.73529 6.0554 8.76956 6.39072 8.70236 6.71395C8.63516 7.03718 8.46985 7.33421 8.22726 7.56739C7.98467 7.80057 7.67487 7.95916 7.3382 8.02368C7.00086 8.08819 6.6521 8.05459 6.33491 7.92892C6.01773 7.80326 5.74624 7.58957 5.55607 7.31539C5.36455 7.04189 5.26308 6.71933 5.26308 6.38938C5.26308 5.94788 5.44586 5.52318 5.77178 5.2107C6.0977 4.89822 6.5392 4.72216 6.99952 4.72216Z" fill="currentColor"/>
</svg>
