<svg viewBox="0 0 12 14" fill="currentColor" xmlns="http://www.w3.org/2000/svg">
    <path
        d="M6.00009 2.66919e-06C4.93658 -0.000994465 3.89305 0.277402 2.98257 0.805031C2.07209 1.33266 1.32937 2.0894 0.83489 2.99327C0.340405 3.89715 0.113005 4.91368 0.177326 5.93275C0.241648 6.95181 0.595238 7.93455 1.19979 8.7745C1.22399 8.82014 1.25333 8.8631 1.28729 8.9026L1.3748 9.0048C1.45647 9.1063 1.54032 9.2043 1.61251 9.2848L5.43715 13.7466C5.50573 13.8261 5.59176 13.89 5.68908 13.9338C5.7864 13.9776 5.89261 14.0002 6.00009 14C6.10788 14 6.21434 13.9772 6.3118 13.933C6.40927 13.8888 6.49532 13.8244 6.56376 13.7445L10.2768 9.401C10.4272 9.24576 10.568 9.08214 10.6983 8.911L10.7909 8.8025C10.8262 8.76137 10.8561 8.71623 10.8799 8.6681C11.4561 7.82344 11.7838 6.84494 11.8281 5.83615C11.8725 4.82737 11.6319 3.82584 11.1318 2.93757C10.6318 2.0493 9.89085 1.30734 8.98748 0.790224C8.0841 0.273104 7.05189 6.34605e-05 6.00009 2.66919e-06ZM6.00009 3.5C6.43276 3.5 6.85571 3.62316 7.21546 3.85392C7.5752 4.08467 7.85559 4.41264 8.02117 4.79637C8.18674 5.18009 8.23006 5.60233 8.14565 6.00969C8.06124 6.41705 7.8529 6.79123 7.54696 7.08493C7.24102 7.37862 6.85122 7.57862 6.42687 7.65965C6.00252 7.74068 5.56267 7.69909 5.16294 7.54015C4.76321 7.3812 4.42155 7.11204 4.18118 6.7667C3.9408 6.42136 3.8125 6.01534 3.8125 5.6C3.8125 5.04305 4.04298 4.5089 4.45323 4.11508C4.86349 3.72125 5.41991 3.5 6.00009 3.5Z"
        fill="currentColor" />
</svg>
    