<svg viewBox="0 0 24 24" fill="currentColor" xmlns="http://www.w3.org/2000/svg">
<g clip-path="url(#clip0_9576_10603)">
<mask id="mask0_9576_10603" style="mask-type:alpha" maskUnits="userSpaceOnUse" x="0" y="0">
<rect fill="currentColor"/>
</mask>
<g mask="url(#mask0_9576_10603)">
<path d="M12 11.8788C13.4727 11.8788 14.6667 10.7733 14.6667 9.4097C14.6667 8.04606 13.4727 6.94061 12 6.94061C10.5272 6.94061 9.33333 8.04606 9.33333 9.4097C9.33333 10.7733 10.5272 11.8788 12 11.8788Z" fill="currentColor"/>
<path d="M12 0C9.3487 0.00261434 6.80681 0.978962 4.93206 2.71481C3.05731 4.45066 2.00284 6.80422 2.00002 9.25908C1.99598 11.2395 2.68505 13.1679 3.96401 14.7553C3.98818 14.7942 4.0149 14.8317 4.04401 14.8676L10.9333 23.4996C11.0573 23.6548 11.2189 23.7809 11.4051 23.8678C11.5912 23.9547 11.7968 24 12.0053 24C12.2138 24 12.4194 23.9547 12.6056 23.8678C12.7918 23.7809 12.9533 23.6548 13.0773 23.4996L19.9613 14.8676C19.9904 14.8321 20.0171 14.795 20.0413 14.7565C21.3184 13.168 22.0055 11.2393 22 9.25908C21.9971 6.80422 20.9427 4.45066 19.0679 2.71481C17.1932 0.978962 14.6513 0.00261434 12 0ZM12 14.3479C10.9452 14.3479 9.91402 14.0583 9.03696 13.5156C8.1599 12.973 7.47631 12.2018 7.07265 11.2995C6.66898 10.3971 6.56336 9.40422 6.76915 8.44631C6.97494 7.48839 7.48289 6.6085 8.22877 5.91788C8.97464 5.22726 9.92495 4.75695 10.9595 4.56641C11.9941 4.37586 13.0664 4.47366 14.041 4.84742C15.0155 5.22118 15.8485 5.85411 16.4345 6.66619C17.0205 7.47827 17.3333 8.43302 17.3333 9.4097C17.3333 10.7194 16.7714 11.9754 15.7712 12.9015C14.771 13.8276 13.4145 14.3479 12 14.3479Z" fill="currentColor"/>
</g>
</g>
</svg>
