<svg viewBox="0 0 20 20" fill="none" xmlns="http://www.w3.org/2000/svg">
<path d="M17.1297 1H13.791C13.6136 0.696959 13.3582 0.445042 13.0503 0.269523C12.7425 0.0940032 12.3931 0.00105394 12.0371 0H7.963C7.60702 0.00105394 7.25758 0.0940032 6.94974 0.269523C6.6419 0.445042 6.38648 0.696959 6.20912 1H2.87041C2.33016 1 1.81203 1.21071 1.43001 1.58579C1.04799 1.96086 0.833374 2.46957 0.833374 3V18C0.833374 18.5304 1.04799 19.0391 1.43001 19.4142C1.81203 19.7893 2.33016 20 2.87041 20H17.1297C17.6699 20 18.1881 19.7893 18.5701 19.4142C18.9521 19.0391 19.1667 18.5304 19.1667 18V3C19.1667 2.46957 18.9521 1.96086 18.5701 1.58579C18.1881 1.21071 17.6699 1 17.1297 1ZM7.963 2H12.0371V4H7.963V2ZM5.92597 15C5.72452 15 5.5276 14.9414 5.36011 14.8315C5.19261 14.7216 5.06207 14.5654 4.98498 14.3827C4.90789 14.2 4.88772 13.9989 4.92702 13.8049C4.96632 13.6109 5.06332 13.4327 5.20577 13.2929C5.34821 13.153 5.52969 13.0578 5.72726 13.0192C5.92484 12.9806 6.12963 13.0004 6.31574 13.0761C6.50185 13.1518 6.66092 13.28 6.77283 13.4444C6.88475 13.6089 6.94449 13.8022 6.94449 14C6.94449 14.2652 6.83718 14.5196 6.64617 14.7071C6.45516 14.8946 6.19609 15 5.92597 15ZM5.92597 11C5.72452 11 5.5276 10.9414 5.36011 10.8315C5.19261 10.7216 5.06207 10.5654 4.98498 10.3827C4.90789 10.2 4.88772 9.99889 4.92702 9.80491C4.96632 9.61093 5.06332 9.43275 5.20577 9.29289C5.34821 9.15304 5.52969 9.0578 5.72726 9.01921C5.92484 8.98063 6.12963 9.00043 6.31574 9.07612C6.50185 9.15181 6.66092 9.27998 6.77283 9.44443C6.88475 9.60888 6.94449 9.80222 6.94449 10C6.94449 10.2652 6.83718 10.5196 6.64617 10.7071C6.45516 10.8946 6.19609 11 5.92597 11ZM14.0741 15H8.98152C8.71139 15 8.45233 14.8946 8.26132 14.7071C8.07031 14.5196 7.963 14.2652 7.963 14C7.963 13.7348 8.07031 13.4804 8.26132 13.2929C8.45233 13.1054 8.71139 13 8.98152 13H14.0741C14.3442 13 14.6033 13.1054 14.7943 13.2929C14.9853 13.4804 15.0926 13.7348 15.0926 14C15.0926 14.2652 14.9853 14.5196 14.7943 14.7071C14.6033 14.8946 14.3442 15 14.0741 15ZM14.0741 11H8.98152C8.71139 11 8.45233 10.8946 8.26132 10.7071C8.07031 10.5196 7.963 10.2652 7.963 10C7.963 9.73478 8.07031 9.48043 8.26132 9.29289C8.45233 9.10536 8.71139 9 8.98152 9H14.0741C14.3442 9 14.6033 9.10536 14.7943 9.29289C14.9853 9.48043 15.0926 9.73478 15.0926 10C15.0926 10.2652 14.9853 10.5196 14.7943 10.7071C14.6033 10.8946 14.3442 11 14.0741 11Z" fill="currentColor"/>
</svg>
