<svg width="96" height="46" viewBox="0 0 96 46" fill="none" xmlns="http://www.w3.org/2000/svg">
<g filter="url(#filter0_d_4177_18005)">
<g clip-path="url(#clip0_4177_18005)">
<rect width="84" height="42" transform="translate(10 1)" fill="#FAFAFA"/>
<path d="M23.0043 16.8182H25.2614L28.2841 24.196H28.4034L31.4261 16.8182H33.6832V27H31.9134V20.005H31.8189L29.005 26.9702H27.6825L24.8686 19.9901H24.7741V27H23.0043V16.8182ZM37.8097 27.1541C37.3258 27.1541 36.8899 27.0679 36.5021 26.8956C36.1177 26.7199 35.8127 26.4614 35.5874 26.12C35.3653 25.7786 35.2543 25.3577 35.2543 24.8572C35.2543 24.4264 35.3338 24.0701 35.4929 23.7884C35.652 23.5066 35.8691 23.2812 36.1442 23.1122C36.4193 22.9432 36.7292 22.8156 37.0739 22.7294C37.4219 22.6399 37.7815 22.5753 38.1527 22.5355C38.6001 22.4891 38.9631 22.4477 39.2415 22.4112C39.5199 22.3714 39.7221 22.3118 39.848 22.2322C39.9773 22.1494 40.0419 22.0218 40.0419 21.8494V21.8196C40.0419 21.4451 39.9309 21.1551 39.7088 20.9496C39.4867 20.7441 39.1669 20.6413 38.7493 20.6413C38.3085 20.6413 37.9588 20.7375 37.7003 20.9297C37.4451 21.1219 37.2727 21.349 37.1832 21.6108L35.5028 21.3722C35.6354 20.9081 35.8542 20.5204 36.1591 20.2088C36.464 19.8939 36.8369 19.6586 37.2777 19.5028C37.7185 19.3438 38.2057 19.2642 38.7393 19.2642C39.1072 19.2642 39.4735 19.3073 39.8381 19.3935C40.2027 19.4796 40.5357 19.6222 40.8374 19.821C41.139 20.0166 41.3809 20.2834 41.5632 20.6214C41.7488 20.9595 41.8416 21.3821 41.8416 21.8892V27H40.1115V25.951H40.0518C39.9425 26.1631 39.7884 26.362 39.5895 26.5476C39.3939 26.7299 39.147 26.8774 38.8487 26.9901C38.5537 27.0994 38.2074 27.1541 37.8097 27.1541ZM38.277 25.8317C38.6383 25.8317 38.9515 25.7604 39.2166 25.6179C39.4818 25.4721 39.6856 25.2798 39.8281 25.0412C39.974 24.8026 40.0469 24.5424 40.0469 24.2607V23.3608C39.9905 23.4072 39.8944 23.4503 39.7585 23.4901C39.6259 23.5298 39.4768 23.5646 39.3111 23.5945C39.1454 23.6243 38.9813 23.6508 38.8189 23.674C38.6565 23.6972 38.5156 23.7171 38.3963 23.7337C38.1278 23.7701 37.8875 23.8298 37.6754 23.9126C37.4633 23.9955 37.2959 24.1115 37.1733 24.2607C37.0507 24.4065 36.9893 24.5954 36.9893 24.8274C36.9893 25.1589 37.1103 25.4091 37.3523 25.5781C37.5942 25.7472 37.9025 25.8317 38.277 25.8317ZM45.451 22.5256V27H43.6513V19.3636H45.3714V20.6612H45.4609C45.6366 20.2337 45.9167 19.8939 46.3011 19.642C46.6889 19.3902 47.1679 19.2642 47.7379 19.2642C48.2649 19.2642 48.724 19.3769 49.1151 19.6023C49.5095 19.8277 49.8144 20.1541 50.0298 20.5817C50.2486 21.0092 50.3563 21.5279 50.353 22.1378V27H48.5533V22.4162C48.5533 21.9058 48.4207 21.5064 48.1555 21.218C47.8937 20.9297 47.5308 20.7855 47.0668 20.7855C46.7519 20.7855 46.4718 20.8551 46.2266 20.9943C45.9846 21.1302 45.794 21.3274 45.6548 21.5859C45.5189 21.8445 45.451 22.1577 45.451 22.5256ZM54.38 27.1541C53.8961 27.1541 53.4602 27.0679 53.0724 26.8956C52.688 26.7199 52.383 26.4614 52.1577 26.12C51.9356 25.7786 51.8246 25.3577 51.8246 24.8572C51.8246 24.4264 51.9041 24.0701 52.0632 23.7884C52.2223 23.5066 52.4394 23.2812 52.7145 23.1122C52.9896 22.9432 53.2995 22.8156 53.6442 22.7294C53.9922 22.6399 54.3518 22.5753 54.723 22.5355C55.1705 22.4891 55.5334 22.4477 55.8118 22.4112C56.0902 22.3714 56.2924 22.3118 56.4183 22.2322C56.5476 22.1494 56.6122 22.0218 56.6122 21.8494V21.8196C56.6122 21.4451 56.5012 21.1551 56.2791 20.9496C56.0571 20.7441 55.7372 20.6413 55.3196 20.6413C54.8788 20.6413 54.5291 20.7375 54.2706 20.9297C54.0154 21.1219 53.843 21.349 53.7536 21.6108L52.0732 21.3722C52.2057 20.9081 52.4245 20.5204 52.7294 20.2088C53.0343 19.8939 53.4072 19.6586 53.848 19.5028C54.2888 19.3438 54.776 19.2642 55.3097 19.2642C55.6776 19.2642 56.0438 19.3073 56.4084 19.3935C56.773 19.4796 57.1061 19.6222 57.4077 19.821C57.7093 20.0166 57.9512 20.2834 58.1335 20.6214C58.3191 20.9595 58.4119 21.3821 58.4119 21.8892V27H56.6818V25.951H56.6222C56.5128 26.1631 56.3587 26.362 56.1598 26.5476C55.9643 26.7299 55.7173 26.8774 55.419 26.9901C55.1241 27.0994 54.7777 27.1541 54.38 27.1541ZM54.8473 25.8317C55.2086 25.8317 55.5218 25.7604 55.7869 25.6179C56.0521 25.4721 56.2559 25.2798 56.3984 25.0412C56.5443 24.8026 56.6172 24.5424 56.6172 24.2607V23.3608C56.5608 23.4072 56.4647 23.4503 56.3288 23.4901C56.1963 23.5298 56.0471 23.5646 55.8814 23.5945C55.7157 23.6243 55.5516 23.6508 55.3892 23.674C55.2268 23.6972 55.0859 23.7171 54.9666 23.7337C54.6982 23.7701 54.4579 23.8298 54.2457 23.9126C54.0336 23.9955 53.8662 24.1115 53.7436 24.2607C53.621 24.4065 53.5597 24.5954 53.5597 24.8274C53.5597 25.1589 53.6806 25.4091 53.9226 25.5781C54.1645 25.7472 54.4728 25.8317 54.8473 25.8317ZM63.5426 30.0227C62.8963 30.0227 62.3411 29.9349 61.8771 29.7592C61.4131 29.5869 61.0402 29.3549 60.7585 29.0632C60.4768 28.7715 60.2812 28.4484 60.1719 28.0938L61.7926 27.701C61.8655 27.8501 61.9716 27.9976 62.1108 28.1435C62.25 28.2926 62.4373 28.4152 62.6726 28.5114C62.9112 28.6108 63.2112 28.6605 63.5724 28.6605C64.0829 28.6605 64.5054 28.5362 64.8402 28.2876C65.175 28.0424 65.3423 27.638 65.3423 27.0746V25.6278H65.2528C65.16 25.8134 65.0241 26.004 64.8452 26.1996C64.6695 26.3951 64.4358 26.5592 64.1442 26.6918C63.8558 26.8243 63.4929 26.8906 63.0554 26.8906C62.4688 26.8906 61.9368 26.7531 61.4595 26.478C60.9856 26.1996 60.6077 25.7853 60.326 25.2351C60.0476 24.6816 59.9084 23.9889 59.9084 23.157C59.9084 22.3184 60.0476 21.6108 60.326 21.0341C60.6077 20.4541 60.9872 20.0149 61.4645 19.7166C61.9418 19.415 62.4737 19.2642 63.0604 19.2642C63.5078 19.2642 63.8757 19.3404 64.1641 19.4929C64.4557 19.642 64.6877 19.8227 64.8601 20.0348C65.0324 20.2436 65.1634 20.4408 65.2528 20.6264H65.3523V19.3636H67.1271V27.1243C67.1271 27.7772 66.9714 28.3175 66.6598 28.745C66.3482 29.1726 65.9223 29.4924 65.3821 29.7045C64.8419 29.9167 64.2287 30.0227 63.5426 30.0227ZM63.5575 25.4787C63.9387 25.4787 64.2635 25.3859 64.532 25.2003C64.8004 25.0147 65.0043 24.7479 65.1435 24.3999C65.2827 24.0518 65.3523 23.6342 65.3523 23.147C65.3523 22.6664 65.2827 22.2455 65.1435 21.8842C65.0076 21.523 64.8054 21.2429 64.5369 21.044C64.2718 20.8419 63.9453 20.7408 63.5575 20.7408C63.1565 20.7408 62.8217 20.8452 62.5533 21.054C62.2848 21.2628 62.0826 21.5495 61.9467 21.9141C61.8108 22.2753 61.7429 22.6863 61.7429 23.147C61.7429 23.6143 61.8108 24.0237 61.9467 24.375C62.0859 24.723 62.2898 24.9948 62.5582 25.1903C62.83 25.3826 63.1631 25.4787 63.5575 25.4787ZM72.3523 27.1491C71.5866 27.1491 70.9254 26.9901 70.3686 26.6719C69.8151 26.3504 69.3892 25.8963 69.0909 25.3097C68.7926 24.7197 68.6435 24.0253 68.6435 23.2266C68.6435 22.4411 68.7926 21.7517 69.0909 21.1584C69.3925 20.5618 69.8134 20.0978 70.3537 19.7663C70.8939 19.4316 71.5286 19.2642 72.2578 19.2642C72.7285 19.2642 73.1726 19.3404 73.5902 19.4929C74.0111 19.642 74.3823 19.8741 74.7038 20.1889C75.0286 20.5038 75.2839 20.9048 75.4695 21.392C75.6551 21.8759 75.7479 22.4527 75.7479 23.1222V23.674H69.4886V22.4609H74.0227C74.0194 22.1162 73.9448 21.8097 73.799 21.5412C73.6532 21.2694 73.4493 21.0556 73.1875 20.8999C72.929 20.7441 72.6274 20.6662 72.2827 20.6662C71.9148 20.6662 71.5916 20.7557 71.3132 20.9347C71.0348 21.1103 70.8177 21.3423 70.6619 21.6307C70.5095 21.9157 70.4316 22.2289 70.4283 22.5703V23.6293C70.4283 24.0734 70.5095 24.4545 70.6719 24.7727C70.8343 25.0876 71.0613 25.3295 71.353 25.4986C71.6446 25.6643 71.986 25.7472 72.3771 25.7472C72.639 25.7472 72.8759 25.7107 73.0881 25.6378C73.3002 25.5616 73.4841 25.4505 73.6399 25.3047C73.7957 25.1589 73.9134 24.9782 73.9929 24.7628L75.6733 24.9517C75.5672 25.3958 75.3651 25.7836 75.0668 26.1151C74.7718 26.4432 74.3939 26.6984 73.9332 26.8807C73.4725 27.0597 72.9455 27.1491 72.3523 27.1491ZM77.2704 27V19.3636H79.0154V20.6364H79.095C79.2342 20.1955 79.4728 19.8558 79.8109 19.6172C80.1523 19.3752 80.5417 19.2543 80.9792 19.2543C81.0787 19.2543 81.1897 19.2592 81.3123 19.2692C81.4383 19.2758 81.5427 19.2874 81.6255 19.304V20.9595C81.5493 20.933 81.4283 20.9098 81.2626 20.8899C81.1002 20.8667 80.9428 20.8551 80.7903 20.8551C80.4622 20.8551 80.1672 20.9264 79.9054 21.0689C79.6468 21.2081 79.443 21.402 79.2939 21.6506C79.1447 21.8991 79.0701 22.1858 79.0701 22.5107V27H77.2704Z" fill="#171717"/>
</g>
<path d="M10.5 7C10.5 3.96243 12.9624 1.5 16 1.5H88C91.0376 1.5 93.5 3.96243 93.5 7V37C93.5 40.0376 91.0376 42.5 88 42.5H16C12.9624 42.5 10.5 40.0376 10.5 37V7Z" stroke="#E5E5E5"/>
<path d="M3.70711 22L10.5 28.7929V22L10.5 15.2071L3.70711 22Z" fill="#FAFAFA" stroke="#E5E5E5"/>
<path d="M5.10701 22.0001L10.4999 27.393L10.4999 22.0001L10.4999 16.6072L5.10701 22.0001Z" stroke="#FAFAFA"/>
</g>
<defs>
<filter id="filter0_d_4177_18005" x="0" y="0" width="96" height="46" filterUnits="userSpaceOnUse" color-interpolation-filters="sRGB">
<feFlood flood-opacity="0" result="BackgroundImageFix"/>
<feColorMatrix in="SourceAlpha" type="matrix" values="0 0 0 0 0 0 0 0 0 0 0 0 0 0 0 0 0 0 127 0" result="hardAlpha"/>
<feOffset dy="1"/>
<feGaussianBlur stdDeviation="1"/>
<feColorMatrix type="matrix" values="0 0 0 0 0 0 0 0 0 0 0 0 0 0 0 0 0 0 0.08 0"/>
<feBlend mode="normal" in2="BackgroundImageFix" result="effect1_dropShadow_4177_18005"/>
<feBlend mode="normal" in="SourceGraphic" in2="effect1_dropShadow_4177_18005" result="shape"/>
</filter>
<clipPath id="clip0_4177_18005">
<path d="M10 7C10 3.68629 12.6863 1 16 1H88C91.3137 1 94 3.68629 94 7V37C94 40.3137 91.3137 43 88 43H16C12.6863 43 10 40.3137 10 37V7Z" fill="white"/>
</clipPath>
</defs>
</svg>
