<svg viewBox="0 0 20 20" fill="none" xmlns="http://www.w3.org/2000/svg">

<path d="M17.1297 0H4.90745C4.36719 0 3.84906 0.210714 3.46705 0.585786C3.08503 0.960859 2.87041 1.46957 2.87041 2V3H1.85189C1.58176 3 1.3227 3.10536 1.13169 3.29289C0.940682 3.48043 0.833374 3.73478 0.833374 4C0.833374 4.26522 0.940682 4.51957 1.13169 4.70711C1.3227 4.89464 1.58176 5 1.85189 5H2.87041V7H1.85189C1.58176 7 1.3227 7.10536 1.13169 7.29289C0.940682 7.48043 0.833374 7.73478 0.833374 8C0.833374 8.26522 0.940682 8.51957 1.13169 8.70711C1.3227 8.89464 1.58176 9 1.85189 9H2.87041V11H1.85189C1.58176 11 1.3227 11.1054 1.13169 11.2929C0.940682 11.4804 0.833374 11.7348 0.833374 12C0.833374 12.2652 0.940682 12.5196 1.13169 12.7071C1.3227 12.8946 1.58176 13 1.85189 13H2.87041V15H1.85189C1.58176 15 1.3227 15.1054 1.13169 15.2929C0.940682 15.4804 0.833374 15.7348 0.833374 16C0.833374 16.2652 0.940682 16.5196 1.13169 16.7071C1.3227 16.8946 1.58176 17 1.85189 17H2.87041V18C2.87041 18.5304 3.08503 19.0391 3.46705 19.4142C3.84906 19.7893 4.36719 20 4.90745 20H17.1297C17.6699 20 18.1881 19.7893 18.5701 19.4142C18.9521 19.0391 19.1667 18.5304 19.1667 18V2C19.1667 1.46957 18.9521 0.960859 18.5701 0.585786C18.1881 0.210714 17.6699 0 17.1297 0ZM11.5278 4.5C12.1322 4.5 12.7229 4.67595 13.2254 5.00559C13.7279 5.33524 14.1195 5.80377 14.3508 6.35195C14.5821 6.90013 14.6426 7.50333 14.5247 8.08527C14.4068 8.66721 14.1158 9.20176 13.6884 9.62132C13.2611 10.0409 12.7166 10.3266 12.1239 10.4424C11.5312 10.5581 10.9168 10.4987 10.3585 10.2716C9.80018 10.0446 9.32297 9.66006 8.98722 9.16671C8.65147 8.67336 8.47226 8.09334 8.47226 7.5C8.47226 6.70435 8.79419 5.94129 9.36721 5.37868C9.94024 4.81607 10.7174 4.5 11.5278 4.5ZM15.0203 17H8.03532C7.90025 17 7.77072 16.9473 7.67522 16.8536C7.57971 16.7598 7.52606 16.6326 7.52606 16.5C7.50662 15.9687 7.59524 15.439 7.78674 14.9417C7.97824 14.4445 8.26878 13.9897 8.64137 13.6039C9.01396 13.2182 9.46112 12.9093 9.95673 12.6952C10.4523 12.4811 10.9864 12.3661 11.5278 12.357C12.0692 12.3661 12.6033 12.4811 13.0989 12.6952C13.5945 12.9093 14.0417 13.2182 14.4143 13.6039C14.7869 13.9897 15.0774 14.4445 15.2689 14.9417C15.4604 15.439 15.549 15.9687 15.5296 16.5C15.5296 16.6326 15.4759 16.7598 15.3804 16.8536C15.2849 16.9473 15.1554 17 15.0203 17Z" fill="currentColor"/>

</svg>
