<svg viewBox="0 0 14 15" fill="currentColor" xmlns="http://www.w3.org/2000/svg">
<g clip-path="url(#clip0_9474_28159)">
<mask id="mask0_9474_28159" style="mask-type:alpha" maskUnits="userSpaceOnUse" x="0" y="0">
<rect y="0.5" fill="currentColor"/>
</mask>
<g mask="url(#mask0_9474_28159)">
<path d="M11.7893 8.89895C11.9496 8.89899 12.1055 8.8494 12.2334 8.75771C12.3613 8.66601 12.4542 8.53721 12.4981 8.39081L13.9718 3.49143C14.003 3.38727 14.0084 3.27764 13.9875 3.17118C13.9666 3.06471 13.9199 2.96431 13.8512 2.87788C13.7825 2.79145 13.6936 2.72134 13.5915 2.67308C13.4895 2.62481 13.377 2.59971 13.263 2.59974H3.51469L3.07627 1.02143C3.03478 0.871989 2.94238 0.739791 2.81349 0.645465C2.6846 0.551139 2.52646 0.499991 2.36376 0.5H0.736832C0.541412 0.5 0.353996 0.573741 0.215813 0.705C0.0776302 0.836259 0 1.01428 0 1.19991C0 1.38554 0.0776302 1.56357 0.215813 1.69483C0.353996 1.82608 0.541412 1.89982 0.736832 1.89982H1.7964L2.23849 3.47813V3.48513V3.49143L3.71216 8.39081L4.26183 10.4808C3.89794 10.634 3.58436 10.8778 3.35422 11.1863C3.12408 11.4948 2.98591 11.8566 2.95431 12.2335C2.9227 12.6105 2.99883 12.9885 3.17466 13.3277C3.35049 13.667 3.61948 13.9548 3.95325 14.1609C4.28702 14.3669 4.67317 14.4835 5.07092 14.4984C5.46867 14.5132 5.86327 14.4258 6.21305 14.2453C6.56283 14.0648 6.8548 13.7979 7.05814 13.4729C7.26149 13.1478 7.36865 12.7766 7.36832 12.3985C7.36587 12.1595 7.32001 11.9227 7.23274 11.6986H8.97756C8.89029 11.9227 8.84442 12.1595 8.84198 12.3985C8.84198 12.8138 8.97162 13.2198 9.21451 13.5651C9.45741 13.9104 9.80264 14.1795 10.2066 14.3384C10.6105 14.4973 11.0549 14.5389 11.4837 14.4579C11.9125 14.3769 12.3064 14.1769 12.6155 13.8832C12.9247 13.5896 13.1352 13.2155 13.2205 12.8081C13.3058 12.4008 13.262 11.9787 13.0947 11.595C12.9274 11.2113 12.6441 10.8834 12.2806 10.6526C11.917 10.4219 11.4897 10.2988 11.0525 10.2988H5.73255L5.36413 8.89895H11.7893ZM5.89465 12.3985C5.89465 12.5369 5.85144 12.6723 5.77047 12.7874C5.68951 12.9025 5.57443 12.9922 5.43979 13.0451C5.30516 13.0981 5.157 13.112 5.01407 13.085C4.87114 13.058 4.73985 12.9913 4.6368 12.8934C4.53375 12.7955 4.46358 12.6708 4.43515 12.5351C4.40672 12.3993 4.42131 12.2586 4.47708 12.1307C4.53285 12.0028 4.62729 11.8935 4.74846 11.8166C4.86963 11.7396 5.01209 11.6986 5.15782 11.6986C5.35324 11.6986 5.54066 11.7723 5.67884 11.9036C5.81702 12.0349 5.89465 12.2129 5.89465 12.3985ZM11.0525 13.0984C10.9067 13.0984 10.7643 13.0574 10.6431 12.9805C10.5219 12.9036 10.4275 12.7942 10.3717 12.6664C10.316 12.5385 10.3014 12.3977 10.3298 12.262C10.3582 12.1262 10.4284 12.0015 10.5315 11.9036C10.6345 11.8057 10.7658 11.7391 10.9087 11.712C11.0517 11.685 11.1998 11.6989 11.3344 11.7519C11.4691 11.8048 11.5842 11.8946 11.6651 12.0097C11.7461 12.1248 11.7893 12.2601 11.7893 12.3985C11.7893 12.5841 11.7117 12.7622 11.5735 12.8934C11.4353 13.0247 11.2479 13.0984 11.0525 13.0984Z" fill="currentColor"/>
</g>
</g>
</svg>
