<svg viewBox="0 0 20 21" fill="currentColor" xmlns="http://www.w3.org/2000/svg">
<g clip-path="url(#clip0_9610_32346)">
<mask id="mask0_9610_32346" style="mask-type:alpha" maskUnits="userSpaceOnUse" x="0" y="0">
<rect y="0.5" fill="currentColor"/>
</mask>
<g mask="url(#mask0_9610_32346)">
<path d="M18.3337 3.5C18.3337 1.846 16.8824 0.5 15.0991 0.5C13.3158 0.5 11.8645 1.846 11.8645 3.5C11.8645 4.614 12.5298 5.577 13.5044 6.094C13.3934 7.436 12.1934 8.5 10.7184 8.5H8.78844C7.74583 8.5 6.77977 8.803 5.97975 9.314V6.316C7.23153 5.902 8.13613 4.802 8.13613 3.5C8.13613 1.846 6.68489 0.5 4.90156 0.5C3.11824 0.5 1.66699 1.846 1.66699 3.5C1.66699 4.802 2.57159 5.902 3.82337 6.316V14.685C2.57159 15.098 1.66699 16.198 1.66699 17.5C1.66699 19.154 3.11824 20.5 4.90156 20.5C6.68489 20.5 8.13613 19.154 8.13613 17.5C8.13613 16.198 7.23153 15.098 5.97975 14.684V13.104C5.97975 11.668 7.23908 10.5 8.78844 10.5H10.7184C13.2511 10.5 15.3234 8.726 15.6231 6.451C17.1574 6.217 18.3337 4.988 18.3337 3.5Z" fill="currentColor"/>
</g>
</g>
</svg>
