<svg viewBox="0 0 18 21" fill="currentColor" xmlns="http://www.w3.org/2000/svg">
<path d="M17.3337 3.5C17.3337 1.846 15.9316 0.5 14.2087 0.5C12.4857 0.5 11.0837 1.846 11.0837 3.5C11.0837 4.802 11.9576 5.902 13.167 6.316V8.5C13.167 9.051 12.7003 9.5 12.1253 9.5H5.87533C5.30033 9.5 4.83366 9.051 4.83366 8.5V6.316C6.04303 5.902 6.91699 4.802 6.91699 3.5C6.91699 1.846 5.51491 0.5 3.79199 0.5C2.06908 0.5 0.666992 1.846 0.666992 3.5C0.666992 4.802 1.54095 5.902 2.75033 6.316V8.5C2.75033 10.154 4.15241 11.5 5.87533 11.5H7.95866V14.684C6.74928 15.098 5.87533 16.198 5.87533 17.5C5.87533 19.154 7.27741 20.5 9.00033 20.5C10.7232 20.5 12.1253 19.154 12.1253 17.5C12.1253 16.198 11.2514 15.098 10.042 14.684V11.5H12.1253C13.8482 11.5 15.2503 10.154 15.2503 8.5V6.316C16.4597 5.902 17.3337 4.802 17.3337 3.5Z" fill="currentColor"/>
</svg>
