<svg viewBox="0 0 20 19" fill="currentColor"
    xmlns="http://www.w3.org/2000/svg">
    <path
        d="M7.22029 3.92651H9.99716V2.88249C9.98797 2.42521 10.1087 1.9749 10.345 1.58516C10.5813 1.19542 10.9232 0.88268 11.3301 0.684173C11.6911 0.518018 12.0924 0.462609 12.4842 0.524787C12.876 0.586966 13.2413 0.764009 13.5349 1.03406L19.2097 6.08545C19.4588 6.31728 19.6577 6.59898 19.7937 6.91271C19.9298 7.22643 20 7.56535 20 7.908C20 8.25065 19.9298 8.58957 19.7937 8.9033C19.6577 9.21702 19.4588 9.49872 19.2097 9.73055L13.5349 14.7876C13.2409 15.0574 12.8754 15.2342 12.4834 15.2962C12.0914 15.3581 11.6901 15.3026 11.3289 15.1363C10.9216 14.9372 10.5794 14.6234 10.3432 14.2326C10.1071 13.8418 9.98693 13.3905 9.99716 12.9324V11.8884H8.88641C8.29053 11.8961 7.72201 12.1429 7.30554 12.5746C6.88908 13.0063 6.65869 13.5877 6.66492 14.1913V17.3751C6.66489 17.5494 6.62491 17.7212 6.54811 17.8772C6.47132 18.0331 6.35982 18.1688 6.2224 18.2736C6.08498 18.3785 5.9254 18.4495 5.75624 18.4812C5.58708 18.5129 5.41296 18.5044 5.24761 18.4563C3.56774 17.9534 2.12148 16.8573 1.17122 15.3669C0.220963 13.8764 -0.170345 12.0903 0.0682926 10.3326C0.306929 8.57495 1.1597 6.96214 2.4719 5.78679C3.78409 4.61145 5.46877 3.95144 7.22029 3.92651Z"
        fill="currentColor" />
</svg>
    