<svg viewBox="0 0 20 21" fill="currentColor" xmlns="http://www.w3.org/2000/svg">

    <path
        d="M12.7797 4.92651H10.0028V3.88249C10.012 3.42521 9.89129 2.9749 9.65498 2.58516C9.41867 2.19542 9.07676 1.88268 8.66994 1.68417C8.30886 1.51802 7.90764 1.46261 7.51581 1.52479C7.12399 1.58697 6.75872 1.76401 6.46511 2.03406L0.790308 7.08545C0.541196 7.31728 0.342324 7.59898 0.206284 7.91271C0.0702438 8.22643 0 8.56535 0 8.908C0 9.25065 0.0702438 9.58957 0.206284 9.9033C0.342324 10.217 0.541196 10.4987 0.790308 10.7306L6.46511 15.7876C6.75909 16.0574 7.1246 16.2342 7.51658 16.2962C7.90856 16.3581 8.30988 16.3026 8.67105 16.1363C9.07845 15.9372 9.42064 15.6234 9.65679 15.2326C9.89294 14.8418 10.0131 14.3905 10.0028 13.9324V12.8884H11.1136C11.7095 12.8961 12.278 13.1429 12.6945 13.5746C13.1109 14.0063 13.3413 14.5877 13.3351 15.1913V18.3751C13.3351 18.5494 13.3751 18.7212 13.4519 18.8772C13.5287 19.0331 13.6402 19.1688 13.7776 19.2736C13.915 19.3785 14.0746 19.4495 14.2438 19.4812C14.4129 19.5129 14.587 19.5044 14.7524 19.4563C16.4323 18.9534 17.8785 17.8573 18.8288 16.3669C19.779 14.8764 20.1703 13.0903 19.9317 11.3326C19.6931 9.57495 18.8403 7.96214 17.5281 6.78679C16.2159 5.61145 14.5312 4.95144 12.7797 4.92651Z"
        fill="currentColor" />

</svg>
    