<svg width="14" height="14" viewBox="0 0 14 14" fill="none" xmlns="http://www.w3.org/2000/svg">
<path d="M12.7044 6.8C12.3101 6.8 11.9914 7.1136 11.9914 7.5C11.9914 10.202 9.75198 12.4 7.00065 12.4C5.6831 12.4 4.43612 11.882 3.51498 11H5.57473C5.96899 11 6.28769 10.6864 6.28769 10.3C6.28769 9.9136 5.96899 9.6 5.57473 9.6H2.19029C2.04912 9.5713 1.90154 9.5881 1.76109 9.649C1.74825 9.6539 1.73471 9.656 1.72187 9.6616C1.7126 9.6665 1.70262 9.6658 1.69335 9.6707C1.6741 9.6819 1.66341 9.7001 1.64487 9.712C1.44025 9.8359 1.29695 10.0473 1.29695 10.3V13.8C1.29695 14.1864 1.61564 14.5 2.00991 14.5C2.40418 14.5 2.72287 14.1864 2.72287 13.8V12.176C3.885 13.1987 5.40005 13.8 7.00065 13.8C10.5391 13.8 13.4173 10.9734 13.4173 7.5C13.4173 7.1136 13.0986 6.8 12.7044 6.8Z" fill="white"/>
<path d="M2.00991 7.5C2.00991 4.798 4.24933 2.6 7.00065 2.6C8.31821 2.6 9.56518 3.118 10.4863 4H8.42658C8.03231 4 7.71361 4.3136 7.71361 4.7C7.71361 5.0864 8.03231 5.4 8.42658 5.4H11.8096C11.9515 5.4294 12.1005 5.4119 12.2409 5.3503C12.2538 5.3454 12.2673 5.3433 12.2801 5.3377C12.2894 5.3328 12.2994 5.3335 12.3087 5.3286C12.3279 5.3174 12.3386 5.2992 12.3571 5.2873C12.561 5.1641 12.7044 4.9527 12.7044 4.7V1.2C12.7044 0.8136 12.3857 0.5 11.9914 0.5C11.5971 0.5 11.2784 0.8136 11.2784 1.2V2.824C10.1163 1.8013 8.60125 1.2 7.00065 1.2C3.46222 1.2 0.583984 4.0266 0.583984 7.5C0.583984 7.8864 0.902679 8.2 1.29695 8.2C1.69122 8.2 2.00991 7.8864 2.00991 7.5Z" fill="white"/>
</svg>
