<svg width="14" height="14" viewBox="0 0 14 14" fill="currentColor"
    xmlns="http://www.w3.org/2000/svg">
    <g clip-path="url(#clip0_6255_1828)">
        <mask id="mask0_6255_1828" style="mask-type:alpha" maskUnits="userSpaceOnUse" x="0" y="0"
            width="14" height="14">
            <rect width="14" height="14" fill="currentColor" />
        </mask>
        <g mask="url(#mask0_6255_1828)">
            <path fill-rule="evenodd" clip-rule="evenodd"
                d="M1.55556 0C1.143 0 0.747335 0.163888 0.455612 0.455612C0.163888 0.747335 0 1.143 0 1.55556V12.4444C0 12.857 0.163888 13.2527 0.455612 13.5444C0.747335 13.8361 1.143 14 1.55556 14H12.4444C12.857 14 13.2527 13.8361 13.5444 13.5444C13.8361 13.2527 14 12.857 14 12.4444V3.43311C13.9999 3.02059 13.836 2.62499 13.5442 2.33333L11.6667 0.455778C11.375 0.164034 10.9794 8.81026e-05 10.5669 0H1.55556ZM9.33333 8.55556C9.33333 9.17439 9.0875 9.76789 8.64992 10.2055C8.21233 10.6431 7.61884 10.8889 7 10.8889C6.38116 10.8889 5.78767 10.6431 5.35008 10.2055C4.9125 9.76789 4.66667 9.17439 4.66667 8.55556C4.66667 7.93672 4.9125 7.34322 5.35008 6.90564C5.78767 6.46805 6.38116 6.22222 7 6.22222C7.61884 6.22222 8.21233 6.46805 8.64992 6.90564C9.0875 7.34322 9.33333 7.93672 9.33333 8.55556ZM3.88889 3.11111V1.55556H10.1111V3.11111C10.1111 3.31739 10.0292 3.51522 9.88331 3.66108C9.73744 3.80694 9.53961 3.88889 9.33333 3.88889H4.66667C4.46039 3.88889 4.26256 3.80694 4.11669 3.66108C3.97083 3.51522 3.88889 3.31739 3.88889 3.11111Z"
                fill="currentColor" />
        </g>
    </g>
    <defs>
        <clipPath id="clip0_6255_1828">
            <rect width="14" height="14" fill="currentColor" />
        </clipPath>
    </defs>
</svg>
    