<svg viewBox="0 0 20 20" fill="none" xmlns="http://www.w3.org/2000/svg">

<path d="M19.707 11.2562C17.53 13.3754 13.765 14.4355 10 14.4355C6.235 14.4355 2.47 13.3754 0.293 11.2562L0 10.971V17.2196C0 17.736 0.210714 18.2312 0.585786 18.5963C0.960859 18.9615 1.46957 19.1666 2 19.1666H18C18.5304 19.1666 19.0391 18.9615 19.4142 18.5963C19.7893 18.2312 20 17.736 20 17.2196V10.971L19.707 11.2562Z" fill="currentColor"/>
<path d="M18 4.72713H15V3.75366C15 2.97912 14.6839 2.2363 14.1213 1.68862C13.5587 1.14094 12.7956 0.833252 12 0.833252H8C7.20435 0.833252 6.44129 1.14094 5.87868 1.68862C5.31607 2.2363 5 2.97912 5 3.75366V4.72713H2C1.46957 4.72713 0.960859 4.93225 0.585786 5.29737C0.210714 5.66249 0 6.1577 0 6.67406V8.21799L1.707 9.8797C5.35 13.4231 14.65 13.4231 18.293 9.8797L20 8.21799V6.67406C20 6.1577 19.7893 5.66249 19.4142 5.29737C19.0391 4.93225 18.5304 4.72713 18 4.72713ZM10 10.5679C9.80222 10.5679 9.60888 10.5108 9.44443 10.4039C9.27998 10.2969 9.15181 10.1449 9.07612 9.967C9.00043 9.78912 8.98063 9.59339 9.01921 9.40456C9.0578 9.21572 9.15304 9.04226 9.29289 8.90612C9.43275 8.76998 9.61093 8.67727 9.80491 8.63971C9.99889 8.60214 10.2 8.62142 10.3827 8.6951C10.5654 8.76878 10.7216 8.89355 10.8315 9.05364C10.9414 9.21373 11 9.40194 11 9.59447C11 9.85265 10.8946 10.1003 10.7071 10.2828C10.5196 10.4654 10.2652 10.5679 10 10.5679ZM13 4.72713H7V3.75366C7 3.49548 7.10536 3.24787 7.29289 3.06531C7.48043 2.88275 7.73478 2.78019 8 2.78019H12C12.2652 2.78019 12.5196 2.88275 12.7071 3.06531C12.8946 3.24787 13 3.49548 13 3.75366V4.72713Z" fill="currentColor"/>
</svg>
