<svg viewBox="0 0 12 11" fill="currentColor" xmlns="http://www.w3.org/2000/svg"> 
<path d="M8.75821 5.47489C8.75821 5.12457 8.63247 4.80075 8.41351 4.58659L5.21864 1.45877C4.95152 1.19677 4.60682 1.14084 4.29715 1.31305C3.96059 1.49704 3.75164 1.90034 3.75164 2.36326V3.25892C1.65593 3.46646 0 5.74204 0 8.50924V9.48732C0 9.94362 0.249609 10.3263 0.607444 10.4168C0.660619 10.4293 0.712543 10.436 0.763841 10.436C1.05036 10.436 1.3106 10.2351 1.43947 9.89799C1.89553 8.70794 2.76321 7.92562 3.75164 7.78873V8.58725C3.75164 9.05017 3.96059 9.45273 4.29715 9.6382C4.60682 9.80894 4.95089 9.75448 5.21802 9.49321L8.41351 6.36466C8.63247 6.14976 8.75821 5.8252 8.75821 5.47489Z" fill="currentColor"/>
<path d="M11.5771 4.33121L8.12574 0.688959C7.86737 0.415919 7.47326 0.442413 7.24179 0.744891C7.01095 1.04737 7.03284 1.51323 7.28996 1.78406L10.7419 5.47415L7.23178 9.2187C6.97591 9.49174 6.95652 9.9576 7.18861 10.2586C7.31185 10.419 7.48201 10.5 7.65217 10.5C7.80169 10.5 7.95245 10.4367 8.07194 10.3094L11.5821 6.56484C11.8486 6.28076 12.0006 5.87378 12 5.44692C11.9987 5.0208 11.8449 4.61382 11.5771 4.33121Z" fill="currentColor"/>
</svg>
