<svg viewBox="0 0 20 20" fill="currentColor" xmlns="http://www.w3.org/2000/svg">

<path d="M18.351 3.0627L10.351 0.0626497C10.1251 -0.0208832 9.87686 -0.0208832 9.651 0.0626497L1.651 3.0627C1.45989 3.13387 1.29511 3.26178 1.17876 3.42925C1.0624 3.59673 1.00003 3.79578 1 3.99972C1.02861 7.12871 1.81388 10.2043 3.28879 12.964C4.7637 15.7237 6.88444 18.0856 9.47 19.848C9.62893 19.9473 9.81258 20 10 20C10.1874 20 10.3711 19.9473 10.53 19.848C13.1156 18.0856 15.2363 15.7237 16.7112 12.964C18.1861 10.2043 18.9714 7.12871 19 3.99972C19.0001 3.79602 18.938 3.59714 18.8221 3.42969C18.7061 3.26224 18.5417 3.1342 18.351 3.0627ZM14.707 7.70678L9.707 12.7069C9.51951 12.8944 9.26519 12.9998 9 12.9999C8.967 12.9999 8.935 12.9999 8.9 12.9949C8.75289 12.9803 8.61086 12.9332 8.48411 12.8572C8.35736 12.7811 8.24906 12.6778 8.167 12.5549L6.167 9.55482C6.09412 9.44555 6.04347 9.32301 6.01794 9.19417C5.99242 9.06533 5.99252 8.93273 6.01824 8.80393C6.04396 8.67514 6.0948 8.55267 6.16785 8.44352C6.24091 8.33437 6.33474 8.24068 6.444 8.16779C6.55326 8.09491 6.67581 8.04426 6.80464 8.01873C6.93347 7.99321 7.06607 7.99331 7.19487 8.01903C7.32366 8.04475 7.44613 8.09559 7.55528 8.16864C7.66443 8.2417 7.75812 8.33553 7.831 8.4448L9.154 10.4308L13.292 6.29276C13.4806 6.1106 13.7332 6.0098 13.9954 6.01208C14.2576 6.01436 14.5084 6.11953 14.6938 6.30494C14.8792 6.49035 14.9844 6.74117 14.9867 7.00337C14.989 7.26557 14.8882 7.51818 14.706 7.70678H14.707Z" fill="currentColor"/>

</svg>
