<svg viewBox="0 0 20 21" fill="currentColor" xmlns="http://www.w3.org/2000/svg">

<path d="M18.5083 3.5627L10.3601 0.56265C10.1301 0.479117 9.87718 0.479117 9.64714 0.56265L1.49899 3.5627C1.30435 3.63387 1.13652 3.76178 1.018 3.92925C0.899491 4.09673 0.835963 4.29578 0.835938 4.49972C0.865592 7.62861 1.66563 10.704 3.1678 13.4637C4.66998 16.2233 6.82972 18.5852 9.46279 20.348C9.62467 20.4473 9.81171 20.5 10.0026 20.5C10.1935 20.5 10.3805 20.4473 10.5424 20.348C13.1755 18.5852 15.3352 16.2233 16.8374 13.4637C18.3396 10.704 19.1396 7.62861 19.1693 4.49972C19.1694 4.29602 19.1062 4.09714 18.988 3.92969C18.8699 3.76224 18.7025 3.6342 18.5083 3.5627Z" fill="currentColor"/>

</svg>
