<svg viewBox="0 0 20 20" fill="none" xmlns="http://www.w3.org/2000/svg">
<path d="M17.1297 1H13.791C13.6136 0.696959 13.3582 0.445042 13.0503 0.269523C12.7425 0.0940032 12.3931 0.00105394 12.0371 0H7.963C7.60702 0.00105394 7.25758 0.0940032 6.94974 0.269523C6.6419 0.445042 6.38648 0.696959 6.20912 1H2.87041C2.33016 1 1.81203 1.21071 1.43001 1.58579C1.04799 1.96086 0.833374 2.46957 0.833374 3V18C0.833374 18.5304 1.04799 19.0391 1.43001 19.4142C1.81203 19.7893 2.33016 20 2.87041 20H17.1297C17.6699 20 18.1881 19.7893 18.5701 19.4142C18.9521 19.0391 19.1667 18.5304 19.1667 18V3C19.1667 2.46957 18.9521 1.96086 18.5701 1.58579C18.1881 1.21071 17.6699 1 17.1297 1ZM7.963 2H12.0371V5H7.963V2ZM13.7686 10.289L9.71995 14.146C9.52989 14.3271 9.27543 14.4284 9.01055 14.4284C8.74567 14.4284 8.49122 14.3271 8.30115 14.146L6.23152 12.182C6.13549 12.0901 6.05883 11.9805 6.00594 11.8595C5.95304 11.7385 5.92494 11.6084 5.92324 11.4767C5.92154 11.3451 5.94627 11.2143 5.99602 11.0921C6.04577 10.9698 6.11956 10.8583 6.21319 10.764C6.30682 10.6697 6.41844 10.5945 6.5417 10.5425C6.66495 10.4906 6.79741 10.463 6.93152 10.4613C7.06563 10.4597 7.19877 10.4839 7.32332 10.5328C7.44788 10.5816 7.56141 10.6541 7.65745 10.746L9.01004 12.035L12.3508 8.854C12.4458 8.75829 12.5594 8.68226 12.6849 8.6304C12.8104 8.57855 12.9452 8.55191 13.0813 8.55208C13.2175 8.55225 13.3522 8.57922 13.4776 8.63139C13.6029 8.68355 13.7163 8.75987 13.8111 8.85581C13.9059 8.95176 13.9802 9.06539 14.0295 9.18999C14.0788 9.31458 14.1021 9.44762 14.0981 9.58123C14.0942 9.71485 14.063 9.84632 14.0064 9.96789C13.9497 10.0895 13.8689 10.1986 13.7686 10.289Z" fill="currentColor"/>
</svg>
