<svg  viewBox="0 0 20 20" fill="currentColor" xmlns="http://www.w3.org/2000/svg">


<path d="M9.7607 15.2924L8.26595 16.5853V8.99956C8.26595 8.73435 8.14416 8.48 7.92736 8.29247C7.71056 8.10494 7.41652 7.99959 7.10992 7.99959C6.80332 7.99959 6.50928 8.10494 6.29248 8.29247C6.07569 8.48 5.95389 8.73435 5.95389 8.99956V16.5853L4.45914 15.2924C4.24111 15.1102 3.94909 15.0094 3.64599 15.0117C3.34288 15.014 3.05293 15.1191 2.83859 15.3045C2.62426 15.4899 2.50268 15.7407 2.50004 16.0029C2.49741 16.2651 2.61393 16.5177 2.82451 16.7063L6.29261 19.7062C6.39999 19.7993 6.52756 19.8732 6.66801 19.9236C6.80845 19.9741 6.95902 20 7.11108 20C7.26314 20 7.4137 19.9741 7.55415 19.9236C7.69459 19.8732 7.82216 19.7993 7.92955 19.7062L11.3976 16.7063C11.6082 16.5177 11.7247 16.2651 11.7221 16.0029C11.7195 15.7407 11.5979 15.4899 11.3836 15.3045C11.1692 15.1191 10.8793 15.014 10.5762 15.0117C10.2731 15.0094 9.98104 15.1102 9.76301 15.2924H9.7607Z" fill="currentColor"/>
<path d="M17.1755 3.29273L13.7074 0.292829C13.5997 0.199512 13.4716 0.125738 13.3305 0.0758353C13.0477 -0.0252784 12.7301 -0.0252784 12.4473 0.0758353C12.3062 0.125738 12.1781 0.199512 12.0705 0.292829L8.60236 3.29273C8.39178 3.48133 8.27526 3.73393 8.27789 3.99611C8.28052 4.2583 8.4021 4.50911 8.61644 4.69451C8.83078 4.87991 9.12072 4.98508 9.42383 4.98736C9.72694 4.98963 10.019 4.88884 10.237 4.70669L11.734 3.41373V10.9995C11.734 11.2647 11.8558 11.519 12.0726 11.7066C12.2894 11.8941 12.5835 11.9995 12.8901 11.9995C13.1967 11.9995 13.4907 11.8941 13.7075 11.7066C13.9243 11.519 14.0461 11.2647 14.0461 10.9995V3.41373L15.5409 4.70669C15.7589 4.88884 16.0509 4.98963 16.354 4.98736C16.6571 4.98508 16.9471 4.87991 17.1614 4.69451C17.3757 4.50911 17.4973 4.2583 17.5 3.99611C17.5026 3.73393 17.3861 3.48133 17.1755 3.29273Z" fill="currentColor"/>

</svg>
