<svg viewBox="0 0 20 20" fill="currentColor" xmlns="http://www.w3.org/2000/svg">
<path d="M17.367 18.3334H1.57882C1.16009 18.3334 0.75851 18.1688 0.462425 17.8758C0.166339 17.5827 0 17.1853 0 16.7709V3.22925C0 2.81485 0.166339 2.41742 0.462425 2.12439C0.75851 1.83137 1.16009 1.66675 1.57882 1.66675C1.99754 1.66675 2.39912 1.83137 2.69521 2.12439C2.99129 2.41742 3.15763 2.81485 3.15763 3.22925V15.2084H17.367C17.7857 15.2084 18.1873 15.373 18.4834 15.6661C18.7795 15.9591 18.9458 16.3565 18.9458 16.7709C18.9458 17.1853 18.7795 17.5827 18.4834 17.8758C18.1873 18.1688 17.7857 18.3334 17.367 18.3334Z" fill="currentColor"/>
<path d="M5.78899 14.1667C5.49579 14.1667 5.20837 14.0859 4.95896 13.9334C4.70954 13.7808 4.50798 13.5626 4.37686 13.303C4.24573 13.0435 4.19022 12.7529 4.21656 12.4639C4.24289 12.1749 4.35002 11.8989 4.52594 11.6667L7.68357 7.50008C7.92572 7.18059 8.2823 6.965 8.68006 6.89758C9.07782 6.83016 9.48657 6.91604 9.82234 7.13758L11.6022 8.31154L13.9083 4.50946C14.0182 4.32813 14.1641 4.17075 14.3372 4.04686C14.5103 3.92297 14.7071 3.83513 14.9155 3.78868C15.1239 3.74223 15.3397 3.73812 15.5497 3.77661C15.7598 3.81509 15.9598 3.89537 16.1376 4.01258L19.2952 6.09591C19.6442 6.32577 19.8866 6.68339 19.9691 7.09011C20.0516 7.49683 19.9675 7.91933 19.7352 8.26466C19.5029 8.61 19.1416 8.84988 18.7306 8.93154C18.3197 9.01319 17.8927 8.92994 17.5438 8.70008L15.764 7.52612L13.4578 11.3282C13.348 11.5095 13.202 11.6669 13.0289 11.7908C12.8558 11.9147 12.6591 12.0025 12.4507 12.049C12.2423 12.0954 12.0265 12.0995 11.8164 12.0611C11.6063 12.0226 11.4063 11.9423 11.2285 11.8251L9.31396 10.5615L7.05204 13.5417C6.90498 13.7358 6.71429 13.8933 6.49506 14.0018C6.27583 14.1103 6.0341 14.1667 5.78899 14.1667Z" fill="currentColor"/>
</svg>
