<svg  viewBox="0 0 20 24" fill="currentColor" xmlns="http://www.w3.org/2000/svg">
<path d="M6.25 6V0.156C5.6475 0.3216 5.08875 0.6168 4.63375 1.0548L1.09875 4.4484C0.64375 4.8852 0.33625 5.4216 0.1625 6H6.25Z" fill="currentColor"/>
<path d="M17.5825 0H8.75V6C8.75 7.3236 7.62875 8.4 6.25 8.4H0V21.6C0 22.9236 1.08375 24 2.4175 24H17.5837C18.9162 24 20 22.9236 20 21.6V2.4C20 1.0764 18.9163 0 17.5825 0ZM14.6337 12.8484L9.63375 17.6484C9.39 17.8824 9.07 18 8.75 18C8.43 18 8.11 17.8824 7.86625 17.6484L5.36625 15.2484C4.8775 14.7792 4.8775 14.0208 5.36625 13.5516C5.855 13.0824 6.645 13.0824 7.13375 13.5516L8.75 15.1032L12.8663 11.1516C13.355 10.6824 14.145 10.6824 14.6337 11.1516C15.1225 11.6208 15.1225 12.3792 14.6337 12.8484Z" fill="currentColor"/>
</svg>
