<svg   viewBox="0 0 12 12" fill="currentColor" xmlns="http://www.w3.org/2000/svg">
<path d="M10.8 1.5H1.2C0.88174 1.5 0.576515 1.63546 0.351472 1.87658C0.126428 2.1177 0 2.44472 0 2.78571V9.21429C0 9.55528 0.126428 9.8823 0.351472 10.1234C0.576515 10.3645 0.88174 10.5 1.2 10.5H10.8C11.1183 10.5 11.4235 10.3645 11.6485 10.1234C11.8736 9.8823 12 9.55528 12 9.21429V2.78571C12 2.44472 11.8736 2.1177 11.6485 1.87658C11.4235 1.63546 11.1183 1.5 10.8 1.5ZM1.2 5.35714H5.4V9.21429H1.2V5.35714ZM6.6 9.21429V5.35714H10.8V9.21429H6.6Z" fill="currentColor"/>
</svg>
