<svg viewBox="0 0 20 20" fill="none" xmlns="http://www.w3.org/2000/svg">
<path d="M10.8842 5.80786C10.9601 5.46323 10.9994 5.10516 10.9994 4.73653C10.9994 2.12059 8.98442 0 6.5 0C4.01462 0 2.00059 2.12059 2.00059 4.73653C2.00059 7.29487 3.92823 9.37897 6.33681 9.47017C6.40401 9.36266 6.47601 9.26186 6.5528 9.1697L6.6488 9.06122C6.80336 8.89227 6.97135 8.74539 7.15375 8.62443C7.24207 8.56587 7.33326 8.51404 7.42638 8.46892C7.50318 8.42764 7.57998 8.39116 7.65774 8.35852L7.83629 8.29132C7.95917 8.2462 8.07533 8.21068 8.18476 8.18572C8.22124 8.02733 8.2798 7.85357 8.35756 7.66734L8.36044 7.66062C8.42956 7.48878 8.52076 7.3227 8.63019 7.15951L8.62443 7.15567C8.76843 6.93871 8.94891 6.74096 9.16106 6.56432L9.17066 6.55664C9.33578 6.41841 9.52777 6.29457 9.74185 6.18705C9.81097 6.15153 9.882 6.12081 9.95304 6.09393C10.1134 6.0277 10.2785 5.9701 10.4474 5.92114C10.6058 5.87506 10.7517 5.83858 10.8842 5.8117V5.80786ZM12.1005 16.2678C10.9428 16.2678 9.95976 15.8627 9.14954 15.0524C8.33932 14.2422 7.93421 13.2592 7.93421 12.1015C7.93421 11.8701 7.95245 11.6388 7.98605 11.4074C8.02061 11.1761 8.08493 10.9562 8.17708 10.7479C8.23468 10.6327 8.30668 10.5453 8.39404 10.4877C8.4814 10.4292 8.57643 10.3889 8.68011 10.3668C8.78475 10.3438 8.89131 10.3466 9.0017 10.3754C9.1121 10.4042 9.2129 10.4657 9.30602 10.5578L11.129 12.3799L12.3789 11.13L10.5569 9.30698C10.4647 9.21482 10.4033 9.11306 10.3745 9.00266C10.3457 8.89227 10.3428 8.78571 10.3658 8.68107C10.3889 8.57643 10.4292 8.4814 10.4868 8.395C10.5444 8.3086 10.6317 8.2366 10.7469 8.17804C10.9553 8.08589 11.1751 8.02157 11.4064 7.98701C11.6378 7.95245 11.8692 7.93517 12.1005 7.93517C13.2582 7.93517 14.2413 8.34028 15.0515 9.1505C15.8617 9.96072 16.2668 10.9447 16.2668 12.1015C16.2668 12.3674 16.2428 12.6199 16.1967 12.857C16.1507 13.0941 16.0815 13.3283 15.9884 13.5597L19.4952 17.0319C19.8302 17.3679 19.9982 17.7788 19.9982 18.2645C19.9982 18.7503 19.8302 19.1611 19.4952 19.4971C19.1592 19.8322 18.7484 20.0002 18.2626 20.0002C17.7769 20.0002 17.366 19.8264 17.03 19.4789L13.5578 15.9894C13.3264 16.0825 13.0922 16.1516 12.8551 16.1977C12.6179 16.2438 12.3655 16.2678 12.0996 16.2678H12.1005ZM5.89426 10.5252H4.99956C3.67383 10.5271 2.40378 11.082 1.46588 12.0688C0.528947 13.0547 0.00191995 14.3929 0 15.7878V18.9451C0 19.2255 0.104637 19.4923 0.292793 19.6901C0.479988 19.8878 0.735342 19.9982 1.0003 19.9982H11.9997C12.2647 19.9982 12.52 19.8878 12.7072 19.6901C12.8954 19.4923 13 19.2255 13 18.9451V18.5928L12.8618 18.4536L12.689 18.4709C12.4355 18.494 12.2368 18.5064 12.1015 18.5064C11.2413 18.5064 10.4225 18.3461 9.64681 18.0274C8.86827 17.7068 8.1742 17.2421 7.56654 16.6345L7.43118 16.4857C6.88496 15.9068 6.46545 15.2627 6.17457 14.5542C5.85586 13.7795 5.69554 12.9606 5.69554 12.0996C5.69554 11.7703 5.72242 11.4295 5.77426 11.082L5.77618 11.0733C5.79922 10.913 5.83954 10.7287 5.89618 10.5242L5.89426 10.5252Z" fill="currentColor"/>
</svg>
