<svg   width="24" height="24" viewBox="0 0 24 24" fill="none" xmlns="http://www.w3.org/2000/svg">
<path d="M20.0739 0.010551L12.4139 0C11.7198 0.00209914 11.0545 0.279784 10.5621 0.772871L0.766349 10.6435C0.275656 11.1381 0 11.8089 0 12.5084C0 13.2078 0.275656 13.8786 0.766349 14.3733L9.55046 23.227C9.79352 23.4721 10.0821 23.6665 10.3997 23.7991C10.7174 23.9317 11.0578 24 11.4016 24C11.7455 24 12.0859 23.9317 12.4035 23.7991C12.7212 23.6665 13.0098 23.4721 13.2528 23.227L23.1546 13.2456C23.4211 12.9986 23.6338 12.6985 23.7794 12.3643C23.9249 12.0301 24 11.6692 24 11.3042V3.96723C24 2.91785 23.5864 1.91146 22.8501 1.16944C22.1138 0.427414 21.1151 0.010551 20.0739 0.010551ZM18.7651 7.25391C18.7651 7.64519 18.65 8.02768 18.4343 8.35302C18.2186 8.67836 17.912 8.93193 17.5533 9.08166C17.1946 9.2314 16.7999 9.27058 16.4191 9.19424C16.0383 9.11791 15.6885 8.92949 15.414 8.65281C15.1394 8.37614 14.9524 8.02363 14.8767 7.63987C14.801 7.25611 14.8398 6.85833 14.9884 6.49684C15.137 6.13534 15.3886 5.82637 15.7114 5.60898C16.0343 5.3916 16.4138 5.27557 16.8021 5.27557C17.3227 5.27557 17.822 5.484 18.1902 5.85502C18.5583 6.22603 18.7651 6.72923 18.7651 7.25391Z" fill="currentColor"/>
</svg>