<svg viewBox="0 0 20 20" fill="currentColor" xmlns="http://www.w3.org/2000/svg">
<g clip-path="url(#clip0_2629_17014)">
<mask id="mask0_2629_17014" style="mask-type:alpha" maskUnits="userSpaceOnUse" x="0" y="0">
<rect fill="currentColor"/>
</mask>
<g mask="url(#mask0_2629_17014)">
<path d="M18 17.5H2C1.46957 17.5 0.960859 17.2742 0.585786 16.8724C0.210714 16.4705 0 15.9255 0 15.3571V12.6786C0 12.3944 0.105357 12.1219 0.292893 11.921C0.48043 11.72 0.734784 11.6071 1 11.6071C1.39782 11.6071 1.77936 11.4378 2.06066 11.1364C2.34196 10.835 2.5 10.4262 2.5 10C2.5 9.57376 2.34196 9.16498 2.06066 8.86358C1.77936 8.56218 1.39782 8.39286 1 8.39286C0.734784 8.39286 0.48043 8.27997 0.292893 8.07904C0.105357 7.87811 0 7.60559 0 7.32143V4.64286C0 4.07454 0.210714 3.52949 0.585786 3.12763C0.960859 2.72576 1.46957 2.5 2 2.5H18C18.5304 2.5 19.0391 2.72576 19.4142 3.12763C19.7893 3.52949 20 4.07454 20 4.64286V7.32143C20 7.60559 19.8946 7.87811 19.7071 8.07904C19.5196 8.27997 19.2652 8.39286 19 8.39286C18.6022 8.39286 18.2206 8.56218 17.9393 8.86358C17.658 9.16498 17.5 9.57376 17.5 10C17.5 10.4262 17.658 10.835 17.9393 11.1364C18.2206 11.4378 18.6022 11.6071 19 11.6071C19.2652 11.6071 19.5196 11.72 19.7071 11.921C19.8946 12.1219 20 12.3944 20 12.6786V15.3571C20 15.9255 19.7893 16.4705 19.4142 16.8724C19.0391 17.2742 18.5304 17.5 18 17.5Z" fill="currentColor"/>
</g>
</g>
<defs>
<clipPath id="clip0_2629_17014">
<rect fill="currentColor"/>
</clipPath>
</defs>
</svg>
