<svg viewBox="0 0 14 11" fill="none" xmlns="http://www.w3.org/2000/svg">
    <path
        d="M12.6 10.75H1.4C1.0287 10.75 0.672601 10.592 0.41005 10.3107C0.1475 10.0294 0 9.64782 0 9.25V7.375C0 7.17609 0.0737498 6.98532 0.205025 6.84467C0.336301 6.70402 0.514348 6.625 0.7 6.625C0.978477 6.625 1.24555 6.50647 1.44246 6.2955C1.63938 6.08452 1.75 5.79837 1.75 5.5C1.75 5.20163 1.63938 4.91548 1.44246 4.7045C1.24555 4.49353 0.978477 4.375 0.7 4.375C0.514348 4.375 0.336301 4.29598 0.205025 4.15533C0.0737498 4.01468 0 3.82391 0 3.625V1.75C0 1.35218 0.1475 0.970644 0.41005 0.68934C0.672601 0.408035 1.0287 0.25 1.4 0.25H12.6C12.9713 0.25 13.3274 0.408035 13.5899 0.68934C13.8525 0.970644 14 1.35218 14 1.75V3.625C14 3.82391 13.9263 4.01468 13.795 4.15533C13.6637 4.29598 13.4857 4.375 13.3 4.375C13.0215 4.375 12.7545 4.49353 12.5575 4.7045C12.3606 4.91548 12.25 5.20163 12.25 5.5C12.25 5.79837 12.3606 6.08452 12.5575 6.2955C12.7545 6.50647 13.0215 6.625 13.3 6.625C13.4857 6.625 13.6637 6.70402 13.795 6.84467C13.9263 6.98532 14 7.17609 14 7.375V9.25C14 9.64782 13.8525 10.0294 13.5899 10.3107C13.3274 10.592 12.9713 10.75 12.6 10.75Z"
        fill="currentColor" />
</svg>
    