<svg viewBox="0 0 20 20" fill="none" xmlns="http://www.w3.org/2000/svg">
<path fill-rule="evenodd" clip-rule="evenodd" d="M17.4844 17.8912C17.4844 18.1561 17.374 18.4105 17.1945 18.5987C17.0044 18.7859 16.7538 18.8915 16.4841 18.8915C16.2143 18.8915 15.9638 18.7859 15.7747 18.5987C15.5942 18.4115 15.4847 18.1571 15.4847 17.8912V16.0317H9.19879C9.22855 16.2112 9.24487 16.3917 9.24775 16.5616C9.24775 17.4822 8.90599 18.3519 8.29545 19.0019C7.68682 19.6422 6.85931 20.0022 5.99725 20.0022C5.13519 20.0022 4.30864 19.6422 3.69905 19.0019C3.08946 18.3519 2.74675 17.4822 2.74675 16.5616C2.75059 16.3917 2.76787 16.2112 2.79763 16.0317H1.00055C0.73559 16.0317 0.480235 15.9213 0.293999 15.7216C0.105842 15.5315 0.000244141 15.2618 0.000244141 14.9814C0.000244141 13.3245 0.000244141 14.6877 0.000244141 13.0317C0.000244141 12.7668 0.110642 12.5124 0.290159 12.3242C0.480235 12.137 0.72983 12.0314 0.999585 12.0314C3.5541 12.0314 9.7287 12.0314 14.2982 12.0314V11.0436C14.2982 10.7671 14.3961 10.5185 14.591 10.3207C14.7782 10.1412 15.0326 10.0308 15.2985 10.0308H18.9992C19.2642 10.0308 19.5186 10.1412 19.7067 10.3207C19.8939 10.5108 19.9995 10.7614 19.9995 11.0311C19.9995 11.3009 19.8939 11.5514 19.7067 11.7406C19.5196 11.921 19.2652 12.0305 18.9992 12.0305H17.4834C17.4834 14.3536 17.4834 15.567 17.4834 17.8902L17.4844 17.8912ZM6.25068 8.36525C6.08845 8.77613 5.85229 9.15244 5.54894 9.47499C4.94031 10.1153 4.11281 10.4753 3.25074 10.4753C2.38868 10.4753 1.56213 10.1153 0.952546 9.47499C0.342958 8.82509 0.000244141 7.95534 0.000244141 7.03472C0.000244141 6.1141 0.341998 5.24435 0.952546 4.59445C1.3183 4.21045 1.76277 3.9263 2.24564 3.76118V1.01276V1.00028V0.987796V0.975316V0.962837V0.951317V0.950357L2.2466 0.938837V0.937877L2.24756 0.927317V0.925397L2.24852 0.914838V0.912918L2.24948 0.902358V0.900438L2.25044 0.890838V0.887958L2.25236 0.878358V0.875478L2.25428 0.865879C2.28116 0.669082 2.36372 0.487646 2.49524 0.336929L2.4962 0.335969L2.50292 0.328289L2.50388 0.326369L2.5106 0.319649L2.51252 0.317729L2.51924 0.311009L2.52116 0.309089L2.52788 0.302369L2.5298 0.300449L2.53556 0.29373L2.53844 0.29085L2.54516 0.28509L2.54708 0.28317L2.5538 0.27645L2.55572 0.27453L2.56244 0.26781L2.56435 0.26589L2.57107 0.25917L2.57299 0.25725C2.75731 0.0921334 2.99155 -2.48713e-05 3.24402 -2.48713e-05H3.26898H7.73674C7.7713 -0.00194483 7.80681 -0.00194483 7.84233 -2.48713e-05C8.09769 0.0191748 8.34536 0.131493 8.522 0.323489L8.53064 0.333089C10.5216 2.55545 9.4455 1.36219 11.4365 3.58455L11.4451 3.59319V3.56535V1.99962V0.999316V0.986836C11.449 0.725721 11.5575 0.477086 11.7351 0.29181C11.9251 0.104613 12.1747 -0.000984853 12.4445 -0.000984853C12.7142 -0.000984853 12.9648 0.104613 13.1549 0.29181C13.3344 0.479006 13.4448 0.733401 13.4448 0.999316C13.4448 3.32247 13.4448 3.15255 13.4448 5.47571H14.9606C15.2256 5.47571 15.4799 5.58611 15.6681 5.76562C15.8553 5.9557 15.9609 6.2053 15.9609 6.47505C15.9609 6.74481 15.8553 6.99536 15.6681 7.18544C15.4809 7.36495 15.2265 7.47535 14.9606 7.47535H12.9696C12.8784 8.22894 12.5558 8.9278 12.0442 9.47307C11.4355 10.1134 10.608 10.4734 9.74598 10.4734C8.88391 10.4734 8.05737 10.1134 7.44778 9.47307C7.14539 9.15052 6.90827 8.77325 6.74603 8.36333H6.24492L6.25068 8.36525ZM7.34218 2.00154H5.88781H4.2472V3.59511H5.88781H8.76488C8.37032 3.15255 8.37704 3.15735 7.34218 2.00154ZM8.5028 7.03472C8.5028 7.20848 8.53448 7.38319 8.59784 7.54447C8.69288 7.78447 8.85223 7.9947 9.05863 8.13486C9.26407 8.28462 9.50598 8.3643 9.7527 8.3643C10.0829 8.3643 10.4016 8.22414 10.6359 7.97454C10.8711 7.72495 11.0016 7.38415 11.0026 7.03472C11.0016 6.68433 10.8711 6.34449 10.6359 6.0949C10.4016 5.84434 10.0839 5.70515 9.7527 5.70515C9.50598 5.70515 9.26407 5.78482 9.05863 5.93458C8.85223 6.07474 8.69288 6.28497 8.59784 6.52497C8.53448 6.68625 8.5028 6.86192 8.5028 7.03472ZM2.00277 7.03472C2.00277 7.20848 2.03445 7.38319 2.0978 7.54447C2.19284 7.78447 2.3522 7.9947 2.5586 8.13486C2.76403 8.28462 3.00595 8.3643 3.25266 8.3643C3.5829 8.3643 3.90161 8.22414 4.13585 7.97454C4.37104 7.72495 4.5016 7.38415 4.50256 7.03472C4.5016 6.68433 4.37104 6.34449 4.13585 6.0949C3.90545 5.84914 3.59346 5.70899 3.26802 5.70515H3.25938H3.25266H3.2469H3.24114H3.23442C2.99347 5.70899 2.75827 5.78866 2.5586 5.93458C2.3522 6.07474 2.19284 6.28497 2.0978 6.52497C2.03445 6.68625 2.00277 6.86192 2.00277 7.03472ZM5.99917 17.8902C5.75245 17.8902 5.51054 17.8105 5.3051 17.6608C5.09871 17.5206 4.93935 17.3104 4.84431 17.0704C4.75023 16.8304 4.72527 16.5606 4.77327 16.3101C4.82127 16.0499 4.94031 15.8099 5.11503 15.6304C5.28974 15.4403 5.51342 15.3203 5.75533 15.2704C5.99821 15.2205 6.24972 15.2406 6.47724 15.3405C6.70668 15.4403 6.90155 15.6102 7.03883 15.831C7.17707 16.0509 7.25002 16.3005 7.25002 16.5606C7.24906 16.911 7.11851 17.2508 6.88331 17.5004C6.64908 17.751 6.33132 17.8902 6.00013 17.8902H5.99917Z" fill="currentColor"/>
</svg>
