<svg width="14" height="15" viewBox="0 0 14 15" fill="currentColor"
    xmlns="http://www.w3.org/2000/svg">
    <path
        d="M4.834 10.1692C3.49126 10.1692 2.35013 9.69873 1.40994 8.75854C0.470429 7.81902 0 6.6779 0 5.33449C0 5.06634 0.0208333 4.79752 0.0604838 4.52938C0.100806 4.26056 0.174731 4.00519 0.282258 3.76325C0.349462 3.62884 0.432795 3.52804 0.533601 3.46083C0.634408 3.39363 0.745295 3.34659 0.866262 3.32038C0.98723 3.29282 1.11156 3.29685 1.23925 3.33046C1.36693 3.36406 1.48454 3.43462 1.59207 3.54215L3.70766 5.65707L5.15725 4.20747L3.04233 2.09188C2.93481 1.98436 2.86357 1.86675 2.83064 1.73973C2.79704 1.61205 2.79368 1.48772 2.82056 1.36675C2.84677 1.24578 2.89381 1.1349 2.96169 1.03409C3.02889 0.933283 3.1297 0.84995 3.26411 0.782746C3.50537 0.675219 3.76075 0.601295 4.02956 0.560972C4.29771 0.521322 4.56653 0.500488 4.83467 0.500488C6.17808 0.500488 7.31921 0.970918 8.2594 1.91043C9.19891 2.85062 9.67001 3.99175 9.67001 5.33449C9.67001 5.64295 9.64246 5.93596 9.58869 6.2115C9.53493 6.48704 9.45496 6.75854 9.34743 7.02669L13.4166 11.0556C13.8058 11.4454 14 11.9218 14 12.4857C14 13.0495 13.8051 13.5267 13.4166 13.9165C13.0269 14.3056 12.5497 14.4998 11.9859 14.4998C11.422 14.4998 10.9455 14.2982 10.5558 13.8956L6.52687 9.84658C6.25806 9.95477 5.98655 10.0347 5.71168 10.0885C5.43615 10.1423 5.14381 10.1692 4.83467 10.1692H4.834Z"
        fill="currentColor" />
</svg>
    