<svg width="14" height="15" viewBox="0 0 14 15" fill="none" xmlns="http://www.w3.org/2000/svg">
<g clip-path="url(#clip0_2768_37602)">
<mask id="mask0_2768_37602" style="mask-type:alpha" maskUnits="userSpaceOnUse" x="0" y="0" width="14" height="15">
<rect y="0.5" width="14" height="14" fill="white"/>
</mask>
<g mask="url(#mask0_2768_37602)">
<path d="M12.5559 0.5H1.44416C0.647152 0.5 0 1.14715 0 1.94416V13.0566C0 13.8536 0.647152 14.5008 1.44416 14.5008H12.5559C13.3536 14.5008 14.0001 13.8536 14.0001 13.0566V1.94416C14.0001 1.14648 13.353 0.5 12.5559 0.5ZM5.28137 9.61859C4.21556 9.61859 3.30968 9.24495 2.56374 8.49901C1.8178 7.75307 1.44416 6.84652 1.44416 5.7807C1.44416 5.56767 1.46029 5.35464 1.49255 5.14162C1.52413 4.92859 1.58327 4.72631 1.66862 4.53411C1.72171 4.42726 1.78823 4.34729 1.8682 4.2942C1.94817 4.24044 2.03621 4.20348 2.13231 4.18198C2.22841 4.16047 2.32719 4.16316 2.42799 4.19004C2.5288 4.21625 2.62221 4.2727 2.70755 4.35804L4.38625 6.03674L5.53741 4.88558L3.85872 3.20688C3.77337 3.12153 3.71692 3.02812 3.69071 2.92732C3.66383 2.82652 3.66114 2.72773 3.68265 2.63164C3.70348 2.53554 3.74111 2.4475 3.79488 2.36753C3.84796 2.28756 3.92793 2.22103 4.03478 2.16794C4.22698 2.0826 4.42926 2.02346 4.64229 1.99188C4.85532 1.95962 5.06902 1.94349 5.28137 1.94349C6.34719 1.94349 7.25374 2.31713 7.99968 3.06307C8.74562 3.80901 9.11926 4.71489 9.11926 5.7807C9.11926 6.02599 9.09775 6.25783 9.05542 6.47624C9.01241 6.69464 8.94857 6.91036 8.86322 7.12339L12.0929 10.3208C12.4014 10.63 12.5566 11.0083 12.5566 11.4559C12.5566 11.9034 12.4021 12.2818 12.0929 12.5909C11.7838 12.8994 11.4055 13.0546 10.9579 13.0546C10.5103 13.0546 10.132 12.8947 9.82286 12.5748L6.62541 9.36121C6.41238 9.44655 6.19666 9.51039 5.97826 9.5534C5.75985 9.59574 5.528 9.61724 5.28272 9.61724L5.28137 9.61859Z" fill="#737373"/>
</g>
</g>
<defs>
<clipPath id="clip0_2768_37602">
<rect width="14" height="14" fill="white" transform="translate(0 0.5)"/>
</clipPath>
</defs>
</svg>
