<svg viewBox="0 0 20 20" fill="currentColor" xmlns="http://www.w3.org/2000/svg">
<path fill-rule="evenodd" clip-rule="evenodd" d="M17.4844 12.8604C17.4844 13.1254 17.374 13.3798 17.1945 13.568C17.0044 13.7552 16.7538 13.8608 16.4841 13.8608C16.2143 13.8608 15.9638 13.7552 15.7746 13.568C15.5942 13.3808 15.4847 13.1264 15.4847 12.8604V11.0009H9.19868C9.22844 11.1804 9.24476 11.3609 9.24764 11.5308C9.24764 12.4515 8.90588 13.3212 8.29532 13.9712C7.68668 14.6115 6.85917 14.9715 5.99709 14.9715C5.13502 14.9715 4.30846 14.6115 3.69886 13.9712C3.08927 13.3212 2.74655 12.4515 2.74655 11.5308C2.75039 11.3609 2.76767 11.1804 2.79743 11.0009H1.00032C0.735356 11.0009 0.479998 10.8905 0.293759 10.6909C0.105599 10.5008 0 10.231 0 9.9507C0 8.29374 0 9.65694 0 8.00095C0 7.73599 0.110399 7.48159 0.289919 7.29343C0.479998 7.10623 0.729596 7.00063 0.999355 7.00063C3.5539 7.00063 9.72859 7.00063 14.2982 7.00063V6.0128C14.2982 5.73632 14.3961 5.48768 14.591 5.28992C14.7782 5.1104 15.0326 5 15.2985 5H18.9993C19.2642 5 19.5186 5.1104 19.7068 5.28992C19.894 5.48 19.9996 5.73056 19.9996 6.00032C19.9996 6.27007 19.894 6.52063 19.7068 6.70975C19.5196 6.89023 19.2652 6.99967 18.9993 6.99967H17.4834C17.4834 9.32286 17.4834 10.5363 17.4834 12.8595L17.4844 12.8604ZM5.99805 12.8604C5.75133 12.8604 5.50941 12.7808 5.30397 12.631C5.09758 12.4908 4.93822 12.2806 4.84318 12.0406C4.7491 11.8006 4.72414 11.5308 4.77214 11.2803C4.82014 11.0201 4.93918 10.7801 5.1139 10.6006C5.28861 10.4105 5.51229 10.2905 5.75421 10.2406C5.99709 10.1907 6.24861 10.2109 6.47613 10.3107C6.70557 10.4105 6.90045 10.5805 7.03773 10.8013C7.17597 11.0211 7.24893 11.2707 7.24893 11.5308C7.24797 11.8812 7.11741 12.2211 6.88221 12.4707C6.64797 12.7212 6.33021 12.8604 5.99901 12.8604H5.99805Z" fill="currentColor"/>
</svg>
