<svg viewBox="0 0 14 14" fill="none" xmlns="http://www.w3.org/2000/svg">
<path fill-rule="evenodd" clip-rule="evenodd" d="M12.2393 12.5236C12.2393 12.709 12.162 12.8871 12.0364 13.0188C11.9033 13.1499 11.7279 13.2238 11.5391 13.2238C11.3502 13.2238 11.1748 13.1499 11.0425 13.0188C10.9161 12.8878 10.8395 12.7097 10.8395 12.5236V11.2219H6.4392C6.46003 11.3476 6.47145 11.4739 6.47347 11.5928C6.47347 12.2373 6.23423 12.8461 5.80684 13.3011C5.38078 13.7493 4.80151 14.0013 4.19804 14.0013C3.59458 14.0013 3.01598 13.7493 2.58925 13.3011C2.16253 12.8461 1.92262 12.2373 1.92262 11.5928C1.92531 11.4739 1.9374 11.3476 1.95824 11.2219H0.700234C0.514759 11.2219 0.336005 11.1446 0.205635 11.0048C0.0739211 10.8718 0 10.6829 0 10.4867C0 9.32682 0 10.2811 0 9.12186C0 8.93638 0.0772811 8.7583 0.202947 8.62659C0.336005 8.49555 0.510727 8.42163 0.699562 8.42163C2.48778 8.42163 6.81015 8.42163 10.0089 8.42163V7.73013C10.0089 7.53659 10.0775 7.36254 10.2139 7.2241C10.3449 7.09844 10.523 7.02116 10.7091 7.02116H13.2997C13.4852 7.02116 13.6633 7.09844 13.795 7.2241C13.9261 7.35716 14 7.53256 14 7.72139C14 7.91023 13.9261 8.08562 13.795 8.21801C13.664 8.34434 13.4859 8.42095 13.2997 8.42095H12.2386C12.2386 10.0472 12.2386 10.8966 12.2386 12.5229L12.2393 12.5236ZM0.700234 5.8364C0.514759 5.8364 0.336005 5.75912 0.205635 5.61935C0.0739211 5.48629 0 5.29745 0 5.10123C0 3.94134 0 1.86012 0 0.700234C0 0.514759 0.0772811 0.336677 0.202947 0.204963C0.336005 0.0739211 0.510727 0 0.699562 0H1.52412C1.71295 0 1.88835 0.0739211 2.02073 0.204963C2.14707 0.336005 2.22368 0.514087 2.22368 0.700234C2.22368 1.86012 2.22368 3.94134 2.22368 5.10123C2.22368 5.29745 2.15043 5.48629 2.01804 5.61935C1.88768 5.75912 1.70892 5.8364 1.52345 5.8364H0.69889H0.700234ZM10.734 5.8364C10.5485 5.8364 10.3698 5.75912 10.2394 5.61935C10.1077 5.48629 10.0338 5.29745 10.0338 5.10123C10.0338 3.94134 10.0338 1.86012 10.0338 0.700234C10.0338 0.514759 10.1111 0.336677 10.2367 0.204963C10.3698 0.0739211 10.5445 0 10.7333 0H11.5579C11.7467 0 11.9221 0.0739211 12.0545 0.204963C12.1808 0.336005 12.2575 0.514087 12.2575 0.700234C12.2575 1.86012 12.2575 3.94134 12.2575 5.10123C12.2575 5.29745 12.1842 5.48629 12.0518 5.61935C11.9215 5.75912 11.7427 5.8364 11.5572 5.8364H10.7327H10.734ZM7.38942 5.8364C7.20394 5.8364 7.02519 5.75912 6.89482 5.61935C6.7631 5.48629 6.68918 5.29745 6.68918 5.10123C6.68918 3.94134 6.68918 1.86012 6.68918 0.700234C6.68918 0.514759 6.76647 0.336677 6.89213 0.204963C7.02519 0.0739211 7.19991 0 7.38875 0H8.2133C8.40214 0 8.57753 0.0739211 8.70992 0.204963C8.83626 0.336005 8.91286 0.514087 8.91286 0.700234C8.91286 1.86012 8.91286 3.94134 8.91286 5.10123C8.91286 5.29745 8.83962 5.48629 8.70723 5.61935C8.57686 5.75912 8.3981 5.8364 8.21263 5.8364H7.38807H7.38942ZM4.04483 5.8364C3.85935 5.8364 3.6806 5.75912 3.55023 5.61935C3.41851 5.48629 3.34459 5.29745 3.34459 5.10123C3.34459 3.94134 3.34459 1.86012 3.34459 0.700234C3.34459 0.514759 3.42187 0.336677 3.54754 0.204963C3.6806 0.0739211 3.85532 0 4.04415 0H4.86871C5.05754 0 5.23294 0.0739211 5.36532 0.204963C5.49166 0.336005 5.56827 0.514087 5.56827 0.700234C5.56827 1.86012 5.56827 3.94134 5.56827 5.10123C5.56827 5.29745 5.49502 5.48629 5.36264 5.61935C5.23227 5.75912 5.05351 5.8364 4.86804 5.8364H4.04348H4.04483ZM4.19872 12.5236C4.02601 12.5236 3.85666 12.4678 3.71285 12.363C3.56837 12.2648 3.45682 12.1177 3.39029 11.9497C3.32443 11.7817 3.30696 11.5928 3.34056 11.4174C3.37416 11.2353 3.45749 11.0673 3.5798 10.9417C3.7021 10.8086 3.85868 10.7246 4.02803 10.6897C4.19804 10.6547 4.37411 10.6688 4.53338 10.7387C4.69399 10.8086 4.83041 10.9275 4.9265 11.0821C5.02327 11.236 5.07435 11.4107 5.07435 11.5928C5.07367 11.8381 4.98228 12.076 4.81764 12.2507C4.65367 12.4261 4.43123 12.5236 4.19939 12.5236H4.19872Z" fill="currentColor"/>
</svg>
