<svg  viewBox="0 0 14 15" fill="currentColor" xmlns="http://www.w3.org/2000/svg">
<g clip-path="url(#clip0_5642_25872)">
<mask id="mask0_5642_25872" style="mask-type:alpha" maskUnits="userSpaceOnUse" x="0" y="0">
<rect y="0.5" fill="currentColor"/>
</mask>
<g mask="url(#mask0_5642_25872)">
<path d="M12.7044 3.44737H9.8525V1.97368C9.8525 1.58284 9.70227 1.208 9.43486 0.931632C9.16745 0.655263 8.80476 0.5 8.42658 0.5H5.57473C5.19655 0.5 4.83386 0.655263 4.56644 0.931632C4.29903 1.208 4.1488 1.58284 4.1488 1.97368V3.44737H1.29695C1.10786 3.44737 0.926513 3.525 0.792806 3.66318C0.6591 3.80137 0.583984 3.98879 0.583984 4.18421C0.583984 4.37963 0.6591 4.56705 0.792806 4.70524C0.926513 4.84342 1.10786 4.92105 1.29695 4.92105H2.00991V13.0263C2.00991 13.4172 2.16014 13.792 2.42755 14.0684C2.69497 14.3447 3.05766 14.5 3.43584 14.5H10.5655C10.9436 14.5 11.3063 14.3447 11.5737 14.0684C11.8412 13.792 11.9914 13.4172 11.9914 13.0263V4.92105H12.7044C12.8934 4.92105 13.0748 4.84342 13.2085 4.70524C13.3422 4.56705 13.4173 4.37963 13.4173 4.18421C13.4173 3.98879 13.3422 3.80137 13.2085 3.66318C13.0748 3.525 12.8934 3.44737 12.7044 3.44737ZM5.57473 1.97368H8.42658V3.44737H5.57473V1.97368ZM6.28769 11.5526C6.28769 11.7481 6.21257 11.9355 6.07887 12.0737C5.94516 12.2118 5.76381 12.2895 5.57473 12.2895C5.38564 12.2895 5.20429 12.2118 5.07058 12.0737C4.93688 11.9355 4.86176 11.7481 4.86176 11.5526V6.39474C4.86176 6.19931 4.93688 6.0119 5.07058 5.87371C5.20429 5.73553 5.38564 5.65789 5.57473 5.65789C5.76381 5.65789 5.94516 5.73553 6.07887 5.87371C6.21257 6.0119 6.28769 6.19931 6.28769 6.39474V11.5526ZM9.13954 11.5526C9.13954 11.7481 9.06442 11.9355 8.93072 12.0737C8.79701 12.2118 8.61567 12.2895 8.42658 12.2895C8.23749 12.2895 8.05614 12.2118 7.92244 12.0737C7.78873 11.9355 7.71361 11.7481 7.71361 11.5526V6.39474C7.71361 6.19931 7.78873 6.0119 7.92244 5.87371C8.05614 5.73553 8.23749 5.65789 8.42658 5.65789C8.61567 5.65789 8.79701 5.73553 8.93072 5.87371C9.06442 6.0119 9.13954 6.19931 9.13954 6.39474V11.5526Z" fill="currentColor"/>
</g>
</g>
<defs>
<clipPath id="clip0_5642_25872">
<rect fill="currentColor" transform="translate(0 0.5)"/>
</clipPath>
</defs>
</svg>
