<svg  viewBox="0 0 20 21" fill="currentColor" xmlns="http://www.w3.org/2000/svg">
<g clip-path="url(#clip0_8534_30002)">
<mask id="mask0_8534_30002" style="mask-type:alpha" maskUnits="userSpaceOnUse" x="0" y="0" >
<rect y="0.5"   fill="currentColor"/>
</mask>
<g mask="url(#mask0_8534_30002)">
<path d="M18.1488 4.71053H14.0747V2.60526C14.0747 2.04691 13.8601 1.51143 13.4781 1.11662C13.0961 0.721804 12.5779 0.5 12.0377 0.5H7.96361C7.42336 0.5 6.90523 0.721804 6.52321 1.11662C6.14119 1.51143 5.92658 2.04691 5.92658 2.60526V4.71053H1.8525C1.58237 4.71053 1.32331 4.82143 1.1323 5.01884C0.941292 5.21624 0.833984 5.48398 0.833984 5.76316C0.833984 6.04233 0.941292 6.31007 1.1323 6.50748C1.32331 6.70489 1.58237 6.81579 1.8525 6.81579H2.87102V18.3947C2.87102 18.9531 3.08564 19.4886 3.46766 19.8834C3.84967 20.2782 4.3678 20.5 4.90806 20.5H15.0932C15.6335 20.5 16.1516 20.2782 16.5336 19.8834C16.9157 19.4886 17.1303 18.9531 17.1303 18.3947V6.81579H18.1488C18.4189 6.81579 18.678 6.70489 18.869 6.50748C19.06 6.31007 19.1673 6.04233 19.1673 5.76316C19.1673 5.48398 19.06 5.21624 18.869 5.01884C18.678 4.82143 18.4189 4.71053 18.1488 4.71053ZM7.96361 2.60526H12.0377V4.71053H7.96361V2.60526ZM8.98213 16.2895C8.98213 16.5686 8.87482 16.8364 8.68382 17.0338C8.49281 17.2312 8.23374 17.3421 7.96361 17.3421C7.69349 17.3421 7.43442 17.2312 7.24341 17.0338C7.0524 16.8364 6.9451 16.5686 6.9451 16.2895V8.92105C6.9451 8.64188 7.0524 8.37414 7.24341 8.17673C7.43442 7.97932 7.69349 7.86842 7.96361 7.86842C8.23374 7.86842 8.49281 7.97932 8.68382 8.17673C8.87482 8.37414 8.98213 8.64188 8.98213 8.92105V16.2895ZM13.0562 16.2895C13.0562 16.5686 12.9489 16.8364 12.7579 17.0338C12.5669 17.2312 12.3078 17.3421 12.0377 17.3421C11.7676 17.3421 11.5085 17.2312 11.3175 17.0338C11.1265 16.8364 11.0192 16.5686 11.0192 16.2895V8.92105C11.0192 8.64188 11.1265 8.37414 11.3175 8.17673C11.5085 7.97932 11.7676 7.86842 12.0377 7.86842C12.3078 7.86842 12.5669 7.97932 12.7579 8.17673C12.9489 8.37414 13.0562 8.64188 13.0562 8.92105V16.2895Z" fill="currentColor"/>
</g>
</g>
</svg>
