<svg viewBox="0 0 24 25" fill="currentColor" xmlns="http://www.w3.org/2000/svg">
<g clip-path="url(#clip0_5642_24132)">
<mask id="mask0_5642_24132" style="mask-type:alpha" maskUnits="userSpaceOnUse" x="0" y="0">
<rect y="0.5" fill="currentColor"/>
</mask>
<g mask="url(#mask0_5642_24132)">
<path d="M21.7778 5.55263H16.8889V3.02632C16.8889 2.3563 16.6313 1.71372 16.1729 1.23994C15.7145 0.766165 15.0928 0.5 14.4444 0.5H9.55556C8.90725 0.5 8.28549 0.766165 7.82707 1.23994C7.36865 1.71372 7.11111 2.3563 7.11111 3.02632V5.55263H2.22222C1.89807 5.55263 1.58719 5.68571 1.35798 5.9226C1.12877 6.15949 1 6.48078 1 6.81579C1 7.1508 1.12877 7.47209 1.35798 7.70898C1.58719 7.94586 1.89807 8.07895 2.22222 8.07895H3.44444V21.9737C3.44444 22.6437 3.70198 23.2863 4.16041 23.7601C4.61883 24.2338 5.24058 24.5 5.88889 24.5H18.1111C18.7594 24.5 19.3812 24.2338 19.8396 23.7601C20.298 23.2863 20.5556 22.6437 20.5556 21.9737V8.07895H21.7778C22.1019 8.07895 22.4128 7.94586 22.642 7.70898C22.8712 7.47209 23 7.1508 23 6.81579C23 6.48078 22.8712 6.15949 22.642 5.9226C22.4128 5.68571 22.1019 5.55263 21.7778 5.55263ZM9.55556 3.02632H14.4444V5.55263H9.55556V3.02632ZM10.7778 19.4474C10.7778 19.7824 10.649 20.1037 10.4198 20.3406C10.1906 20.5774 9.87971 20.7105 9.55556 20.7105C9.2314 20.7105 8.92053 20.5774 8.69131 20.3406C8.4621 20.1037 8.33333 19.7824 8.33333 19.4474V10.6053C8.33333 10.2703 8.4621 9.94896 8.69131 9.71208C8.92053 9.47519 9.2314 9.3421 9.55556 9.3421C9.87971 9.3421 10.1906 9.47519 10.4198 9.71208C10.649 9.94896 10.7778 10.2703 10.7778 10.6053V19.4474ZM15.6667 19.4474C15.6667 19.7824 15.5379 20.1037 15.3087 20.3406C15.0795 20.5774 14.7686 20.7105 14.4444 20.7105C14.1203 20.7105 13.8094 20.5774 13.5802 20.3406C13.351 20.1037 13.2222 19.7824 13.2222 19.4474V10.6053C13.2222 10.2703 13.351 9.94896 13.5802 9.71208C13.8094 9.47519 14.1203 9.3421 14.4444 9.3421C14.7686 9.3421 15.0795 9.47519 15.3087 9.71208C15.5379 9.94896 15.6667 10.2703 15.6667 10.6053V19.4474Z" fill="currentColor"/>
</g>
</g>
<defs>
<clipPath id="clip0_5642_24132">
<rect fill="currentColor" transform="translate(0 0.5)"/>
</clipPath>
</defs>
</svg>
