<svg viewBox="0 0 14 15" fill="currentColor"
    xmlns="http://www.w3.org/2000/svg">
    <path d="M13.9927 5.67479C13.9927 5.47951 13.9195 5.29034 13.7852 5.15609C13.657 5.01574 13.474 4.93641 13.2909 4.93641H10.0078L8.79958 2.38562C8.73856 2.25748 8.65313 2.15374 8.54328 2.08661C8.43344 2.01948 8.30529 1.97677 8.17714 1.97677L5.37617 1.95846V1.20177C5.37617 1.0187 5.29684 0.835629 5.17479 0.70748C5.04054 0.573228 4.86357 0.5 4.6805 0.5C4.49133 0.5 4.31436 0.573228 4.18621 0.70748C4.05806 0.841731 3.98483 1.0187 3.98483 1.20177V8.92124H1.39744C1.02519 8.92124 0.671258 9.0738 0.408857 9.3545C0.146456 9.62911 0 10.0075 0 10.398V10.9838C0 11.1791 0.0732282 11.3683 0.20748 11.5025C0.335629 11.6429 0.518699 11.7222 0.70177 11.7222H0.909249C0.890942 11.8504 0.878738 11.9724 0.872635 12.0945C0.872635 12.7413 1.11063 13.3454 1.53779 13.8031C1.96496 14.2486 2.54468 14.5049 3.14881 14.5049C3.75294 14.5049 4.33267 14.2547 4.75983 13.8031C5.18699 13.3454 5.42498 12.7413 5.42498 12.0945C5.42498 11.9785 5.41278 11.8504 5.38837 11.7222H8.61041C8.5921 11.8504 8.5799 11.9724 8.5738 12.0945C8.5738 12.7413 8.81179 13.3454 9.23895 13.8031C9.66611 14.2486 10.2458 14.5049 10.85 14.5049C11.4541 14.5049 12.0338 14.2547 12.461 13.8031C12.8882 13.3454 13.1261 12.7413 13.1261 12.0945C13.1261 11.9785 13.1139 11.8504 13.0895 11.7222H13.3031C13.4862 11.7222 13.6693 11.6429 13.7974 11.5025C13.9317 11.3683 14.0049 11.1791 14.0049 10.9838C14.0049 10.0319 14.0049 6.62675 14.0049 5.67479H13.9927ZM7.74388 3.45964L8.44565 4.94251H5.37617C5.37617 4.44822 5.37617 3.95393 5.37617 3.45964H7.74388ZM3.13661 13.022C2.96574 13.022 2.79487 12.9671 2.64842 12.8634C2.50196 12.7657 2.39212 12.6193 2.32499 12.4484C2.25787 12.2775 2.23956 12.0884 2.27618 11.9175C2.31279 11.7344 2.39212 11.5697 2.51417 11.4415C2.63621 11.3073 2.79487 11.2218 2.95964 11.1913C3.1305 11.1547 3.30747 11.173 3.46613 11.2401C3.62479 11.3073 3.76515 11.4293 3.85668 11.5819C3.95432 11.7344 4.00314 11.9114 4.00314 12.0945C4.00314 12.3386 3.9116 12.5765 3.74684 12.7535C3.58208 12.9305 3.36239 13.0281 3.1305 13.0281L3.13661 13.022ZM10.8378 13.022C10.6669 13.022 10.496 12.9671 10.3496 12.8634C10.2031 12.7657 10.0933 12.6193 10.0262 12.4484C9.95903 12.2775 9.94072 12.0884 9.97733 11.9175C10.0139 11.7344 10.0933 11.5697 10.2153 11.4415C10.3374 11.3073 10.496 11.2218 10.6608 11.1913C10.8317 11.1547 11.0086 11.173 11.1673 11.2401C11.326 11.3073 11.4663 11.4293 11.5578 11.5819C11.6555 11.7344 11.7043 11.9114 11.7043 12.0945C11.7043 12.3386 11.6128 12.5765 11.448 12.7535C11.2832 12.9305 11.0636 13.0281 10.8317 13.0281L10.8378 13.022Z" fill="currentColor"/>
</svg>
