<svg width="14" height="15" viewBox="0 0 14 15" fill="none" xmlns="http://www.w3.org/2000/svg">
<path d="M12.7036 6.8C12.3094 6.8 11.9907 7.1136 11.9907 7.5C11.9907 10.202 9.75124 12.4 6.99992 12.4C5.68236 12.4 4.43539 11.882 3.51424 11H5.57399C5.96826 11 6.28696 10.6864 6.28696 10.3C6.28696 9.9136 5.96826 9.6 5.57399 9.6H2.18956C2.04839 9.5713 1.90081 9.5881 1.76035 9.649C1.74752 9.6539 1.73397 9.656 1.72114 9.6616C1.71187 9.6665 1.70189 9.6658 1.69262 9.6707C1.67337 9.6819 1.66268 9.7001 1.64414 9.712C1.43952 9.8359 1.29621 10.0473 1.29621 10.3V13.8C1.29621 14.1864 1.61491 14.5 2.00918 14.5C2.40345 14.5 2.72214 14.1864 2.72214 13.8V12.176C3.88427 13.1987 5.39932 13.8 6.99992 13.8C10.5384 13.8 13.4166 10.9734 13.4166 7.5C13.4166 7.1136 13.0979 6.8 12.7036 6.8Z" fill="white"/>
<path d="M2.00918 7.5C2.00918 4.798 4.24859 2.6 6.99992 2.6C8.31747 2.6 9.56445 3.118 10.4856 4H8.42584C8.03158 4 7.71288 4.3136 7.71288 4.7C7.71288 5.0864 8.03158 5.4 8.42584 5.4H11.8089C11.9507 5.4294 12.0997 5.4119 12.2402 5.3503C12.253 5.3454 12.2666 5.3433 12.2794 5.3377C12.2887 5.3328 12.2987 5.3335 12.3079 5.3286C12.3272 5.3174 12.3379 5.2992 12.3564 5.2873C12.5603 5.1641 12.7036 4.9527 12.7036 4.7V1.2C12.7036 0.8136 12.3849 0.5 11.9907 0.5C11.5964 0.5 11.2777 0.8136 11.2777 1.2V2.824C10.1156 1.8013 8.60052 1.2 6.99992 1.2C3.46148 1.2 0.583252 4.0266 0.583252 7.5C0.583252 7.8864 0.901946 8.2 1.29621 8.2C1.69048 8.2 2.00918 7.8864 2.00918 7.5Z" fill="white"/>
</svg>
