<svg viewBox="0 0 20 21" fill="none" xmlns="http://www.w3.org/2000/svg"><path d="m14.707 4.904-4-4.103A1 1 0 0 0 9.999.5a.98.98 0 0 0-.708.301l-4 4.103a1.04 1.04 0 0 0-.293.726c0 .272.106.533.294.725s.442.3.708.3.52-.109.707-.301L9 4.002v8.806c0 .272.105.533.293.725a.984.984 0 0 0 1.414 0 1.04 1.04 0 0 0 .293-.725V4.002l2.293 2.352c.189.187.441.29.703.288a1 1 0 0 0 .699-.3c.185-.19.29-.448.293-.717a1.04 1.04 0 0 0-.281-.721" fill="currentColor"/><path d="M18 12.295h-5v.513c0 .816-.316 1.599-.879 2.176a2.96 2.96 0 0 1-2.121.9 2.96 2.96 0 0 1-2.121-.9A3.12 3.12 0 0 1 7 12.808v-.513H2c-.53 0-1.04.216-1.414.601A2.08 2.08 0 0 0 0 14.346v4.103c0 .544.21 1.066.586 1.45.375.385.884.601 1.414.601h16c.53 0 1.04-.216 1.414-.6A2.08 2.08 0 0 0 20 18.449v-4.103c0-.544-.21-1.065-.586-1.45a1.98 1.98 0 0 0-1.414-.6m-2.5 6.154c-.297 0-.587-.09-.833-.26a1.53 1.53 0 0 1-.553-.69 1.58 1.58 0 0 1 .325-1.676 1.48 1.48 0 0 1 1.635-.334c.274.117.508.314.673.567a1.57 1.57 0 0 1-.186 1.942 1.48 1.48 0 0 1-1.061.45" fill="currentColor"/></svg>