<svg   viewBox="0 0 24 25" fill="currentColor" xmlns="http://www.w3.org/2000/svg">
<path d="M7.80023 11.868C8.49259 11.868 9.15499 11.7309 9.76325 11.4798L9.822 11.3715C10.2114 10.6607 10.6941 10.0121 11.2516 9.44417C11.7366 8.94996 12.2804 8.5122 12.8714 8.1401C13.0833 7.52954 13.1997 6.87174 13.1997 6.184C13.1997 3.04478 10.7816 0.5 7.80023 0.5C4.81769 0.5 2.40078 3.04478 2.40078 6.184C2.40078 9.32321 4.81884 11.868 7.80023 11.868ZM17.7328 9.4315C16.5889 9.43035 15.4645 9.72987 14.4853 10.2978C13.5061 10.8657 12.7066 11.6802 12.1744 12.6525C11.6422 13.626 11.3979 14.7192 11.4671 15.8159C11.5362 16.9126 11.9175 17.9702 12.5672 18.8745C12.5937 18.924 12.6248 18.9701 12.6617 19.0127L12.7562 19.1233C12.8437 19.2316 12.9347 19.3376 13.0119 19.424L17.1292 24.2267C17.2029 24.312 17.2951 24.3811 17.3999 24.4283C17.5047 24.4755 17.6188 24.4997 17.734 24.4997C17.8503 24.4997 17.9644 24.4755 18.0692 24.4283C18.174 24.3811 18.2662 24.3108 18.3399 24.2256L22.3362 19.5507C22.4975 19.3837 22.6496 19.2074 22.7901 19.0231L22.8904 18.9056C22.9284 18.8618 22.9606 18.8134 22.986 18.7616C23.6057 17.8527 23.9583 16.7986 24.0066 15.7134C24.0539 14.627 23.7947 13.5499 23.2567 12.5938C22.7187 11.6376 21.9215 10.8392 20.9492 10.2817C19.9769 9.72526 18.8664 9.4315 17.734 9.4315H17.7328ZM17.7328 13.1986C18.1982 13.1986 18.6544 13.331 19.0415 13.5799C19.4286 13.8287 19.7304 14.1812 19.9078 14.5948C20.0864 15.0072 20.1336 15.4622 20.0426 15.9C19.9516 16.3378 19.7281 16.741 19.3986 17.0578C19.0691 17.3734 18.6498 17.5889 18.1936 17.6764C17.7363 17.764 17.2628 17.719 16.8331 17.5474C16.4023 17.3769 16.0348 17.0866 15.7767 16.7156C15.5175 16.3447 15.3793 15.9069 15.3793 15.4599C15.3793 14.8609 15.627 14.2861 16.0682 13.8621C16.5094 13.4382 17.1084 13.1997 17.7328 13.1997V13.1986ZM9.10084 13.1317H5.99965C4.40873 13.134 2.88462 13.7999 1.75911 14.9842C0.634755 16.1673 0.00230401 17.7732 0 19.447V23.236C0 23.5724 0.125569 23.8926 0.351362 24.1299C0.576003 24.3673 0.882436 24.4997 1.20039 24.4997H13.7803C12.7988 23.3074 11.8415 22.0079 10.8139 20.9896L10.6238 20.7557V20.7453C10.5339 20.6405 10.4671 20.553 10.4153 20.4792L10.3934 20.4585L10.2736 20.2707C9.85886 19.6636 9.52478 19.0081 9.2771 18.3204C9.00408 17.5589 8.83703 16.7721 8.7875 15.9841C8.73796 15.1904 8.80247 14.3874 8.97873 13.6006C9.01444 13.4428 9.05476 13.2861 9.09969 13.1306L9.10084 13.1317Z" fill="currentColor"/>
</svg>
