<svg viewBox="0 0 14 15" fill="currentColor" xmlns="http://www.w3.org/2000/svg">
<g clip-path="url(#clip0_2768_37608)">
<mask id="mask0_2768_37608" style="mask-type:alpha" maskUnits="userSpaceOnUse" x="0" y="0">
<rect y="0.5" fill="currentColor"/>
</mask>
<g mask="url(#mask0_2768_37608)">
<path fill-rule="evenodd" clip-rule="evenodd" d="M4.55009 7.13126C4.93582 7.13126 5.30474 7.05802 5.64612 6.92496C5.77044 6.76973 5.90282 6.62189 6.04259 6.48279C6.0809 6.44448 6.12122 6.4082 6.16221 6.3746C6.47939 6.07488 6.83085 5.81213 7.20985 5.59306C7.52032 5.07966 7.70041 4.46948 7.70041 3.81563C7.70041 1.98444 6.28989 0.5 4.55076 0.5C2.81096 0.5 1.40111 1.98444 1.40111 3.81563C1.40111 5.64682 2.81163 7.13126 4.55076 7.13126H4.55009ZM9.31589 11.725V13.1228C8.81929 12.9998 8.3751 12.7418 8.02431 12.3917C7.67353 12.0415 7.41616 11.5974 7.29251 11.1001H8.73125C8.86095 11.3648 9.06591 11.5832 9.31522 11.725H9.31589ZM10.6606 13.1228V11.7244C10.9099 11.5826 11.1142 11.3648 11.2439 11.1001H12.6826C12.5589 11.5967 12.3016 12.0409 11.9515 12.3917C11.6014 12.7418 11.1572 12.9991 10.6606 13.1228ZM12.6826 9.75541H11.2439C11.01 9.27897 10.5349 8.95305 9.98789 8.95305C9.44021 8.95305 8.96578 9.27897 8.73193 9.75541H7.29318C7.41683 9.25881 7.6742 8.81462 8.02431 8.46451L8.05254 8.43427C8.55116 7.94976 9.23391 7.65139 9.98789 7.65139C10.7546 7.65139 11.4495 7.96252 11.9515 8.46518C12.3016 8.81529 12.5589 9.25948 12.6826 9.75608V9.75541ZM9.98789 6.41559C11.096 6.41559 12.0993 6.86515 12.8251 7.59091C13.5508 8.31667 13.9997 9.31996 13.9997 10.4281C13.9997 11.5362 13.5508 12.5395 12.8251 13.2653C12.0993 13.991 11.096 14.4399 9.98789 14.4399C8.88044 14.4399 7.87715 13.991 7.15072 13.2653C6.42496 12.5395 5.9754 11.5362 5.9754 10.4281C5.9754 9.32063 6.42496 8.31734 7.15072 7.59091L7.18768 7.55731C7.91209 6.85104 8.9006 6.41626 9.98789 6.41626V6.41559ZM5.03393 7.86777H3.49976C2.57173 7.86912 1.68268 8.25753 1.02614 8.94834C0.37027 9.63848 0.00134399 10.5752 0 11.5517V13.7619C0 13.9581 0.0732476 14.1449 0.204959 14.2833C0.335998 14.4218 0.51475 14.499 0.700221 14.499H6.17229C6.12794 14.458 6.08493 14.4157 6.04259 14.3734C5.03326 13.364 4.40763 11.9683 4.40763 10.4274C4.40763 9.68216 4.5595 8.96245 4.83434 8.29919C4.8955 8.15203 4.96202 8.00822 5.03393 7.86777Z" fill="currentColor"/>
</g>
</g>
<defs>
<clipPath id="clip0_2768_37608">
<rect fill="currentColor" transform="translate(0 0.5)"/>
</clipPath>
</defs>
</svg>
