<svg width="14" height="15" viewBox="0 0 14 15" fill="none" xmlns="http://www.w3.org/2000/svg">
<g clip-path="url(#clip0_2705_36071)">
<mask id="mask0_2705_36071" style="mask-type:alpha" maskUnits="userSpaceOnUse" x="0" y="0" width="14" height="15">
<rect y="0.5" width="14" height="14" fill="white"/>
</mask>
<g mask="url(#mask0_2705_36071)">
<path d="M7 7.13158C9.00734 7.13158 10.6346 5.64705 10.6346 3.81579C10.6346 1.98453 9.00734 0.5 7 0.5C4.99266 0.5 3.36538 1.98453 3.36538 3.81579C3.36538 5.64705 4.99266 7.13158 7 7.13158Z" fill="currentColor"/>
<path d="M8.21154 7.86842H5.78846C4.71779 7.86959 3.69134 8.25812 2.93425 8.94879C2.17717 9.63946 1.75128 10.5759 1.75 11.5526V13.7632C1.75 13.9586 1.8351 14.146 1.98657 14.2842C2.13804 14.4224 2.34348 14.5 2.55769 14.5H11.4423C11.6565 14.5 11.862 14.4224 12.0134 14.2842C12.1649 14.146 12.25 13.9586 12.25 13.7632V11.5526C12.2487 10.5759 11.8228 9.63946 11.0657 8.94879C10.3087 8.25812 9.28221 7.86959 8.21154 7.86842Z" fill="currentColor"/>
</g>
</g>
<defs>
<clipPath id="clip0_2705_36071">
<rect width="14" height="14" fill="white" transform="translate(0 0.5)"/>
</clipPath>
</defs>
</svg>
