<svg viewBox="0 0 24 25" fill="currentColor" xmlns="http://www.w3.org/2000/svg">
<path d="M7.799 11.869C8.33468 11.869 8.85077 11.7861 9.33922 11.634C9.66984 11.3172 10.0235 11.0154 10.3956 10.7355C10.9105 10.3496 11.467 9.99128 12.0568 9.67909C12.771 8.71487 13.1984 7.50182 13.1984 6.18394C13.1984 3.04476 10.7804 0.5 7.799 0.5C4.81649 0.5 2.3996 3.04476 2.3996 6.18394C2.3996 9.32313 4.81764 11.8679 7.799 11.8679V11.869ZM16.5 11.2009C12.4588 11.2009 9.00053 15.4886 9.00053 16.8249C9.00053 18.2246 11.6593 22.4501 16.5 22.4501C21.3407 22.4501 23.9995 18.2246 23.9995 16.8249C23.9995 15.4886 20.5412 11.2009 16.5 11.2009ZM16.5 19.236C16.0553 19.236 15.621 19.0955 15.2501 18.8305C14.8815 18.5656 14.5912 18.1889 14.4218 17.7488C14.2525 17.3088 14.2075 16.8226 14.2951 16.3561C14.3815 15.8883 14.5958 15.4598 14.9114 15.1211C15.2248 14.7847 15.6268 14.5543 16.0634 14.461C16.4989 14.3677 16.9516 14.4161 17.3629 14.5981C17.7741 14.7813 18.1255 15.09 18.372 15.4851C18.6197 15.8814 18.7522 16.348 18.7522 16.8249C18.7522 17.4643 18.5149 18.0771 18.0921 18.5299C17.6704 18.9826 17.0991 19.236 16.5023 19.236H16.5ZM8.00291 13.1328H5.99959C4.40868 13.1351 2.88459 13.8009 1.7591 14.9852C0.634749 16.1683 0.00230399 17.7742 0 19.448V23.2369C0 23.5733 0.125567 23.8936 0.351358 24.1309C0.575997 24.3682 0.882428 24.5007 1.20038 24.5007H12.8862C11.8552 24.1205 10.9393 23.5986 10.1456 23.0031C7.63772 21.1219 6.31293 18.228 6.31293 16.8261C6.31293 15.9552 6.93961 14.5301 8.00291 13.1328Z" fill="currentColor"/>
</svg>
