<svg width="14" height="15" viewBox="0 0 14 15" fill="none" xmlns="http://www.w3.org/2000/svg">
<g clip-path="url(#clip0_2768_37605)">
<mask id="mask0_2768_37605" style="mask-type:alpha" maskUnits="userSpaceOnUse" x="0" y="0" width="14" height="15">
<rect y="0.5" width="14" height="14" fill="white"/>
</mask>
<g mask="url(#mask0_2768_37605)">
<path d="M7.61895 4.5655C7.67204 4.32426 7.69959 4.07361 7.69959 3.81557C7.69959 1.98441 6.2891 0.5 4.55 0.5C2.81024 0.5 1.40041 1.98441 1.40041 3.81557C1.40041 5.60641 2.74976 7.06528 4.43577 7.12912C4.4828 7.05386 4.5332 6.9833 4.58696 6.91879L4.65416 6.84286C4.76235 6.72459 4.87995 6.62177 5.00762 6.5371C5.06945 6.49611 5.13329 6.45983 5.19847 6.42824C5.25223 6.39935 5.30598 6.37381 5.36041 6.35096L5.4854 6.30393C5.57142 6.27234 5.65273 6.24748 5.72933 6.23001C5.75487 6.11913 5.79586 5.9975 5.85029 5.86714L5.85231 5.86243C5.90069 5.74215 5.96453 5.62589 6.04114 5.51166L6.0371 5.50897C6.1379 5.3571 6.26423 5.21867 6.41274 5.09503L6.41946 5.08965C6.53504 4.99288 6.66944 4.9062 6.81929 4.83094C6.86768 4.80607 6.9174 4.78457 6.96713 4.76575C7.07935 4.71939 7.19493 4.67907 7.3132 4.6448C7.42408 4.61254 7.52622 4.58701 7.61895 4.56819V4.5655ZM8.47036 11.8874C7.65994 11.8874 6.97183 11.6039 6.40468 11.0367C5.83752 10.4696 5.55395 9.78144 5.55395 8.97103C5.55395 8.80908 5.56671 8.64713 5.59023 8.48518C5.61443 8.32324 5.65945 8.16935 5.72396 8.02353C5.76428 7.94289 5.81468 7.88174 5.87583 7.84142C5.93698 7.80043 6.0035 7.77221 6.07608 7.75675C6.14932 7.74063 6.22391 7.74264 6.30119 7.7628C6.37847 7.78296 6.44903 7.82597 6.51421 7.89048L7.79031 9.1659L8.66523 8.29098L7.38981 7.01488C7.3253 6.95037 7.28229 6.87914 7.26213 6.80186C7.24197 6.72459 7.23995 6.65 7.25608 6.57675C7.27221 6.5035 7.30043 6.43698 7.34075 6.3765C7.38107 6.31602 7.44222 6.26562 7.52286 6.22463C7.66868 6.16012 7.82256 6.1151 7.98451 6.09091C8.14646 6.06671 8.30841 6.05462 8.47036 6.05462C9.28077 6.05462 9.96888 6.3382 10.536 6.90535C11.1032 7.4725 11.3868 8.16129 11.3868 8.97103C11.3868 9.15717 11.37 9.3339 11.3377 9.49988C11.3055 9.66586 11.2571 9.82982 11.1919 9.99177L13.6466 12.4223C13.8812 12.6575 13.9988 12.9451 13.9988 13.2852C13.9988 13.6252 13.8812 13.9128 13.6466 14.148C13.4115 14.3825 13.1238 14.5001 12.7838 14.5001C12.4438 14.5001 12.1562 14.3785 11.921 14.1352L9.49043 11.6926C9.32848 11.7577 9.16452 11.8061 8.99854 11.8384C8.83256 11.8706 8.65582 11.8874 8.46968 11.8874H8.47036ZM4.12598 7.86763H3.49969C2.57168 7.86898 1.68265 8.25738 1.02612 8.94818C0.370263 9.63831 0.00134397 10.5751 0 11.5514V13.7616C0 13.9578 0.0732462 14.1446 0.204955 14.2831C0.335992 14.4215 0.51474 14.4988 0.700207 14.4988H8.3998C8.58527 14.4988 8.76401 14.4215 8.89505 14.2831C9.02676 14.1446 9.10001 13.9578 9.10001 13.7616V13.515L9.00324 13.4175L8.88228 13.4296C8.70488 13.4458 8.56578 13.4545 8.47103 13.4545C7.86893 13.4545 7.29573 13.3423 6.75277 13.1192C6.20779 12.8947 5.72194 12.5695 5.29658 12.1441L5.20183 12.04C4.81947 11.6348 4.52581 11.1839 4.3222 10.6879C4.0991 10.1457 3.98688 9.57245 3.98688 8.96968C3.98688 8.73919 4.0057 8.50064 4.04198 8.25738L4.04333 8.25133C4.05945 8.13911 4.08768 8.01009 4.12733 7.86696L4.12598 7.86763Z" fill="#737373"/>
</g>
</g>
<defs>
<clipPath id="clip0_2768_37605">
<rect width="14" height="14" fill="white" transform="translate(0 0.5)"/>
</clipPath>
</defs>
</svg>
