<svg viewBox="0 0 20 20" fill="none" xmlns="http://www.w3.org/2000/svg">
<path d="M19.9895 7.39256C19.9895 7.11359 19.8849 6.84335 19.6931 6.65156C19.5101 6.45105 19.2485 6.33772 18.987 6.33772H14.2969L12.5708 2.69375C12.4837 2.51068 12.3616 2.36248 12.2047 2.26659C12.0478 2.17069 11.8647 2.10967 11.6816 2.10967L7.68024 2.08352V1.00253C7.68024 0.740999 7.56691 0.47947 7.39256 0.2964C7.20077 0.104612 6.94796 0 6.68643 0C6.41618 0 6.16337 0.104612 5.9803 0.2964C5.79723 0.488188 5.69262 0.740999 5.69262 1.00253V12.0303H1.99634C1.46456 12.0303 0.95894 12.2483 0.584082 12.6493C0.209223 13.0416 0 13.5821 0 14.14V14.9769C0 15.2559 0.104612 15.5261 0.2964 15.7179C0.47947 15.9184 0.740999 16.0317 1.00253 16.0317H1.29893C1.27277 16.2148 1.25534 16.3892 1.24662 16.5635C1.24662 17.4876 1.58661 18.3506 2.19684 19.0044C2.80708 19.6408 3.63525 20.007 4.4983 20.007C5.36135 20.007 6.18952 19.6496 6.79976 19.0044C7.40999 18.3506 7.74998 17.4876 7.74998 16.5635C7.74998 16.3979 7.73254 16.2148 7.69767 16.0317H12.3006C12.2744 16.2148 12.257 16.3892 12.2483 16.5635C12.2483 17.4876 12.5883 18.3506 13.1985 19.0044C13.8087 19.6408 14.6369 20.007 15.5 20.007C16.363 20.007 17.1912 19.6496 17.8014 19.0044C18.4116 18.3506 18.7516 17.4876 18.7516 16.5635C18.7516 16.3979 18.7342 16.2148 18.6993 16.0317H19.0044C19.266 16.0317 19.5275 15.9184 19.7106 15.7179C19.9024 15.5261 20.007 15.2559 20.007 14.9769C20.007 13.6169 20.007 8.75251 20.007 7.39256H19.9895ZM11.0627 4.22805L12.0652 6.34644H7.68024C7.68024 5.64031 7.68024 4.93418 7.68024 4.22805H11.0627ZM4.48087 17.8886C4.23677 17.8886 3.99268 17.8101 3.78345 17.6619C3.57423 17.5225 3.41731 17.3132 3.32142 17.0691C3.22553 16.825 3.19937 16.5548 3.25168 16.3107C3.30398 16.0492 3.41731 15.8138 3.59167 15.6307C3.76602 15.4389 3.99268 15.3169 4.22805 15.2733C4.47215 15.221 4.72496 15.2471 4.95162 15.343C5.17828 15.4389 5.37878 15.6133 5.50955 15.8312C5.64903 16.0492 5.71877 16.302 5.71877 16.5635C5.71877 16.9122 5.58801 17.2522 5.35263 17.505C5.11725 17.7578 4.80342 17.8973 4.47215 17.8973L4.48087 17.8886ZM15.4825 17.8886C15.2384 17.8886 14.9943 17.8101 14.7851 17.6619C14.5759 17.5225 14.419 17.3132 14.3231 17.0691C14.2272 16.825 14.201 16.5548 14.2533 16.3107C14.3056 16.0492 14.419 15.8138 14.5933 15.6307C14.7677 15.4389 14.9943 15.3169 15.2297 15.2733C15.4738 15.221 15.7266 15.2471 15.9533 15.343C16.1799 15.4389 16.3804 15.6133 16.5112 15.8312C16.6507 16.0492 16.7204 16.302 16.7204 16.5635C16.7204 16.9122 16.5897 17.2522 16.3543 17.505C16.1189 17.7578 15.8051 17.8973 15.4738 17.8973L15.4825 17.8886Z" fill="currentColor"/>
</svg>
