<svg viewBox="0 0 20 21" fill="currentColor" xmlns="http://www.w3.org/2000/svg">
<g clip-path="url(#clip0_10164_34622)">
<mask id="mask0_10164_34622" style="mask-type:alpha" maskUnits="userSpaceOnUse" x="0" y="0">
<rect y="0.5" fill="currentColor"/>
</mask>
<g mask="url(#mask0_10164_34622)">
<path d="M6.9451 3.5C6.9451 1.846 5.57417 0.5 3.88954 0.5C2.20491 0.5 0.833984 1.846 0.833984 3.5C0.833984 4.802 1.68852 5.902 2.87102 6.316V14.685C1.68852 15.098 0.833984 16.198 0.833984 17.5C0.833984 19.154 2.20491 20.5 3.88954 20.5C5.57417 20.5 6.9451 19.154 6.9451 17.5C6.9451 16.198 6.09056 15.098 4.90806 14.684V6.316C6.09056 5.902 6.9451 4.802 6.9451 3.5Z" fill="currentColor"/>
<path d="M17.1303 14.684V7.5C17.1303 5.294 15.3031 3.5 13.0562 3.5H12.3229L13.0959 2.741C13.4942 2.35 13.4942 1.718 13.0959 1.327C12.6977 0.936 12.054 0.936 11.6557 1.327L9.34574 3.595C8.9475 3.986 8.9475 4.618 9.34574 5.009L11.6557 7.277C11.8544 7.472 12.1151 7.57 12.3758 7.57C12.6366 7.57 12.8973 7.472 13.0959 7.277C13.4942 6.886 13.4942 6.254 13.0959 5.863L12.7272 5.5H13.0562C14.1796 5.5 15.0932 6.397 15.0932 7.5V14.684C13.9107 15.098 13.0562 16.198 13.0562 17.5C13.0562 19.154 14.4271 20.5 16.1118 20.5C17.7964 20.5 19.1673 19.154 19.1673 17.5C19.1673 16.198 18.3128 15.098 17.1303 14.684Z" fill="currentColor"/>
</g>
</g>
</svg>
