<svg width="32" height="32" viewBox="0 0 32 32" fill="none" xmlns="http://www.w3.org/2000/svg">
<!-- <path d="M0 8C0 3.58172 3.58172 0 8 0H24C28.4183 0 32 3.58172 32 8V24C32 28.4183 28.4183 32 24 32H8C3.58172 32 0 28.4183 0 24V8Z" fill="#FFEDD5"/> -->
<path d="M16 8C14.4178 8 12.871 8.46919 11.5554 9.34824C10.2398 10.2273 9.21447 11.4767 8.60897 12.9385C8.00347 14.4003 7.84504 16.0089 8.15372 17.5607C8.4624 19.1126 9.22433 20.538 10.3431 21.6569C11.462 22.7757 12.8874 23.5376 14.4393 23.8463C15.9911 24.155 17.5997 23.9965 19.0615 23.391C20.5233 22.7855 21.7727 21.7602 22.6518 20.4446C23.5308 19.129 24 17.5822 24 16C23.9977 13.879 23.1541 11.8455 21.6543 10.3457C20.1545 8.84593 18.121 8.00233 16 8ZM16 20C15.8418 20 15.6871 19.9531 15.5555 19.8652C15.424 19.7773 15.3214 19.6523 15.2609 19.5061C15.2003 19.36 15.1845 19.1991 15.2154 19.0439C15.2462 18.8887 15.3224 18.7462 15.4343 18.6343C15.5462 18.5224 15.6887 18.4462 15.8439 18.4154C15.9991 18.3845 16.16 18.4003 16.3061 18.4609C16.4523 18.5214 16.5773 18.624 16.6652 18.7555C16.7531 18.8871 16.8 19.0418 16.8 19.2C16.8 19.4122 16.7157 19.6157 16.5657 19.7657C16.4157 19.9157 16.2122 20 16 20ZM16.8 16.8C16.8 17.0122 16.7157 17.2157 16.5657 17.3657C16.4157 17.5157 16.2122 17.6 16 17.6C15.7878 17.6 15.5843 17.5157 15.4343 17.3657C15.2843 17.2157 15.2 17.0122 15.2 16.8V12.8C15.2 12.5878 15.2843 12.3843 15.4343 12.2343C15.5843 12.0843 15.7878 12 16 12C16.2122 12 16.4157 12.0843 16.5657 12.2343C16.7157 12.3843 16.8 12.5878 16.8 12.8V16.8Z" fill="currentColor"/>
</svg>
