<svg viewBox="0 0 36 36" fill="currentColor" xmlns="http://www.w3.org/2000/svg">
<g clip-path="url(#clip0_4001_7244)">
<mask id="mask0_4001_7244" style="mask-type:alpha" maskUnits="userSpaceOnUse" x="0" y="0">
<rect fill="currentColor"/>
</mask>
<g mask="url(#mask0_4001_7244)">
<path d="M32.4 1.5H3.6C1.6146 1.5 0 3.1445 0 5.16667V30.8333C0 32.8555 1.6146 34.5 3.6 34.5H32.4C34.3854 34.5 36 32.8555 36 30.8333V5.16667C36 3.1445 34.3854 1.5 32.4 1.5ZM18.9 7C19.8936 7 20.7 7.82133 20.7 8.83333C20.7 9.84533 19.8936 10.6667 18.9 10.6667C17.9064 10.6667 17.1 9.84533 17.1 8.83333C17.1 7.82133 17.9064 7 18.9 7ZM13.5 7C14.4936 7 15.3 7.82133 15.3 8.83333C15.3 9.84533 14.4936 10.6667 13.5 10.6667C12.5064 10.6667 11.7 9.84533 11.7 8.83333C11.7 7.82133 12.5064 7 13.5 7ZM8.1 7C9.0936 7 9.9 7.82133 9.9 8.83333C9.9 9.84533 9.0936 10.6667 8.1 10.6667C7.1064 10.6667 6.3 9.84533 6.3 8.83333C6.3 7.82133 7.1064 7 8.1 7ZM3.6 30.8333V16.1667H32.4018L32.4036 30.8333H3.6Z" fill="currentColor"/>
</g>
</g>
<defs>
<clipPath id="clip0_4001_7244">
<rect fill="currentColor"/>
</clipPath>
</defs>
</svg>
