<svg viewBox="0 0 20 21" fill="currentColor" xmlns="http://www.w3.org/2000/svg">
<path d="M10 0.5C8.02219 0.5 6.08879 1.08649 4.4443 2.1853C2.79981 3.28412 1.51809 4.8459 0.761209 6.67316C0.00433284 8.50042 -0.1937 10.5111 0.192152 12.4509C0.578004 14.3907 1.53041 16.1725 2.92894 17.5711C4.32746 18.9696 6.10929 19.922 8.0491 20.3078C9.98891 20.6937 11.9996 20.4957 13.8268 19.7388C15.6541 18.9819 17.2159 17.7002 18.3147 16.0557C19.4135 14.4112 20 12.4778 20 10.5C19.9971 7.84873 18.9426 5.30688 17.0679 3.43215C15.1931 1.55741 12.6513 0.502912 10 0.5ZM13.707 12.793C13.8025 12.8852 13.8787 12.9956 13.9311 13.1176C13.9835 13.2396 14.0111 13.3708 14.0123 13.5036C14.0134 13.6364 13.9881 13.7681 13.9378 13.891C13.8875 14.0138 13.8133 14.1255 13.7194 14.2194C13.6255 14.3133 13.5139 14.3875 13.391 14.4378C13.2681 14.4881 13.1364 14.5134 13.0036 14.5122C12.8708 14.5111 12.7396 14.4835 12.6176 14.4311C12.4956 14.3787 12.3852 14.3025 12.293 14.207L10 11.914L7.707 14.207C7.5184 14.3892 7.2658 14.4899 7.0036 14.4877C6.74141 14.4854 6.49059 14.3802 6.30518 14.1948C6.11978 14.0094 6.01461 13.7586 6.01233 13.4964C6.01005 13.2342 6.11085 12.9816 6.293 12.793L8.586 10.5L6.293 8.207C6.11085 8.0184 6.01005 7.76579 6.01233 7.5036C6.01461 7.2414 6.11978 6.99059 6.30518 6.80518C6.49059 6.61977 6.74141 6.5146 7.0036 6.51232C7.2658 6.51005 7.5184 6.61084 7.707 6.793L10 9.086L12.293 6.793C12.4816 6.61084 12.7342 6.51005 12.9964 6.51232C13.2586 6.5146 13.5094 6.61977 13.6948 6.80518C13.8802 6.99059 13.9854 7.2414 13.9877 7.5036C13.99 7.76579 13.8892 8.0184 13.707 8.207L11.414 10.5L13.707 12.793Z" fill="currentColor"/>
</svg>
